<svg xmlns="http://www.w3.org/2000/svg" width="486" height="460" fill="none" viewBox="0 0 486 460"><g clip-path="url(#a)"><path fill="#1e84b5" fill-opacity=".1" d="M80 419.896c-33.247 3.74-36.156 6.857-39.896 40.104-3.74-33.247-6.857-36.364-40.104-40.104 33.247-3.74 36.364-6.649 40.104-39.896 3.74 33.247 6.65 36.156 39.896 39.896"/><path fill="#1e84b5" d="M30.812 445.518c-11.636 1.309-12.654 2.4-13.963 14.037-1.31-11.637-2.4-12.728-14.036-14.037 11.636-1.309 12.727-2.327 14.036-13.963 1.309 11.636 2.327 12.654 13.963 13.963"/><path fill="#fff" d="M335 59a3 3 0 1 0 0-6 3 3 0 0 0 0 6"/><path fill="#1e84b5" fill-opacity=".1" d="M435.995 230a6.34 6.34 0 0 1-6.331-6.331v-37.338a6.34 6.34 0 0 1 6.331-6.331c3.409 0 6.25 2.841 6.25 6.331v37.338c0 3.49-2.841 6.331-6.25 6.331"/><path fill="#1e84b5" fill-opacity=".1" d="M411 204.999c0-3.49 2.841-6.331 6.25-6.331h37.419c3.49 0 6.25 2.841 6.25 6.331s-2.76 6.331-6.25 6.331H417.25c-3.409 0-6.25-2.84-6.25-6.331m74.664-179.683c-20.779 2.338-22.597 4.286-24.935 25.065-2.338-20.78-4.286-22.727-25.065-25.065 20.779-2.338 22.727-4.156 25.065-24.935 2.338 20.78 4.156 22.597 24.935 24.935"/></g><defs><clipPath id="a"><path fill="#fff" d="M0 0h486v460H0z"/></clipPath></defs></svg>