<svg xmlns="http://www.w3.org/2000/svg" width="257" height="48" fill="none" viewBox="0 0 257 48"><g fill="#0e384c" clip-path="url(#a)"><path d="M23.363 47.273c12.904 0 23.364-10.52 23.364-23.5V7.323c0-1.87-.739-3.663-2.053-4.985A7 7 0 0 0 39.718.273H24.53v10.31c0 2.352.143 4.79 1.37 6.791a11.7 11.7 0 0 0 3.444 3.602 11.6 11.6 0 0 0 4.62 1.835l.448.073a.935.935 0 0 1 .632.89.94.94 0 0 1-.632.889l-.448.073a11.66 11.66 0 0 0-6.377 3.288 11.77 11.77 0 0 0-3.268 6.414l-.073.45a.94.94 0 0 1-.884.636.93.93 0 0 1-.884-.636l-.073-.45a11.8 11.8 0 0 0-1.825-4.648A11.7 11.7 0 0 0 17 26.326c-1.99-1.234-4.413-1.378-6.752-1.378H.027c.611 12.433 10.825 22.325 23.336 22.325"/><path d="M0 22.598h10.25c2.338 0 4.761-.143 6.752-1.377a11.74 11.74 0 0 0 3.824-3.847c1.227-2.002 1.37-4.439 1.37-6.791V.273H7.009a7 7 0 0 0-4.956 2.065A7.07 7.07 0 0 0 0 7.323zM54.268 2.623c0 .624-.246 1.221-.684 1.662a2.33 2.33 0 0 1-3.305 0 2.357 2.357 0 0 1 0-3.323 2.33 2.33 0 0 1 3.305 0c.438.44.684 1.038.684 1.661m193.049 11.873c6.531 0 9.683 4.588 9.683 9.902v9.982h-6.835v-8.797c0-2.409-.874-4.397-3.38-4.397s-3.341 1.988-3.341 4.397v8.796h-6.835v-8.796c0-2.409-.835-4.397-3.342-4.397-2.506 0-3.379 1.988-3.379 4.397v8.796h-6.834v-9.982c0-5.314 3.15-9.902 9.682-9.902 3.57 0 6.151 1.414 7.329 3.746 1.252-2.332 3.987-3.748 7.252-3.748zm-36.545 13.766c2.202 0 3.151-2.027 3.151-4.437V15.26h6.834v9.407c0 5.622-3.265 10.288-9.985 10.288-6.722 0-9.987-4.665-9.987-10.288V15.26h6.835v8.566c0 2.409.948 4.437 3.152 4.437m-20.037 6.73c-4.291 0-7.063-1.492-8.696-4.398l4.937-2.792c.683 1.224 1.708 1.836 3.417 1.836 1.405 0 2.05-.497 2.05-1.11 0-2.332-10.024.04-10.024-7.378 0-3.596 3.037-6.502 8.201-6.502 4.519 0 6.987 2.218 8.089 4.36l-4.937 2.829c-.417-1.147-1.709-1.835-3-1.835-.987 0-1.518.42-1.518.994 0 2.37 10.024.191 10.024 7.38 0 4.015-3.911 6.615-8.543 6.615m-23.88 8.183h-6.835V24.782c0-5.852 4.367-10.096 10.442-10.096 5.924 0 10.443 4.55 10.443 10.096 0 6.118-4.026 10.172-10.063 10.172-1.405 0-2.81-.421-3.987-1.072zm3.607-14.684c2.165 0 3.608-1.683 3.608-3.672 0-2.025-1.443-3.67-3.608-3.67s-3.607 1.645-3.607 3.671c0 1.988 1.443 3.671 3.607 3.671m-17.289-15.257c-2.24 0-4.1-1.874-4.1-4.13s1.86-4.13 4.1-4.13c2.241 0 4.102 1.874 4.102 4.13s-1.861 4.13-4.102 4.13m-3.417 2.025h6.835V34.38h-6.835zm-13.114 19.695c-5.924 0-10.442-4.589-10.442-10.172 0-5.545 4.518-10.134 10.442-10.134s10.443 4.589 10.443 10.134c0 5.583-4.519 10.172-10.443 10.172m0-6.463c2.165 0 3.608-1.683 3.608-3.672 0-2.025-1.443-3.708-3.608-3.708s-3.607 1.683-3.607 3.708c0 1.99 1.443 3.672 3.607 3.672m-23.348 15.257c-4.708 0-8.126-2.103-9.873-5.851l5.658-3.059c.607 1.301 1.746 2.64 4.1 2.64 2.47 0 4.102-1.57 4.292-4.322-.911.803-2.355 1.415-4.518 1.415-5.279 0-9.533-4.092-9.533-9.828 0-5.544 4.52-10.057 10.444-10.057 6.076 0 10.442 4.245 10.442 10.096v7.571c0 6.883-4.747 11.395-11.012 11.395m.455-15.639c2.051 0 3.608-1.416 3.608-3.519 0-2.064-1.556-3.442-3.608-3.442-2.012 0-3.607 1.378-3.607 3.443 0 2.104 1.595 3.517 3.607 3.517zm-21.922 6.845c-5.924 0-10.443-4.589-10.443-10.172 0-5.545 4.52-10.134 10.443-10.134s10.443 4.589 10.443 10.134c0 5.583-4.519 10.172-10.443 10.172m0-6.463c2.165 0 3.608-1.683 3.608-3.672 0-2.025-1.443-3.708-3.608-3.708s-3.607 1.683-3.607 3.708c0 1.99 1.443 3.672 3.607 3.672M68.937 8.57v19.31h11.317v6.501H67.988c-4.328 0-6.074-2.295-6.074-5.928V8.57z"/></g><defs><clipPath id="a"><path fill="#fff" d="M0 .273h257v47H0z"/></clipPath></defs></svg>