<svg xmlns="http://www.w3.org/2000/svg" width="219" height="48" fill="none" viewBox="0 0 219 48"><g fill="#0e384c" clip-path="url(#a)"><path fill-rule="evenodd" d="M23.27 5.64 26.358.273l8.756 5.073-3.087 5.365c-.543.941.269 2.086 1.332 1.88l5.917-1.146 1.915 9.96-5.917 1.145c-9.57 1.852-16.877-8.44-12.004-16.91m-5.35 36.266-3.088 5.367L6.076 42.2l3.088-5.366c.542-.941-.27-2.086-1.334-1.88L1.915 36.1 0 26.14l5.917-1.144c9.57-1.852 16.875 8.44 12.004 16.91m.267-36.266L15.1.273 6.344 5.346l3.088 5.365c.541.941-.269 2.086-1.334 1.88l-5.916-1.146-1.912 9.96 5.915 1.145c9.572 1.852 16.878-8.44 12.004-16.91zm4.824 36.266 3.086 5.367 8.757-5.072-3.089-5.366c-.54-.941.27-2.086 1.334-1.88l5.916 1.145 1.914-9.96-5.916-1.144c-9.57-1.852-16.876 8.44-12.004 16.91z" clip-rule="evenodd"/><path d="M191.027 35.702v-9.987q0-2.076.952-3.725.986-1.68 2.793-2.638 1.808-.955 4.304-.955a8.5 8.5 0 0 1 2.3.296 7.4 7.4 0 0 1 1.905.758 5.7 5.7 0 0 1 1.512 1.121h.066a6.4 6.4 0 0 1 1.511-1.121 8 8 0 0 1 1.939-.758 8.8 8.8 0 0 1 2.333-.296q2.496-.001 4.304.955 1.806.956 2.792 2.638.987 1.648.986 3.725v9.987h-5.126V25.88q0-.823-.426-1.482a3.1 3.1 0 0 0-1.085-1.121 2.93 2.93 0 0 0-1.577-.43q-.888 0-1.61.43c-.45.275-.823.66-1.084 1.12a2.83 2.83 0 0 0-.395 1.483v9.823h-5.092V25.88q0-.823-.427-1.482a3.04 3.04 0 0 0-1.117-1.121 2.93 2.93 0 0 0-1.578-.43q-.887 0-1.609.43a3.1 3.1 0 0 0-1.085 1.12 2.84 2.84 0 0 0-.394 1.483v9.823zm-11.139.396q-2.596 0-4.5-.989-1.873-1.022-2.892-2.735-1.019-1.747-1.019-3.858v-9.724h5.093v9.592a3.3 3.3 0 0 0 .427 1.65q.427.723 1.15 1.186a3.4 3.4 0 0 0 1.708.429q.92 0 1.644-.43a3.4 3.4 0 0 0 1.182-1.186 3.3 3.3 0 0 0 .428-1.649v-9.592h5.092v9.724q0 2.11-.986 3.858-.985 1.714-2.858 2.735-1.84.99-4.469.99m-24.815-.396V31.65h8.116q.328 0 .592-.133a1.3 1.3 0 0 0 .426-.428 1.1 1.1 0 0 0-.426-1.55 1.1 1.1 0 0 0-.592-.164h-2.957q-1.644 0-2.99-.528a4.75 4.75 0 0 1-2.103-1.714q-.756-1.186-.756-3.066 0-1.45.69-2.636a5.6 5.6 0 0 1 1.938-1.913 5.34 5.34 0 0 1 2.728-.725h8.115v4.088h-7.327c-.291-.006-.573.1-.788.297a1 1 0 0 0-.296.725q0 .462.296.79c.215.197.497.304.788.298h2.892q1.84 0 3.154.56 1.347.527 2.07 1.715.755 1.185.755 3.064 0 1.484-.755 2.703a5.4 5.4 0 0 1-1.972 1.946q-1.215.725-2.759.724zm-11.095-17.305q2.136 0 3.778.692a7.5 7.5 0 0 1 2.826 1.912 8.2 8.2 0 0 1 1.807 2.9q.624 1.65.624 3.66 0 2.506-1.051 4.45a7.6 7.6 0 0 1-2.825 3q-1.808 1.087-4.206 1.087a7 7 0 0 1-1.939-.263 6.2 6.2 0 0 1-1.642-.759 4.6 4.6 0 0 1-1.216-1.22h-.099v9.001h-5.092V27.56q0-2.803 1.117-4.846a7.8 7.8 0 0 1 3.154-3.165q2.037-1.153 4.764-1.153zm0 4.417q-1.182 0-2.069.593-.856.56-1.315 1.583-.46.988-.46 2.24t.46 2.243q.459.988 1.315 1.582.887.56 2.069.56t2.037-.56a3.9 3.9 0 0 0 1.315-1.582q.492-.99.492-2.242t-.492-2.241q-.46-1.023-1.315-1.583-.855-.594-2.037-.593m-16.774 12.888v-16.91h5.126v16.91zm2.562-18.822q-1.214 0-2.102-.89t-.887-2.11q0-1.219.887-2.109.888-.923 2.102-.923 1.216 0 2.104.923.886.89.886 2.11 0 1.218-.886 2.11-.888.89-2.104.89M116.064 36.1q-2.594 0-4.665-1.153a8.75 8.75 0 0 1-3.285-3.165q-1.183-2.01-1.183-4.516 0-2.539 1.183-4.516a8.75 8.75 0 0 1 3.285-3.164q2.07-1.187 4.665-1.187t4.633 1.187a8.5 8.5 0 0 1 3.253 3.164q1.215 1.977 1.215 4.516 0 2.505-1.215 4.516a8.5 8.5 0 0 1-3.253 3.165q-2.069 1.154-4.633 1.153m0-4.45q1.216 0 2.104-.593a4 4 0 0 0 1.379-1.582q.493-.99.493-2.242 0-1.219-.493-2.21a4 4 0 0 0-1.379-1.58q-.888-.595-2.104-.594-1.215 0-2.135.593a4 4 0 0 0-1.38 1.583 4.9 4.9 0 0 0-.492 2.209q0 1.251.492 2.24a4 4 0 0 0 1.38 1.583q.92.593 2.135.594M90.381 42.396V38.01h8.41q.492 0 .821-.329a.97.97 0 0 0 .328-.759v-3.725h-.098a7.7 7.7 0 0 1-1.412 1.286 5.2 5.2 0 0 1-1.644.792 7 7 0 0 1-2.003.263q-2.234-.001-4.01-1.055-1.74-1.088-2.76-3-.983-1.912-.984-4.351 0-2.407 1.019-4.384 1.05-1.977 3.055-3.164 2.003-1.187 4.895-1.187 2.76 0 4.764 1.154a7.77 7.77 0 0 1 3.154 3.196q1.118 2.045 1.118 4.814v9.889q0 2.273-1.347 3.593-1.314 1.351-3.647 1.351zm5.65-11.142q1.183 0 2.038-.528a3.73 3.73 0 0 0 1.313-1.483 4.5 4.5 0 0 0 .46-2.044 5.1 5.1 0 0 0-.46-2.175 3.64 3.64 0 0 0-1.314-1.55q-.855-.593-2.038-.593-1.149 0-2.037.56a3.7 3.7 0 0 0-1.314 1.516q-.458.956-.459 2.143 0 1.154.46 2.11.459.923 1.314 1.483.886.56 2.037.56m-19.354 4.845q-2.595 0-4.664-1.153a8.75 8.75 0 0 1-3.287-3.165q-1.183-2.01-1.183-4.516 0-2.539 1.183-4.516a8.75 8.75 0 0 1 3.287-3.164q2.07-1.187 4.664-1.187 2.596 0 4.633 1.187a8.5 8.5 0 0 1 3.252 3.164q1.215 1.977 1.216 4.516 0 2.505-1.216 4.516a8.5 8.5 0 0 1-3.252 3.165q-2.07 1.154-4.633 1.153m0-4.45q1.214 0 2.103-.593a4 4 0 0 0 1.38-1.582q.492-.99.492-2.242 0-1.219-.492-2.21a4 4 0 0 0-1.38-1.58q-.886-.595-2.103-.594-1.215 0-2.135.593a4 4 0 0 0-1.38 1.583 4.9 4.9 0 0 0-.492 2.209q0 1.251.491 2.24c.313.641.79 1.188 1.381 1.583q.92.593 2.135.594m-16.309 4.054q-2.136.001-3.745-.955a6.76 6.76 0 0 1-2.497-2.538q-.887-1.583-.888-3.494V12.628h5.52V29.11q0 .791.558 1.385a1.82 1.82 0 0 0 1.38.593h6.078v4.614z"/></g><defs><clipPath id="a"><path fill="#fff" d="M0 .273h219v47H0z"/></clipPath></defs></svg>