<svg xmlns="http://www.w3.org/2000/svg" width="203" height="47" fill="none" viewBox="0 0 203 47"><g fill="#0e384c" clip-path="url(#a)"><path d="M58.57 24.196q.06-1.18 0-2.36H14.296q-.014.296-.022.59H5l-.004.295H0v.59h4.993l.007.295h9.274q.007.296.024.59h12.71a10 10 0 0 1-.072-1.18h18.667q0 .6-.073 1.18zm-.092-3.539H45.31a9.5 9.5 0 0 0-.385-1.18H27.617a9 9 0 0 0-.385 1.18H14.387q.032-.296.07-.59H5.182l.04-.287H0v-.59h5.314l.054-.302h9.275q.053-.296.116-.59h43.35q.245 1.16.369 2.36m-.653-3.538H43.556a9.5 9.5 0 0 0-1.111-1.18h-12.35q-.605.542-1.111 1.18H15.043q.08-.296.167-.59H5.935l.103-.331H0v-.591h6.232l.091-.258h9.275q.106-.298.222-.59h41.227q.45 1.15.778 2.36m-1.28-3.539H16.322q.136-.296.28-.59H7.33l.165-.325H0v-.59h7.81l.148-.264h9.275q.17-.297.349-.59h37.703a22 22 0 0 1 1.26 2.36M14.387 25.375H58.48q-.125 1.201-.37 2.36H44.354q.325-.567.571-1.18h-17.31q.245.613.57 1.18H14.757q-.062-.295-.116-.59H5.368l-.055-.312H0v-.59h5.22l-.038-.278h9.275a23 23 0 0 1-.07-.59m.655 3.539h42.782a22 22 0 0 1-.777 2.359H40.793a9.4 9.4 0 0 0 1.651-1.18H30.097q.764.68 1.652 1.18H15.82q-.115-.294-.222-.59H6.323l-.1-.284H0v-.59h6.03l-.094-.306h9.274a25 25 0 0 1-.168-.59m1.28 3.538h40.223a23 23 0 0 1-1.26 2.36H17.582q-.18-.293-.35-.59H7.958l-.172-.306H0v-.59h7.473l-.144-.283h9.275a22 22 0 0 1-.282-.59m3.418 5.308q.258.3.527.59H52.6a22.5 22.5 0 0 0 1.91-2.36H18.358q.21.3.429.59H9.512l.23.301H0v.59h10.22q.12.146.245.289zm3.87 3.538q.426.306.863.59h23.92a22.3 22.3 0 0 0 3.027-2.359H21.448q.324.301.66.59h-9.275q.189.163.382.318H0v.59h13.967q.183.139.369.271h9.275zm8.186 3.638c1.496.322 3.047.49 4.637.49 3.563 0 6.929-.849 9.91-2.358H26.522q.622.315 1.265.59h-9.275q.248.106.499.207H0v.59h20.68a22 22 0 0 0 6.479.972c1.59 0 3.142-.17 4.637-.491M18.358 10.042h36.151a22.5 22.5 0 0 0-1.91-2.359H20.267q-.27.29-.528.59h-9.274l-.205.243H0v.59h9.779q-.134.172-.266.346h9.274q-.22.293-.43.59m3.089-3.539h29.972a22.3 22.3 0 0 0-3.026-2.358h-23.92q-.437.285-.863.59h-9.274q-.193.138-.383.281H0v.59h13.202q-.186.152-.367.308h9.273q-.336.288-.661.59m5.076-3.538h19.822a21.9 21.9 0 0 0-9.911-2.36c-1.591 0-3.142.17-4.638.492A22 22 0 0 0 27.16.606c-2.49 0-4.883.415-7.117 1.18H0v.59h27.787q-.643.274-1.264.589M129.789.273q1.15 0 1.806.58.684.554.684 1.55 0 .997-.684 1.576-.656.555-1.806.555-1.148 0-1.833-.555-.656-.579-.656-1.575 0-.995.656-1.55.686-.58 1.833-.58m2.134 6.832v12.032q0 1.163.384 1.577.41.415 1.367.415v.58a58 58 0 0 0-1.532-.055 40 40 0 0 0-2.107-.055q-1.066 0-2.16.055-.822.018-1.642.055v-.58q.957 0 1.341-.415.41-.414.41-1.577v-8.713q0-1.245-.383-1.825-.356-.608-1.368-.608V7.41q.876.084 1.697.083 1.148 0 2.133-.083a16 16 0 0 0 1.86-.304"/><path fill-rule="evenodd" d="M139.624 9.645V7.106q-.848.195-1.86.305-1.013.082-2.135.082-.82 0-1.696-.082v.581q.985 0 1.368.609.384.58.383 1.824v13.831q0 1.106-.383 1.493-.356.388-1.259.387v.582l1.45-.083a71 71 0 0 1 1.998-.028q1.396 0 2.626.027 1.259.057 1.97.083v-.58q-1.149 0-1.806-.443-.656-.414-.656-1.715v-2.772q.36.304.848.504.875.389 1.942.388 1.45 0 2.6-.526a5.3 5.3 0 0 0 1.997-1.549q.848-1.05 1.286-2.572.465-1.521.465-3.541 0-2.295-.657-3.817-.657-1.549-1.751-2.295a4.2 4.2 0 0 0-2.49-.775q-1.587 0-2.79.829-.946.645-1.45 1.793zm0 .95v10.027q.227.273.547.453.519.276 1.177.276 1.23 0 1.942-.83.71-.857 1.012-2.378.329-1.549.329-3.679 0-2.378-.301-3.734-.302-1.356-.821-1.936-.52-.582-1.259-.581-.984.001-1.805.775-.618.601-.821 1.607" clip-rule="evenodd"/><path d="M155.043 7.024q1.15 0 1.998.304.875.277 1.259.553.93.637 1.149-.83h.574a43 43 0 0 0-.082 1.908 121 121 0 0 0-.028 2.96h-.574a9 9 0 0 0-.52-2.019 4 4 0 0 0-1.121-1.632q-.712-.637-1.861-.637-.793 0-1.341.472-.547.442-.547 1.3 0 .829.492 1.466.493.609 1.259 1.189.793.553 1.642 1.189.903.69 1.641 1.383c.472.417.87.913 1.176 1.466q.44.802.439 1.909 0 1.243-.712 2.184-.712.914-1.887 1.41-1.15.5-2.572.5a6 6 0 0 1-1.478-.167 5 5 0 0 1-1.094-.415 20 20 0 0 0-.684-.304 5 5 0 0 0-.575-.276q-.274-.084-.492.193-.192.277-.301.774h-.574q.055-.886.081-2.157.028-1.272.028-3.373h.574q.165 1.493.602 2.653.438 1.136 1.176 1.8.766.636 1.916.636.465 0 .903-.195.437-.195.712-.637.3-.442.301-1.132 0-1.219-.795-2.02-.765-.803-1.969-1.742a76 76 0 0 1-1.669-1.411 7 7 0 0 1-1.258-1.549 3.8 3.8 0 0 1-.493-1.936q0-1.244.656-2.102a3.9 3.9 0 0 1 1.724-1.273 6.1 6.1 0 0 1 2.325-.442m33.963.304q-.711-.304-1.861-.304a5.1 5.1 0 0 0-2.461.608q-1.122.58-1.779 1.964V7.107q-.848.193-1.86.304a26 26 0 0 1-2.134.082 18 18 0 0 1-1.696-.082v.581q1.011 0 1.367.609.383.58.383 1.824v8.713q0 1.163-.41 1.577-.383.415-1.34.415v.58a71 71 0 0 1 1.641-.055 42 42 0 0 1 2.134-.055q.958 0 1.86.055.93.03 1.368.056v-.58q-.71 0-1.012-.416-.301-.414-.301-1.577V11.45q0-.912.355-1.632.384-.747.985-1.16a2.27 2.27 0 0 1 1.314-.416q.63 0 .93.304.328.277.438.802.11.498.109 1.19v8.601q0 1.163-.301 1.577-.273.415-1.012.415v.58q.492-.026 1.45-.055a34 34 0 0 1 3.885 0q1.012.03 1.504.056v-.58q-.875 0-1.231-.416-.355-.414-.355-1.577v-7.566l-.002-.086-.004-.28a4 4 0 0 1 .361-1.333q.384-.748.985-1.19.602-.442 1.314-.442.71 0 1.039.304.355.277.466.802.136.498.136 1.19v8.601q0 1.163-.301 1.577-.273.415-1.012.415v.58a64 64 0 0 1 1.45-.055 34 34 0 0 1 1.942-.055q1.013 0 2.052.055a71 71 0 0 1 1.56.056v-.58q-.957 0-1.368-.416-.384-.414-.383-1.577v-7.44q0-1.383-.191-2.213-.192-.857-.63-1.382-.438-.498-1.149-.775-.712-.304-1.86-.304a6.1 6.1 0 0 0-2.626.58q-1.18.57-1.912 2.173a6 6 0 0 0-.059-.292q-.19-.857-.629-1.382-.437-.498-1.149-.775m-13.938 11.368V7.106a16 16 0 0 1-1.861.305 25 25 0 0 1-2.134.082q-.82 0-1.696-.082v.581q1.014 0 1.369.609.382.58.382 1.824v7.247q0 .913-.382 1.66a2.9 2.9 0 0 1-.958 1.134 2.2 2.2 0 0 1-1.314.415q-.682 0-1.039-.277a1.6 1.6 0 0 1-.493-.829 6 6 0 0 1-.109-1.217V7.106q-.848.194-1.86.305a26 26 0 0 1-2.134.082 18 18 0 0 1-1.696-.082v.581q1.011 0 1.367.609.383.58.383 1.824v6.998q0 1.356.192 2.213.192.858.656 1.384.41.47 1.122.774t1.861.305q1.423 0 2.571-.582 1.177-.609 1.833-1.99v2.488a11.5 11.5 0 0 1 1.861-.304 25 25 0 0 1 2.134-.083q.848 0 1.696.083v-.58q-.986 0-1.368-.582-.383-.609-.383-1.852"/><path fill-rule="evenodd" d="M122.146 7.77q-1.506-.746-3.503-.746-1.942 0-3.474.747-1.505.746-2.38 2.406-.849 1.659-.849 4.398t.848 4.398q.874 1.631 2.38 2.378 1.533.748 3.475.748 1.997 0 3.503-.748 1.504-.746 2.352-2.378.848-1.659.848-4.398t-.848-4.398q-.848-1.66-2.352-2.406m-5.336 1.467q.74-1.66 1.833-1.66 1.122 0 1.833 1.66.738 1.631.739 5.338 0 3.707-.739 5.339-.711 1.631-1.833 1.632-1.094 0-1.833-1.633-.738-1.631-.738-5.338 0-3.705.738-5.338M103.018 26.91q-1.697 0-3.037-.304-1.312-.276-2.079-.885-.738-.582-.738-1.439t.765-1.548q.766-.663 2.272-1.051l.245.442c-.314.238-.574.54-.766.885q-.219.498-.219 1.024 0 1.161 1.041 1.769 1.066.637 2.872.637 1.23 0 2.189-.332.984-.332 1.531-.995.576-.665.576-1.633 0-.83-.602-1.41-.603-.554-2.408-.553h-1.697q-1.12 0-1.969-.25-.822-.247-1.287-.774-.464-.553-.464-1.383 0-1.16.903-2.047.706-.693 1.953-1.319a7 7 0 0 1-1.599-.395q-1.23-.471-1.94-1.439-.714-.967-.713-2.489 0-1.521.712-2.49.71-.996 1.943-1.439 1.23-.468 2.789-.469 1.561 0 2.791.47a4.1 4.1 0 0 1 1.396.823q.349-.508.847-.906.931-.72 1.998-.72.876 0 1.313.5.466.468.466 1.244 0 .829-.439 1.244-.437.389-.985.388a1.37 1.37 0 0 1-.875-.333q-.383-.332-.437-.995-.048-.594.329-1.474-.798.343-1.232.783a3.6 3.6 0 0 0-.567.713q.066.085.128.171.712.968.712 2.49 0 1.52-.712 2.489-.71.968-1.942 1.439-1.23.47-2.791.47-.233 0-.467-.011a9 9 0 0 0-.709.537 1.16 1.16 0 0 0-.437.94q0 .884 1.094.884h2.982q1.505 0 2.681.36 1.203.36 1.888 1.19.711.801.711 2.102 0 1.355-.875 2.517-.849 1.162-2.627 1.853-1.778.72-4.514.72m.273-11.59q.74 0 1.149-.828.411-.859.411-3.07 0-2.213-.411-3.044-.409-.857-1.148-.857-.712 0-1.149.857-.411.83-.411 3.043t.411 3.07q.438.83 1.148.83m-9.67-7.55q-1.504-.747-3.5-.747-1.943 0-3.475.747-1.504.746-2.38 2.406-.849 1.659-.849 4.398.001 2.738.848 4.398.876 1.631 2.38 2.378 1.533.748 3.476.748 1.997 0 3.5-.748 1.505-.746 2.354-2.378.849-1.659.848-4.398 0-2.738-.848-4.398T93.622 7.77m-5.334 1.466q.738-1.66 1.834-1.66 1.12 0 1.831 1.66.74 1.631.74 5.338t-.738 5.339q-.712 1.631-1.833 1.632-1.096 0-1.834-1.633-.74-1.631-.739-5.338 0-3.705.739-5.338" clip-rule="evenodd"/><path d="M76.048 2.125v.554q-.93.027-1.422.22a.98.98 0 0 0-.63.665q-.164.47-.164 1.493v14.051q0 .857.11 1.273.136.414.492.553.384.138 1.121.138h1.342q.928 0 1.75-.442a4.9 4.9 0 0 0 1.477-1.246 7.5 7.5 0 0 0 1.096-1.963q.437-1.133.655-2.517h.63a29 29 0 0 0-.081 2.434q0 .636.026 1.853a31 31 0 0 0 .164 2.517 80 80 0 0 0-3.146-.055 209 209 0 0 0-3.12-.027h-1.75q-1.067 0-2.298.027-1.23 0-2.49.028-1.26 0-2.38.027v-.553q.876-.056 1.313-.22.438-.167.575-.665.164-.498.164-1.494V5.057q0-1.024-.164-1.493a.93.93 0 0 0-.602-.664q-.437-.194-1.285-.222v-.553q2.16.08 4.322.083 1.205 0 2.352-.028 1.178-.027 1.943-.055"/><path fill-rule="evenodd" d="M198.182 44.566q-.058-.298.08-.775l3.853-14.115q-.927.385-1.907.595-1.003.2-2.301.22l-.138.417q.964 0 1.201.319.234.317.058.993l-.912 3.478a1.04 1.04 0 0 0-.287-.436q-.334-.319-.924-.319-1.18 0-2.183.537a6.8 6.8 0 0 0-1.79 1.432 8.7 8.7 0 0 0-1.356 1.948c-.358.69-.641 1.417-.846 2.167a7.5 7.5 0 0 0-.295 1.989q0 .954.295 1.57.295.596.806.894.511.278 1.141.278.963 0 1.73-.576.766-.596 1.436-1.829.281-.502.561-1.129l-.129.493a6 6 0 0 0-.236 1.193q-.039.517.08.875.234.974 1.454.974.451 0 .924-.179.472-.179.885-.617.433-.436.688-1.252l.473-1.451h-.374l-.315.894q-.353 1.015-.668 1.371-.295.34-.61.339-.334 0-.394-.298m-1.048-5.12q-.223.729-.485 1.382-.49 1.274-1.043 2.188-.53.892-1.041 1.392-.512.476-.905.476-.373 0-.55-.357-.158-.379-.158-1.134 0-1.074.236-2.187.235-1.133.649-2.166a10.6 10.6 0 0 1 .943-1.85q.532-.834 1.122-1.312.61-.478 1.199-.477.393 0 .63.278.165.18.252.526z" clip-rule="evenodd"/><path d="M185.097 45.482h-2.418l2.359-8.568q.177-.597.119-.835-.06-.239-.355-.238-.373 0-.688.377t-.649 1.333l-.335.933h-.373l.511-1.491q.276-.794.688-1.233.414-.456.906-.635.49-.18 1.002-.18.63 0 .924.26.316.258.394.676c.066.3.079.61.039.914q-.04.477-.158.934l-.316 1.247.08-.213q.551-1.41 1.062-2.247.532-.855 1.121-1.212a2.4 2.4 0 0 1 1.279-.359q.707 0 1.081.418.394.417.394 1.034-.001.496-.236.934a1.94 1.94 0 0 1-.63.676 1.57 1.57 0 0 1-.865.239q-.491 0-.787-.259-.275-.258-.275-.755 0-.437.197-.796c.126-.233.3-.436.511-.595q.316-.259.688-.359a.24.24 0 0 0-.098-.059.4.4 0 0 0-.138-.02q-.432 0-.885.318-.452.299-.944.975t-1.002 1.788a29 29 0 0 0-1.023 2.684 39 39 0 0 0-.447 1.424z"/><path fill-rule="evenodd" d="m177.75 42.408-.083.31q-.186.673-.256 1.371-.059.637.196 1.073.395.597 1.337.597.454 0 .906-.179a2.4 2.4 0 0 0 .884-.617q.413-.457.688-1.271l.493-1.451h-.375l-.295.894q-.353 1.033-.687 1.372-.335.337-.65.337-.255 0-.334-.16a1.1 1.1 0 0 1-.039-.417q.038-.252.118-.496l2.537-8.828a8.4 8.4 0 0 1-1.2.2q-.609.06-1.318.079l-.284 1.064a1.65 1.65 0 0 0-.227-.766 1.14 1.14 0 0 0-.432-.432 1.1 1.1 0 0 0-.591-.145q-.863 0-1.73.537a7.1 7.1 0 0 0-1.632 1.432 11 11 0 0 0-1.377 1.987 11.4 11.4 0 0 0-.924 2.247 7.7 7.7 0 0 0-.333 2.167q0 1.114.511 1.79.51.655 1.572.655.747 0 1.436-.436.708-.439 1.337-1.451.39-.61.752-1.463m-1.695 2.018q-.454.418-.807.418-.295 0-.452-.298-.138-.319-.138-1.054 0-1.054.236-2.166a14 14 0 0 1 .63-2.147q.412-1.034.904-1.85.492-.814.983-1.292.511-.478.964-.477.471 0 .669.477.195.432.101 1.156l-.581 2.172.067-.345q-.316 1.272-.748 2.346-.378.962-.904 1.848-.472.775-.924 1.212m-6.557-.635q-.138.477-.078.775.058.298.393.298.315 0 .609-.337.315-.359.668-1.373l.315-.894h.374l-.472 1.45q-.255.816-.688 1.253a2.4 2.4 0 0 1-.885.617 2.6 2.6 0 0 1-.924.18q-1.219 0-1.455-.975a2.3 2.3 0 0 1-.078-.875q.037-.518.235-1.193l.13-.493q-.282.626-.563 1.13-.668 1.232-1.435 1.827a2.8 2.8 0 0 1-1.731.578q-.629-.001-1.14-.278a2.05 2.05 0 0 1-.806-.895q-.295-.615-.295-1.57 0-.916.295-1.989.294-1.093.845-2.167a8.8 8.8 0 0 1 1.357-1.948 6.8 6.8 0 0 1 1.789-1.432 4.56 4.56 0 0 1 2.183-.537q.59 0 .924.319.193.172.288.436l.911-3.478q.179-.675-.058-.994-.237-.32-1.199-.319l.137-.416a13 13 0 0 0 2.301-.22 11 11 0 0 0 1.908-.595zm-1.612-2.963q.263-.655.484-1.381l.85-3.242a1.2 1.2 0 0 0-.253-.526.79.79 0 0 0-.629-.278q-.59.001-1.199.476-.591.479-1.121 1.313a10.5 10.5 0 0 0-.944 1.849c-.28.701-.497 1.427-.649 2.167a10.6 10.6 0 0 0-.237 2.187q0 .755.158 1.133.177.358.551.358.393 0 .904-.478.512-.496 1.043-1.391a14.3 14.3 0 0 0 1.042-2.187" clip-rule="evenodd"/><path d="M150.843 45.482h2.418l.228-.9-.012.066q.374-1.393.846-2.685a31 31 0 0 1 1.022-2.425q.531-1.114 1.063-1.948.53-.836 1.022-1.293.492-.477.904-.476.334 0 .413.238c.054.18.061.372.02.556a5 5 0 0 1-.158.637l-1.788 5.467q-.278.835-.315 1.431-.04.597.216.974.197.3.55.458.375.178.886.18.471 0 .944-.18.49-.16.904-.597.433-.437.708-1.273l.491-1.45h-.373l-.315.894q-.373 1.034-.707 1.372-.315.339-.61.338-.315 0-.394-.26-.078-.277.098-.813l1.928-5.846q.255-.775.255-1.45.02-.696-.373-1.114-.375-.437-1.337-.437-.728 0-1.397.318-.668.317-1.297 1.113-.63.776-1.298 2.107a25 25 0 0 0-.814 1.83l.656-2.585q.119-.479.177-.954.06-.496-.039-.895a1.14 1.14 0 0 0-.452-.676q-.334-.26-.983-.259-.788 0-1.436.438-.649.437-1.062 1.61l-.511 1.49h.373l.335-.933q.354-.975.649-1.332.314-.377.688-.378.275 0 .335.16a.65.65 0 0 1 .038.397 5 5 0 0 1-.117.517z"/><path fill-rule="evenodd" d="m145.831 42.72.083-.31a10 10 0 0 1-.751 1.463q-.63 1.014-1.338 1.45a2.64 2.64 0 0 1-1.435.437q-1.062 0-1.573-.656-.513-.675-.512-1.789 0-1.032.335-2.167a11.4 11.4 0 0 1 .924-2.247 11 11 0 0 1 1.376-1.987 7.1 7.1 0 0 1 1.632-1.432q.865-.536 1.731-.537.668 0 1.023.578.19.295.226.765l.285-1.064a19 19 0 0 0 1.317-.08q.63-.059 1.199-.199l-2.536 8.829a3 3 0 0 0-.118.496c-.015.14-.001.283.04.418q.078.16.333.16.315 0 .649-.338.335-.339.688-1.372l.296-.895h.373l-.491 1.45q-.275.816-.689 1.274a2.45 2.45 0 0 1-1.789.795q-.944 0-1.337-.596-.256-.438-.196-1.074a8 8 0 0 1 .255-1.373m-2.419 2.126q.354 0 .807-.418.452-.436.924-1.212a13 13 0 0 0 .904-1.848q.433-1.074.748-2.348l-.067.347.581-2.171q.093-.727-.101-1.156-.198-.478-.67-.478-.452 0-.962.477-.492.477-.984 1.292t-.905 1.849a14.6 14.6 0 0 0-.629 2.146 10.5 10.5 0 0 0-.236 2.168q0 .736.138 1.053.158.3.452.299" clip-rule="evenodd"/><path d="m141.669 35.622.059-.398h-2.342l.926-3.26a8 8 0 0 1-1.18.2q-.609.058-1.317.078l-.846 2.982h-1.789l-.098.398h1.775l-2.012 7.098q-.255.873-.176 1.57.097.676.55 1.073.471.398 1.357.399 1.003 0 1.73-.538.729-.536 1.141-1.77l.394-1.192h-.375l-.294.815q-.354.995-.787 1.392-.414.397-.826.397a.7.7 0 0 1-.57-.26q-.197-.255-.039-.813l2.322-8.171zm-6.513-4.354q-.196.518-.53 1.511-.315.974-.629 2.544h-.393q.058-.278.078-.575.037-.267.039-.537 0-.776-.315-1.352a2.1 2.1 0 0 0-.924-.935q-.61-.357-1.572-.357-1.044 0-1.77.556-.728.536-.728 1.73 0 .736.334 1.391.355.637.885 1.253.552.596 1.16 1.212.61.598 1.141 1.233.53.636.865 1.352.354.696.354 1.53 0 1.055-.511 1.81a4 4 0 0 1-1.279 1.212 6.2 6.2 0 0 1-1.71.676 7 7 0 0 1-1.77.24q-.885-.001-1.475-.14a3.4 3.4 0 0 1-.963-.338 38 38 0 0 1-.768-.437 1.2 1.2 0 0 0-.393-.219.8.8 0 0 0-.294-.08q-.257 0-.433.26a5 5 0 0 0-.393.813h-.394q.487-1.213.807-2.484.235-.914.531-2.287h.393q-.083.396-.138.795-.058.399-.039.796.058 1.39.845 2.147.808.756 2.359.755 1.319 0 1.987-.556.669-.575.669-1.67a3.5 3.5 0 0 0-.315-1.51 5.2 5.2 0 0 0-.787-1.293q-.5-.606-1.041-1.173-.543-.568-1.043-1.173a6.2 6.2 0 0 1-.807-1.312 3.9 3.9 0 0 1-.313-1.591q0-.993.413-1.73a3.9 3.9 0 0 1 1.1-1.212c.459-.331.971-.58 1.514-.736a5.5 5.5 0 0 1 1.632-.258q1.063 0 1.75.26.69.256 1.181.615l.373.238q.177.08.276.08.275.001.648-1.054z"/><path fill-rule="evenodd" d="M116.175 44.566q-.06-.298.079-.775l3.853-14.115q-.927.385-1.907.595-1.003.2-2.301.22l-.137.417q.963 0 1.199.319.236.317.059.993l-.912 3.478a1.04 1.04 0 0 0-.287-.436q-.334-.319-.924-.319a4.56 4.56 0 0 0-2.183.537 6.8 6.8 0 0 0-1.789 1.432 8.8 8.8 0 0 0-1.357 1.948 11 11 0 0 0-.846 2.167 7.5 7.5 0 0 0-.295 1.989q0 .954.295 1.57.295.596.806.894.511.278 1.141.278.963 0 1.73-.576.767-.596 1.435-1.829.28-.502.563-1.129l-.129.493a6 6 0 0 0-.237 1.193 2.3 2.3 0 0 0 .079.875q.235.974 1.456.974.451 0 .924-.179.472-.179.884-.617.433-.436.688-1.252l.473-1.451h-.374l-.315.894q-.353 1.015-.668 1.371-.295.34-.61.339-.334 0-.393-.298m-1.05-5.12q-.22.729-.485 1.382a14 14 0 0 1-1.041 2.188q-.531.892-1.042 1.392-.51.476-.906.476-.372 0-.549-.357-.158-.379-.158-1.134 0-1.074.236-2.187.236-1.133.649-2.166.381-.972.945-1.85.53-.834 1.12-1.312.61-.478 1.199-.477.394 0 .63.278.165.18.252.526z" clip-rule="evenodd"/><path d="M100.016 45.482h-2.418l2.38-8.568q.078-.278.116-.517a.65.65 0 0 0-.038-.397q-.06-.16-.335-.16-.373 0-.688.378-.294.358-.649 1.333l-.334.933h-.373l.511-1.491q.413-1.173 1.062-1.61a2.5 2.5 0 0 1 1.435-.437q.648 0 .983.258c.229.16.39.401.453.675q.098.398.039.896-.06.482-.177.954l-.656 2.585q.417-1.04.814-1.83.667-1.331 1.297-2.107.63-.794 1.297-1.113a3.2 3.2 0 0 1 1.397-.319q.962 0 1.337.438.394.417.373 1.113 0 .675-.255 1.451l-1.927 5.846q-.178.537-.099.813.08.26.395.26.294 0 .609-.337.333-.34.708-1.373l.315-.894h.373l-.492 1.45q-.276.836-.707 1.274a2.16 2.16 0 0 1-.906.596 2.6 2.6 0 0 1-.943.18q-.511 0-.885-.18a1.25 1.25 0 0 1-.55-.458q-.256-.377-.217-.974t.315-1.43l1.789-5.468q.098-.318.158-.637a1.1 1.1 0 0 0-.02-.556q-.079-.239-.413-.238-.414 0-.904.476-.493.458-1.023 1.293a18 18 0 0 0-1.062 1.948 31 31 0 0 0-1.023 2.425 32 32 0 0 0-.845 2.685l.012-.065z"/><path fill-rule="evenodd" d="m92.669 42.41-.082.31q-.186.675-.257 1.372-.06.636.196 1.073.394.597 1.339.597a2.44 2.44 0 0 0 1.79-.796q.412-.458.688-1.272l.49-1.45h-.374l-.294.894q-.356 1.033-.688 1.371-.335.337-.649.338-.256 0-.335-.16a1.1 1.1 0 0 1-.04-.417q.04-.258.12-.497l2.536-8.827a8.4 8.4 0 0 1-1.2.2q-.61.06-1.318.078l-.284 1.064a1.66 1.66 0 0 0-.227-.765 1.14 1.14 0 0 0-1.022-.577q-.866 0-1.731.537a7.1 7.1 0 0 0-1.632 1.431 11 11 0 0 0-1.377 1.988 11.4 11.4 0 0 0-.924 2.247 7.7 7.7 0 0 0-.334 2.167q0 1.114.511 1.789.512.657 1.573.656.748 0 1.435-.437.71-.439 1.338-1.45.39-.61.752-1.463m-1.695 2.019q-.453.417-.807.418-.295 0-.452-.299-.137-.317-.138-1.053 0-1.054.237-2.167.234-1.114.629-2.147.412-1.034.904-1.849t.983-1.293q.511-.477.964-.476.472 0 .669.476.195.432.101 1.156l-.581 2.173.066-.346a18 18 0 0 1-.746 2.346q-.434 1.073-.906 1.849-.472.774-.924 1.212" clip-rule="evenodd"/><path d="M81.801 45.482h-2.418l2.359-8.568q.177-.597.118-.835-.059-.239-.354-.238-.373 0-.688.377t-.649 1.333l-.335.933h-.373l.511-1.491q.276-.794.688-1.233.414-.456.906-.635a2.9 2.9 0 0 1 1.003-.18q.629 0 .923.26c.208.169.349.41.394.676q.098.416.039.914a5.4 5.4 0 0 1-.158.934l-.315 1.247.032-.087.047-.126q.551-1.41 1.062-2.247.532-.855 1.121-1.212a2.4 2.4 0 0 1 1.279-.359q.707 0 1.082.418.392.417.393 1.034 0 .496-.237.934a1.94 1.94 0 0 1-.629.676c-.26.162-.56.245-.866.239q-.49 0-.786-.259-.275-.258-.275-.755 0-.437.197-.796a1.9 1.9 0 0 1 .51-.595q.315-.259.69-.359a.25.25 0 0 0-.099-.059.4.4 0 0 0-.139-.02q-.432 0-.884.318-.452.299-.944.975-.49.675-1.003 1.788a29 29 0 0 0-1.022 2.684q-.223.661-.447 1.424z"/><path fill-rule="evenodd" d="M78.122 32.142q-.983-.716-3.146-.716-.669 0-1.338.02-.648.02-1.494.02h-.983q-.532-.02-1.004-.02a61 61 0 0 1-.786-.04l-.098.398q.767 0 1.042.2.295.176.275.556-.04.483-.157.954l-2.596 9.86q-.176.716-.393 1.074c-.13.228-.341.398-.59.477q-.375.12-1.042.159l-.079.397q.334-.018.805-.019.473-.02 1.004-.02 1.485-.046 2.969.02.807.019 1.476.02 1.277 0 2.418-.26a6.6 6.6 0 0 0 1.986-.813 4.1 4.1 0 0 0 1.357-1.333q.51-.794.51-1.868.001-1.214-.982-2.088-.963-.876-3.048-1.034a8.4 8.4 0 0 0 2.497-.775q1.101-.577 1.73-1.412a2.97 2.97 0 0 0 .65-1.868q.001-1.193-.983-1.889m-6.276 6.203-1.315 5.03q-.117.495-.157.874-.02.378.196.578.217.198.807.198 1.396 0 2.28-.537a3.3 3.3 0 0 0 1.319-1.47q.431-.957.431-2.148 0-.737-.255-1.292a1.82 1.82 0 0 0-.767-.896q-.53-.337-1.416-.337zm.088-.338h.899q1.12 0 1.906-.577a3.73 3.73 0 0 0 1.22-1.55 4.8 4.8 0 0 0 .432-2.009q0-.994-.393-1.53-.374-.537-1.319-.537-.686 0-.982.278-.294.258-.51 1.132z" clip-rule="evenodd"/></g><defs><clipPath id="a"><path fill="#fff" d="M0 .273h203v46H0z"/></clipPath></defs></svg>