<svg xmlns="http://www.w3.org/2000/svg" width="304" height="78" fill="none" viewBox="0 0 304 78"><path fill="#1e84b5" d="M105.116 24.443q5.33 0 9.317 2.113 3.985 2.113 6.147 5.955 2.21 3.795 2.209 8.788 0 4.947-2.209 8.789-2.162 3.841-6.195 5.955-3.986 2.113-9.269 2.113h-12.63V24.443zm-.528 26.605q4.658 0 7.251-2.545t2.594-7.204q0-4.657-2.594-7.251t-7.251-2.594h-3.89v19.594zm48.051-6.723q0 1.153-.144 2.401h-18.586q.193 2.498 1.585 3.842 1.441 1.296 3.506 1.297 3.074 0 4.274-2.594h8.74a11.8 11.8 0 0 1-2.449 4.755q-1.728 2.112-4.37 3.313-2.642 1.2-5.907 1.201-3.937 0-7.011-1.68-3.073-1.682-4.803-4.803-1.728-3.122-1.729-7.3 0-4.177 1.681-7.3 1.73-3.12 4.803-4.802 3.073-1.68 7.059-1.68 3.89 0 6.916 1.632 3.025 1.633 4.706 4.658 1.73 3.025 1.729 7.06m-8.404-2.161q0-2.114-1.441-3.362t-3.602-1.248q-2.065 0-3.506 1.2-1.392 1.2-1.729 3.41zm29.064-11.094q4.707 0 7.492 3.074 2.833 3.025 2.833 8.356v15.656h-8.164V43.605q0-2.69-1.392-4.179-1.393-1.488-3.746-1.488-2.354 0-3.746 1.488-1.393 1.49-1.393 4.179v14.55h-8.212V31.359h8.212v3.554q1.249-1.776 3.362-2.785 2.113-1.057 4.754-1.057m30.967 20.122v6.964h-4.178q-4.465 0-6.963-2.161-2.497-2.21-2.497-7.156V38.178h-3.266v-6.82h3.266v-6.53h8.212v6.53h5.378v6.82h-5.378v10.757q0 1.2.576 1.729.577.528 1.921.528zm2.942-6.483q0-4.13 1.537-7.252 1.584-3.12 4.274-4.802 2.69-1.68 6.003-1.68 2.834 0 4.946 1.152 2.162 1.153 3.314 3.025v-3.794h8.212v26.798h-8.212v-3.794q-1.2 1.873-3.362 3.025-2.112 1.153-4.946 1.153-3.266 0-5.955-1.68-2.69-1.73-4.274-4.851-1.537-3.17-1.537-7.3m20.074.048q0-3.074-1.729-4.85-1.68-1.777-4.13-1.777-2.449 0-4.178 1.777-1.681 1.728-1.681 4.802 0 3.075 1.681 4.898 1.729 1.777 4.178 1.777 2.45 0 4.13-1.776 1.73-1.778 1.729-4.85m18.283-16.184q-2.161 0-3.554-1.249-1.344-1.296-1.344-3.17 0-1.92 1.344-3.169 1.393-1.296 3.554-1.296 2.113 0 3.458 1.296 1.393 1.25 1.393 3.17 0 1.872-1.393 3.17-1.345 1.248-3.458 1.248m4.082 2.785v26.798h-8.212v-26.8zm14.164 4.467q1.44-2.21 3.601-3.458 2.161-1.297 4.803-1.297v8.693h-2.257q-3.074 0-4.611 1.344-1.536 1.297-1.536 4.61v12.439h-8.213v-26.8h8.213zm37.59 8.5q0 1.153-.145 2.401h-18.585q.192 2.498 1.585 3.842 1.44 1.296 3.506 1.297 3.073 0 4.274-2.594h8.74a11.8 11.8 0 0 1-2.449 4.755q-1.729 2.112-4.37 3.313-2.642 1.2-5.907 1.201-3.938 0-7.012-1.68-3.073-1.682-4.802-4.803-1.73-3.122-1.729-7.3 0-4.177 1.681-7.3 1.729-3.12 4.802-4.802 3.074-1.68 7.06-1.68 3.89 0 6.915 1.632 3.026 1.633 4.707 4.658 1.728 3.025 1.729 7.06m-8.405-2.161q0-2.114-1.44-3.362-1.441-1.248-3.602-1.248-2.065 0-3.506 1.2-1.393 1.2-1.729 3.41z"/><g clip-path="url(#a)"><path fill="#fff" fill-rule="evenodd" d="M1.393 15.641c-.57 1.963 1.71 4.591 6.08 6.997 1.71-4.749 5.097-8.58 10.195-9.245 6.965-.918 10.353 1.773 16.148.38 5.224-1.267 9.15-6.902 17.92-9.404a11.2 11.2 0 0 1 3.04-.411C56.644 2.28 57.34-.063 57.34-.063l-.285 2.09a9.605 9.605 0 0 1-8.2 8.2l-2.09.316 2.09.285a9.64 9.64 0 0 1 8.2 8.2l.285 2.09.317-2.09a9.64 9.64 0 0 1 8.2-8.2l2.09-.285s-.791.444-1.583 1.425c1.678 3.99 1.647 9.214-1.425 14.913-3.42 6.428-5.92 11.398-7.725 15.673-6.68-.127-15.61-1.773-25.995-4.686C7.378 31.25-3.546 18.712 1.393 15.64m41.066 5.478.665.095a3.02 3.02 0 0 1 2.565 2.564l.095.633.095-.633a3.02 3.02 0 0 1 2.564-2.564l.634-.095-.634-.095a3.02 3.02 0 0 1-2.564-2.565l-.095-.665-.095.665a3.02 3.02 0 0 1-2.565 2.565z" clip-rule="evenodd"/><path fill="#1e84b5" d="M69.783 37.393c5.921 12.032-10.258 15.704-39.103 6.902-8.548-2.596-17.604-6.934-24.316-11.43.19 1.52.538 2.977 1.045 4.306 4.337 11.43 5.477 16.813 5.256 25.077-.222 8.96 8.073 6.839 11.398-3.04 1.646-4.907 4.591-6.079 6.427-6.332 4.053.221 5.415 2.754 7.663 9.024 3.42 9.498 13.488 9.403 14.438-1.425.19-1.773.38-3.483.664-5.13 4.243.349 8.391.032 12.19-1.14 9.246-2.912 9.657-12.253 4.338-16.812"/><path fill="#fff" d="M65.446 10.164A13.25 13.25 0 0 0 60.35 5.35c-1.235-.918-2.565-2.85-2.628-2.976a9.6 9.6 0 0 0 7.725 7.789"/></g><defs><clipPath id="a"><path fill="#fff" d="M0 0h73.456v69.024H0z"/></clipPath></defs></svg>