<svg xmlns="http://www.w3.org/2000/svg" width="1448" height="434" fill="none" viewBox="0 0 1448 434"><path fill="#1e84b5" fill-opacity=".1" d="M588.505 250.15c-32.626 3.671-35.48 6.729-39.151 39.355-3.67-32.626-6.729-35.684-39.354-39.355 32.625-3.67 35.684-6.525 39.354-39.15 3.671 32.625 6.525 35.48 39.151 39.15m-510 143.008c-32.626 3.671-35.48 6.729-39.15 39.354-3.671-32.625-6.73-35.683-39.355-39.354 32.625-3.67 35.684-6.525 39.354-39.15 3.67 32.625 6.525 35.48 39.15 39.15m9.816-31.127c-12.526 1.409-13.622 2.583-15.031 15.109-1.41-12.526-2.584-13.7-15.11-15.109 12.526-1.409 13.7-2.505 15.11-15.031 1.41 12.526 2.505 13.622 15.03 15.031M286.505 39.15c-32.626 3.67-35.48 6.73-39.151 39.355-3.67-32.626-6.729-35.684-39.354-39.355 32.625-3.67 35.684-6.525 39.354-39.15 3.671 32.625 6.525 35.48 39.151 39.15M1412.65 433.306c-4.84 0-8.77-3.937-8.77-8.775v-51.755c0-4.838 3.93-8.776 8.77-8.776 4.73 0 8.66 3.938 8.66 8.776v51.755c0 4.838-3.93 8.775-8.66 8.775"/><path fill="#1e84b5" fill-opacity=".1" d="M1378 398.655c0-4.838 3.94-8.776 8.66-8.776h51.87c4.84 0 8.66 3.938 8.66 8.776s-3.82 8.776-8.66 8.776h-51.87c-4.72 0-8.66-3.938-8.66-8.776"/></svg>