<svg xmlns="http://www.w3.org/2000/svg" width="1964" height="675" fill="none" viewBox="0 0 1964 675"><g fill="#1e84b5" fill-opacity=".1" clip-path="url(#a)"><path d="M60 644.039c-24.935 2.805-27.117 5.143-29.922 30.078-2.805-24.935-5.143-27.273-30.078-30.078 24.935-2.805 27.273-4.987 30.078-29.922 2.805 24.935 4.987 27.117 29.922 29.922m10.164-24.075C58.528 621.273 57.51 622.364 56.2 634c-1.309-11.636-2.4-12.727-14.036-14.036C53.8 618.655 54.891 617.636 56.2 606c1.31 11.636 2.328 12.655 13.964 13.964M913.5 513.938c-19.948 2.244-21.693 4.114-23.938 24.062-2.244-19.948-4.114-21.818-24.062-24.062 19.948-2.245 21.818-3.99 24.062-23.938 2.245 19.948 3.99 21.693 23.938 23.938M1923.4 80c-5.59 0-10.03-4.536-10.03-10.036V10.133c0-5.597 4.44-10.133 10.03-10.133 5.6 0 10.14 4.536 10.14 10.133v59.83c0 5.501-4.54 10.037-10.14 10.037"/><path d="M1883.45 40.047c0-5.597 4.44-10.133 10.04-10.133h59.83c5.6 0 10.04 4.536 10.04 10.133s-4.44 10.036-10.04 10.036h-59.83c-5.6 0-10.04-4.44-10.04-10.036M369.055 124.081c-29.091 3.273-31.637 6-34.909 35.091-3.273-29.091-6-31.818-35.091-35.091 29.091-3.273 31.818-5.818 35.091-34.91 3.272 29.092 5.818 31.637 34.909 34.91M1615.05 511.734c-4.19 0-7.6-3.409-7.6-7.597v-44.805c0-4.188 3.41-7.598 7.6-7.598 4.09 0 7.5 3.41 7.5 7.598v44.805c0 4.188-3.41 7.597-7.5 7.597"/><path d="M1585.05 481.738c0-4.188 3.41-7.597 7.5-7.597h44.9c4.19 0 7.5 3.409 7.5 7.597s-3.31 7.598-7.5 7.598h-44.9c-4.09 0-7.5-3.41-7.5-7.598"/></g><defs><clipPath id="a"><path fill="#fff" d="M0 0h1964v675H0z"/></clipPath></defs></svg>