<svg xmlns="http://www.w3.org/2000/svg" width="56" height="56" fill="none" viewBox="0 0 56 56"><path fill="#1e84b5" fill-rule="evenodd" d="M18.885.984c-3.935.703-7.025 3.575-7.967 7.405-.436 1.774-.365 2.771.661 9.315.626 3.989.962 5.852 1.107 6.137.699 1.369 3.407 2.698 6.908 3.391l.618.123-.14.53c-.201.762-.689 1.606-1.28 2.213l-.512.527h-2.229c-2.087 0-2.243.014-2.466.222-.484.45-.457.541 1.271 4.443 1.065 2.402 1.68 3.933 1.755 4.358.063.361.166 1.543.227 2.625.216 3.779 1.088 7.311 2.565 10.391.895 1.866 1.58 2.401 3.074 2.404.769.002.947-.037 1.47-.326a3.17 3.17 0 0 0 1.405-1.676c.082-.231.185-1.376.244-2.699.116-2.606.375-4.735.871-7.156.449-2.19.528-2.41.975-2.71.44-.297.772-.315 1.285-.072.494.234.615.497.949 2.063.663 3.11.922 5.166 1.048 8.309.08 2.026.093 2.113.399 2.674 1.12 2.06 3.81 2.225 5.19.32.646-.892 1.858-4.099 2.411-6.381.451-1.86.65-3.312.766-5.616.056-1.104.16-2.211.231-2.46s.835-2.049 1.697-3.996c.984-2.225 1.566-3.676 1.566-3.903 0-.26-.08-.424-.288-.587-.27-.212-.428-.227-2.46-.227h-2.173l-.43-.389c-.692-.625-1.214-1.543-1.467-2.58-.07-.285-.055-.294.776-.474 2.66-.576 4.775-1.436 5.89-2.395.893-.768.937-.936 1.904-7.287.947-6.22 1.028-7.235.702-8.837-.187-.922-.7-2.204-1.269-3.174-.556-.95-2.383-2.714-3.402-3.288C38.88 1.139 37.38.823 34.617.903c-1.591.047-1.998.096-2.821.342a10.1 10.1 0 0 0-2.993 1.437l-.673.468-.576-.432c-.777-.584-2.166-1.243-3.224-1.53-.712-.192-1.234-.24-2.892-.267-1.113-.017-2.262.01-2.553.063m.092 1.803c-3.772.7-6.526 3.994-6.524 7.8 0 .753.195 2.317.668 5.376.367 2.374.684 4.331.703 4.35.019.02.45-.186.959-.457 3.999-2.127 12.66-2.956 19.944-1.908 2.979.428 4.927.968 6.702 1.859.58.29 1.06.518 1.07.505.008-.013.324-2.04.701-4.507.607-3.966.68-4.611.628-5.578-.109-2.082-.84-3.686-2.365-5.196-1.39-1.374-2.64-2.015-4.497-2.305-1.059-.166-3.658-.066-4.536.173-1.028.28-2.333.966-3.21 1.689-1.018.84-1.185.847-2.065.088-1.238-1.069-2.54-1.686-4.077-1.935-.955-.154-3.157-.13-4.101.046m-.135 1.745c-1.386.336-2.967 1.47-3.75 2.69-.428.667-.83 1.813-.932 2.654l-.077.633.915-.032.916-.032.077-.622c.156-1.253 1.163-2.64 2.333-3.212.306-.15.862-.33 1.234-.399l.677-.126V4.375l-.41.01a6 6 0 0 0-.983.147m6.807 14.79c-4.517.272-7.828.96-10.07 2.092-1.368.69-1.69 1.315-1.017 1.973.714.698 2.403 1.409 4.564 1.92l1.087.256.07-.565c.147-1.17.875-2.196 1.975-2.779l.547-.29 5.153-.03c4.984-.031 5.173-.025 5.758.194 1.22.457 2.268 1.808 2.268 2.927 0 .545.064.56 1.204.296 2.797-.65 4.921-1.778 4.921-2.612 0-.542-1.264-1.378-2.97-1.963-3.214-1.102-8.868-1.697-13.49-1.419m-2.65 4.53c-.786.392-.928.755-1.022 2.604-.044.88-.14 1.796-.212 2.036-.145.482-.72 1.69-.881 1.854-.057.057-.103.143-.103.192 0 .048 3.317.087 7.37.087h7.37l-.483-.957c-.574-1.137-.803-2.207-.803-3.74 0-1.17-.145-1.533-.801-2.02-.301-.222-.433-.23-5.141-.257-4.725-.029-4.842-.024-5.294.201m-7.435 8.66c.031.075.606 1.367 1.277 2.87.671 1.505 1.312 3.08 1.425 3.5.136.51.243 1.482.318 2.9.203 3.85.957 7.013 2.413 10.123.44.94.572 1.127.905 1.285.475.226.639.23 1.124.027.593-.248.677-.582.813-3.233.21-4.08 1.02-8.858 1.702-10.02 1.182-2.017 4.24-1.906 5.311.193.675 1.322 1.623 7.511 1.639 10.693.007 1.5.13 1.933.65 2.285.446.302 1.072.28 1.447-.051.286-.254 1.162-2.082 1.615-3.373.913-2.603 1.383-5.12 1.531-8.203.056-1.173.166-2.233.27-2.621.14-.511 2.237-5.42 2.702-6.32.094-.182-.539-.192-12.55-.192-10.075 0-12.636.028-12.592.137" clip-rule="evenodd"/></svg>