<svg xmlns="http://www.w3.org/2000/svg" width="198" height="168" fill="none" viewBox="0 0 198 168"><g clip-path="url(#a)"><path fill="#1e84b5" d="M73.96 38.456v-1.02l2.04-.488V24.445l-2.04-.487v-1.02h6.363q5.41 0 5.41 3.769 0 1.218-.732 2.128-.71.909-1.951 1.308v.044q1.818.332 2.793 1.352.998 1.02.998 2.55 0 1.995-1.486 3.192-1.485 1.175-4.012 1.175zm4.767-1.353h1.929q1.617 0 2.505-.775.885-.776.886-2.24 0-1.35-.93-2.172-.91-.82-2.572-.82h-1.818zm0-7.404h1.264q1.285 0 2.106-.731.842-.754.842-2.062 0-1.33-.842-1.973-.82-.643-2.24-.643h-1.13zm9.955 8.757v-1.02l2.04-.488V24.445l-2.04-.487v-1.02h11.549v4.545H99.19l-.954-3.06-4.788-.177v5.697l4.788-.421v1.973l-4.788-.4v6.053l5.21-.178 1.13-3.303h1.042l-.178 4.789zm14.578-11.971q0-1.84 1.463-2.86t3.791-1.02q2.483 0 4.544.51l-.111 4.257h-.997l-1.109-3.192a10 10 0 0 0-1.884-.178q-1.53 0-2.416.599-.865.599-.865 1.662 0 .909.776 1.53.798.598 2.749 1.419 1.043.42 1.707.798.687.354 1.463.953.776.6 1.153 1.44.399.843.399 1.885 0 2.217-1.641 3.414-1.529 1.108-3.835 1.086-.62 0-2.061-.11-1.419-.112-3.082-.6v-4.366h1.02l1.131 3.325q.93.288 2.172.288 1.73 0 2.793-.598 1.064-.621 1.064-1.929 0-.997-.953-1.73-.953-.73-2.793-1.529-2.527-1.086-3.503-2.106-.975-1.02-.975-2.948m12.367 1.153v-4.7h13.19v4.7h-1.042l-.998-3.215-3.192-.177v12.702l2.04.488v1.02h-6.806v-1.02l2.04-.488V24.246l-3.215.177-.975 3.215zM41.969 60.674v-1.02l2.04-.487V46.664l-2.04-.488v-1.02h11.55v4.545h-1.042l-.954-3.059-4.788-.177v5.697l4.788-.421v1.973l-4.788-.4v6.053l5.21-.178 1.13-3.303h1.042l-.177 4.788zm13.89 0v-1.02l2.107-.51.71-12.502-1.952-.466.023-1.02h4.744l4.987 11.572 5.033-11.571h4.566v1.02l-1.995.465.754 12.525 2.128.488v1.02h-6.74v-1.02l1.952-.466-.599-10.508-5.254 12.104h-.975l-5.32-12.126-.555 10.53 1.973.466v1.02zm27.462-7.27a10 10 0 0 0 1.308.088q.754 0 1.396-.222.665-.222 1.131-.665.487-.443.754-1.086.266-.643.266-1.508 0-1.728-1.042-2.593-1.02-.864-2.682-.865H83.32zm-4.766 7.27v-1.02l2.04-.487V46.664l-2.04-.488v-1.02h5.897q6.517 0 6.517 4.855 0 2.462-1.707 3.68-1.684 1.197-4.456 1.197a9.6 9.6 0 0 1-1.485-.11v4.389l2.704.488v1.02zm13.876 0v-1.02l2.04-.487V46.664l-2.04-.488v-1.02h6.806v1.02l-2.04.488V59.19h5.21l1.197-3.303h1.02l-.222 4.788zm21.285-15.85q1.796 0 3.17.599a6.6 6.6 0 0 1 2.328 1.662q.954 1.065 1.441 2.55t.488 3.258q0 1.796-.488 3.281-.465 1.486-1.419 2.572-.93 1.064-2.327 1.662-1.375.6-3.193.599-1.928 0-3.347-.643-1.397-.643-2.305-1.73-.909-1.108-1.353-2.593a11.7 11.7 0 0 1-.421-3.192q0-1.662.443-3.103a7.2 7.2 0 0 1 1.353-2.55q.909-1.108 2.305-1.729 1.419-.642 3.325-.643m0 1.308q-2.26 0-3.436 1.907-1.152 1.883-1.152 4.877 0 3.17 1.219 4.987 1.241 1.796 3.369 1.796t3.348-1.796q1.24-1.818 1.241-4.987 0-2.994-1.175-4.877-1.152-1.907-3.414-1.907m7.675.044v-1.02h6.385v1.02l-1.441.289 3.657 5.386 3.281-5.231-1.64-.444v-1.02h5.431v1.02l-2.039.488-4.301 6.85v5.653l2.039.488v1.02h-6.805v-1.02l2.039-.488v-5.586l-4.81-6.961zm16.589 14.498v-1.02l2.039-.487V46.664l-2.039-.488v-1.02h11.549v4.545h-1.041l-.954-3.059-4.788-.177v5.697l4.788-.421v1.973l-4.788-.4v6.053l5.21-.178 1.13-3.303h1.042l-.177 4.788zm14.201 0v-1.02l2.04-.487V46.664l-2.04-.488v-1.02h11.55v4.545h-1.042l-.953-3.059-4.789-.177v5.697l4.789-.421v1.973l-4.789-.4v6.053l5.21-.178 1.131-3.303h1.041l-.177 4.788zM81.11 100.631v-2.838h4.124l1.596-8.47h-4.568v-2.84h5.145l1.596-8.647h2.927l-1.64 8.648h5.942l1.64-8.648h2.928l-1.685 8.648h4.124v2.838h-4.612l-1.641 8.47h5.056v2.839h-5.588l-1.641 8.914H91.93l1.641-8.914H87.63l-1.686 8.914h-2.882l1.685-8.914zm7.006-2.838h5.987l1.641-8.47h-6.031zm18.22-14.37 9.358-4.922h2.084v28.295l3.77.842v1.907h-14.28v-1.907l5.1-.887v-23.77l-5.322 2.261zm-79.148 37.948 17.515 30.339a17 17 0 0 0 1.06 1.598h106.88c.379-.51.737-1.04 1.059-1.598l17.516-30.339z"/><path stroke="#1e84b5" stroke-miterlimit="10" stroke-width="3" d="M57.628 165.749h83.144a19.71 19.71 0 0 0 17.072-9.857l35.892-62.167a19.72 19.72 0 0 0 0-19.713l-35.892-62.167a19.71 19.71 0 0 0-17.072-9.857H57.628a19.71 19.71 0 0 0-17.072 9.857L4.664 74.012a19.72 19.72 0 0 0 0 19.713l35.892 62.167a19.71 19.71 0 0 0 17.072 9.857Z"/><path fill="#1e84b5" d="M14.305 110.418v21.355c0 7.752 6.284 14.036 14.036 14.036h6.397zm20.433-88.492H28.34c-7.752 0-14.036 6.284-14.036 14.036v21.355zm128.934 123.883h6.397c7.752 0 14.036-6.284 14.036-14.036v-21.355zm20.433-88.489V35.967c0-7.752-6.284-14.036-14.036-14.036h-6.397z"/><path stroke="#1e84b5" stroke-miterlimit="10" stroke-width="2" d="M190.285 83.869c0 2.93-.776 5.82-2.24 8.358L153.7 151.714a16.76 16.76 0 0 1-14.475 8.357H59.176a16.76 16.76 0 0 1-14.475-8.357L10.357 92.227a16.75 16.75 0 0 1-2.24-8.358c0-2.93.775-5.82 2.24-8.357l34.344-59.487a16.76 16.76 0 0 1 14.475-8.357h80.049a16.76 16.76 0 0 1 14.475 8.357l34.345 59.487a16.75 16.75 0 0 1 2.24 8.357Z"/><path fill="#1e84b5" d="m53.622 86.5 3.021 5.523 5.523 3.021-5.523 3.021-3.02 5.523-3.022-5.523-5.523-3.021 5.523-3.021zm91.164 0 3.021 5.523 5.523 3.021-5.523 3.021-3.021 5.523-3.021-5.523-5.523-3.021 5.523-3.021zM99.208 70.228c36.161 0 65.474-.424 65.474-.946 0-.523-29.313-.946-65.474-.946-36.16 0-65.474.423-65.474.946s29.314.946 65.474.946"/><path fill="#fff" d="M64.648 135.274v-.468l.937-.224v-5.744l-.937-.224v-.469h5.307v2.088h-.48l-.437-1.406-2.2-.081v2.617l2.2-.193v.906l-2.2-.183v2.78l2.394-.081.519-1.518h.478l-.08 2.2zm6.382 0v-.468l.968-.235.326-5.744-.897-.213.01-.469h2.18l2.292 5.316 2.312-5.316h2.098v.469l-.917.213.346 5.755.978.224v.468H77.63v-.468l.896-.214-.275-4.828-2.414 5.561h-.448l-2.444-5.571-.255 4.838.907.214v.468zm12.617-3.34a5 5 0 0 0 .6.04q.346 0 .642-.101.306-.102.52-.306.223-.204.346-.499t.122-.693q0-.793-.479-1.191-.468-.397-1.232-.397h-.52zm-2.19 3.34v-.468l.937-.224v-5.744l-.937-.224v-.469h2.709q2.994 0 2.994 2.23 0 1.131-.784 1.691-.774.55-2.047.55-.357 0-.682-.051v2.017l1.242.224v.468zm6.375 0v-.468l.937-.224v-5.744l-.937-.224v-.469h3.127v.469l-.937.224v5.754h2.393l.55-1.518h.469l-.102 2.2zm9.779-7.282q.825 0 1.456.275.632.275 1.07.764t.662 1.171q.224.683.224 1.497 0 .825-.224 1.508-.214.682-.652 1.181a2.9 2.9 0 0 1-1.07.764q-.631.275-1.466.275-.885 0-1.538-.295a3 3 0 0 1-1.06-.795 3.4 3.4 0 0 1-.62-1.191 5.4 5.4 0 0 1-.194-1.467q0-.763.204-1.426.204-.672.621-1.171a2.84 2.84 0 0 1 1.06-.794q.651-.296 1.527-.296m0 .601q-1.04 0-1.579.876-.53.865-.53 2.241 0 1.456.56 2.291.571.825 1.549.825t1.538-.825q.57-.835.57-2.291 0-1.376-.54-2.241-.53-.876-1.568-.876m3.526.021v-.469h2.933v.469l-.662.132 1.68 2.475 1.508-2.404-.754-.203v-.469h2.495v.469l-.937.224-1.976 3.147v2.597l.937.224v.468h-3.126v-.468l.937-.224v-2.567l-2.21-3.198zm7.621 6.66v-.468l.937-.224v-5.744l-.937-.224v-.469h5.306v2.088h-.479l-.438-1.406-2.199-.081v2.617l2.199-.193v.906l-2.199-.183v2.78l2.393-.081.519-1.518h.479l-.081 2.2zm6.524 0v-.468l.937-.224v-5.744l-.937-.224v-.469h5.307v2.088h-.479l-.438-1.406-2.2-.081v2.617l2.2-.193v.906l-2.2-.183v2.78l2.393-.081.52-1.518h.479l-.082 2.2zm12.365-7.282q.825 0 1.456.275a3.1 3.1 0 0 1 1.07.764q.438.489.662 1.171.224.683.224 1.497 0 .825-.224 1.508-.214.682-.652 1.181a2.9 2.9 0 0 1-1.069.764q-.631.275-1.467.275-.886 0-1.538-.295a3 3 0 0 1-1.059-.795 3.4 3.4 0 0 1-.621-1.191 5.4 5.4 0 0 1-.194-1.467q0-.763.204-1.426.204-.672.621-1.171a2.85 2.85 0 0 1 1.059-.794q.652-.296 1.528-.296m0 .601q-1.039 0-1.578.876-.53.865-.53 2.241 0 1.456.56 2.291.57.825 1.548.825t1.538-.825q.57-.835.57-2.291 0-1.376-.539-2.241-.53-.876-1.569-.876m4.245 6.681v-.468l.937-.224v-5.744l-.937-.224v-.469h5.255v2.088h-.468l-.428-1.406-2.169-.081v2.607l2.199-.183v.906l-2.199-.173v2.679l1.14.224v.468zm-62.876 5.237v-2.159h6.06v2.159h-.48l-.458-1.477-1.466-.081v5.836l.937.224v.468h-3.127v-.468l.937-.224v-5.836l-1.477.081-.448 1.477zm6.816 4.97v-.468l.937-.224v-5.744l-.937-.225v-.468h3.126v.468l-.937.225v2.495h3.147v-2.495l-.937-.225v-.468h3.127v.468l-.937.225v5.744l.937.224v.468h-3.127v-.468l.938-.224v-2.567H78.02v2.567l.937.224v.468zm8.424 0v-.468l.937-.224v-5.744l-.937-.225v-.468h5.306v2.088h-.479l-.438-1.406-2.2-.081v2.617l2.2-.193v.906l-2.2-.183v2.78l2.394-.081.52-1.518h.478l-.082 2.2zm8.739 0v-.468l.967-.235.326-5.744-.896-.214.01-.468h2.18l2.291 5.316 2.312-5.316h2.098v.468l-.916.214.346 5.755.978.224v.468h-3.097v-.468l.897-.214-.275-4.828-2.414 5.561h-.448l-2.444-5.571-.255 4.838.906.214v.468zm13.76-7.282q.825 0 1.457.275.631.275 1.069.764t.662 1.171q.224.683.224 1.497 0 .825-.224 1.508-.213.682-.652 1.181a2.9 2.9 0 0 1-1.069.764q-.632.275-1.467.275-.885 0-1.538-.295a3 3 0 0 1-1.059-.795 3.4 3.4 0 0 1-.621-1.191 5.4 5.4 0 0 1-.193-1.467q0-.763.203-1.426.204-.672.621-1.171a2.8 2.8 0 0 1 1.06-.794q.651-.296 1.527-.296m0 .601q-1.038 0-1.578.876-.53.865-.53 2.241 0 1.456.56 2.291.572.825 1.548.825.978 0 1.538-.825.57-.835.571-2.291 0-1.376-.54-2.241-.53-.876-1.569-.876m4.245 6.681v-.468l.937-.224v-5.744l-.937-.225v-.468h1.65l4.247 5.041v-4.348l-.937-.225v-.468h2.617v.468l-.937.225v6.436h-.611l-4.379-5.163v4.471l.937.224v.468zm8.232-4.97v-2.159h6.06v2.159h-.479l-.458-1.477-1.467-.081v5.836l.937.224v.468h-3.127v-.468l.937-.224v-5.836l-1.476.081-.448 1.477zm6.816 4.97v-.468l.937-.224v-5.744l-.937-.225v-.468h3.127v.468l-.937.225v2.495h3.147v-2.495l-.937-.225v-.468h3.126v.468l-.936.225v5.744l.936.224v.468h-3.126v-.468l.937-.224v-2.567h-3.147v2.567l.937.224v.468z"/></g><defs><clipPath id="a"><path fill="#fff" d="M0 0h198v168H0z"/></clipPath></defs></svg>