<svg xmlns="http://www.w3.org/2000/svg" width="64" height="64" fill="none" viewBox="0 0 64 64"><g clip-path="url(#a)"><path fill="#fff" fill-rule="evenodd" d="M21.562.145C13.489 1.058 6.14 6.28 2.502 13.687c-3.404 6.934-3.334 15.115.19 21.912l.666 1.287-1.625 5.882c-.894 3.234-1.6 5.908-1.567 5.94s2.706-.672 5.94-1.566l5.882-1.626 1.287.667c2.751 1.426 5.93 2.337 9.187 2.634l.9.082.336 1.02c1.992 6.041 6.941 10.968 13.07 13.01 2.41.804 3.615.991 6.419 1 1.928.006 2.786-.045 3.75-.223 1.758-.326 4.035-1.089 5.61-1.877l1.34-.672 4.943 1.368c2.718.753 4.97 1.341 5.003 1.308s-.555-2.285-1.308-5.003l-1.369-4.943.672-1.34c.79-1.574 1.551-3.852 1.877-5.61.179-.964.23-1.821.224-3.75-.009-2.803-.197-4.009-1-6.419-2.042-6.128-6.969-11.077-13.011-13.07l-1.02-.336-.082-.9C47.832 11.687 40.163 2.892 29.735.58 27.2.017 24.137-.145 21.562.145m.688 3.743a20.92 20.92 0 0 0-16.332 11.4C4.313 18.483 3.524 22.6 3.851 26.071c.08.854.235 1.989.343 2.522.446 2.193 1.588 5.03 2.767 6.872.254.397.454.806.446.909-.01.103-.438 1.705-.954 3.56s-.926 3.384-.912 3.398 1.544-.396 3.399-.911c1.854-.516 3.456-.945 3.56-.954.103-.01.511.191.908.445 1.073.687 2.76 1.506 4.029 1.958 6.102 2.17 12.814 1.399 18.187-2.091 6.383-4.146 10.073-11.593 9.396-18.96-.186-2.019-.419-3.151-1.018-4.958-1.692-5.097-5.517-9.484-10.415-11.943-3.364-1.69-7.619-2.452-11.338-2.03m.125 7.653c-2.97.882-5.06 3.403-5.432 6.553l-.077.656h3.884v-.353c0-1.109 1.002-2.52 2.152-3.032a3.75 3.75 0 0 1 4.28.906c.708.787.985 1.603.922 2.717-.08 1.399-.347 1.768-3.139 4.324l-2.456 2.25-.005 2.282-.005 2.28h3.876V27.16l1.799-1.638c2.32-2.113 2.99-3.034 3.523-4.84.295-.996.295-2.865 0-3.869-1.195-4.075-5.38-6.44-9.322-5.27m26.31 16.188c-.04.252-.213 1.123-.386 1.935-1.766 8.317-8.01 15.256-16.168 17.966-1.223.406-2.038.601-4.487 1.074-.376.073-.32.323.416 1.885 2.284 4.835 6.81 8.291 12.268 9.365 1.642.323 4.593.298 6.234-.054 2.202-.472 4.087-1.216 5.766-2.276.435-.275.89-.499 1.012-.498.122 0 1.318.306 2.658.679 1.34.372 2.447.666 2.46.653.014-.014-.28-1.121-.652-2.46-.373-1.34-.678-2.537-.68-2.66 0-.124.195-.532.434-.907 1.066-1.666 1.872-3.683 2.336-5.845.218-1.014.273-1.681.27-3.274-.002-2.244-.241-3.69-.932-5.648-1.607-4.557-5.138-8.224-9.702-10.079l-.775-.315zM22.5 35.749v1.876h3.875v-3.75H22.5z" clip-rule="evenodd"/></g><defs><clipPath id="a"><path fill="#fff" d="M0 0h64v64H0z"/></clipPath></defs></svg>