<svg xmlns="http://www.w3.org/2000/svg" width="48" height="48" fill="none" viewBox="0 0 48 48"><path fill="#1e84b5" d="M38.39 12.129c-1.517-2.489-3.893-4.035-6.201-4.035a.75.75 0 0 0-.72.537c-1.709 5.774-4.125 6.934-7.47 6.934s-5.76-1.16-7.47-6.934a.75.75 0 0 0-.718-.537c-2.308 0-4.684 1.546-6.201 4.035-1.185 1.944-1.801 4.335-1.782 6.914.022 2.967.863 6.08 2.5 9.254 2.746 5.326 3.118 9.906 3.39 13.25.148 1.827.265 3.269.723 4.338.557 1.297 1.583 1.928 3.136 1.928 1.69 0 2.992-1.136 3.873-3.375.697-1.77 1.073-4.023 1.404-6.01.2-1.194.387-2.322.617-3.174.24-.892.446-1.174.529-1.257.082.083.289.365.529 1.257.229.852.417 1.98.616 3.173.332 1.988.708 4.242 1.404 6.011.881 2.24 2.184 3.374 3.873 3.374 1.553 0 2.58-.63 3.136-1.927.458-1.069.575-2.511.724-4.337.272-3.345.644-7.925 3.39-13.25 1.637-3.174 2.478-6.288 2.5-9.255.019-2.579-.598-4.97-1.783-6.914m-2.051 15.48c-2.884 5.594-3.27 10.347-3.552 13.817-.322 3.96-.579 4.886-2.365 4.886-2.44 0-3.193-4.509-3.797-8.132-.231-1.385-.45-2.693-.748-3.667-.172-.558-.626-2.04-1.877-2.04s-1.706 1.482-1.877 2.04c-.299.974-.517 2.282-.748 3.667-.605 3.623-1.357 8.133-3.798 8.133-1.786 0-2.043-.926-2.364-4.887-.282-3.47-.669-8.223-3.553-13.816-4.024-7.804-1.879-12.88-.77-14.7 1.122-1.84 2.76-3.052 4.378-3.278.875 2.733 1.96 4.574 3.396 5.764 1.371 1.139 3.067 1.669 5.336 1.669 2.268 0 3.964-.53 5.336-1.669 1.435-1.19 2.52-3.03 3.395-5.764 1.619.226 3.257 1.438 4.377 3.278 1.11 1.82 3.255 6.896-.77 14.7"/><path fill="#0e384c" d="M18.663 7.514c1.217 1.01 2.688 1.54 4.587 1.647v2.195l-.592-.592a.75.75 0 0 0-1.06 1.06l1.871 1.873c.28.29.781.29 1.06 0l1.873-1.872a.75.75 0 0 0-1.06-1.061l-.592.592V9.16c1.898-.108 3.37-.638 4.586-1.647 1.533-1.272 2.668-3.287 3.572-6.339a.75.75 0 0 0-.72-.963c-2.897 0-4.28.79-5.392 1.426-.858.49-1.536.877-2.796.877-1.261 0-1.939-.387-2.797-.877-1.111-.635-2.495-1.426-5.392-1.426a.75.75 0 0 0-.72.963c.904 3.052 2.04 5.067 3.572 6.34M20.46 2.94c.925.528 1.881 1.075 3.54 1.075s2.616-.547 3.54-1.075c.898-.512 1.822-1.04 3.61-1.187-1.686 4.906-4.009 5.93-7.15 5.93s-5.463-1.024-7.15-5.93c1.79.147 2.713.675 3.61 1.187"/></svg>