<svg xmlns="http://www.w3.org/2000/svg" width="50" height="50" fill="none" viewBox="0 0 50 50"><g clip-path="url(#a)"><path fill="#1e84b5" fill-rule="evenodd" d="M40.576 45.986c3.428-.494 6.686-2.842 8.253-5.947 2.732-5.415.459-11.993-5.09-14.725-2.341-1.152-4.8-1.376-7.536-.687l-.857.216-.207-.208c-.201-.2-.205-.243-.1-1.27.222-2.179.694-3.832 1.64-5.738.84-1.693 1.695-2.871 3.165-4.358a20.6 20.6 0 0 1 6.449-4.44c1.647-.721 1.77-.93 1.567-2.674-.158-1.363-.34-1.765-.93-2.05-.572-.277-.821-.242-2.078.291-8.591 3.645-14.673 9.21-17.342 15.868-1.184 2.953-1.675 5.558-1.675 8.887 0 2.2.097 3.258.451 4.922.797 3.74 3.112 7.438 6.036 9.64 2.409 1.816 5.507 2.669 8.254 2.273m-.195-1.546c2.64-.437 5.005-1.944 6.482-4.131.48-.71 1.061-1.991 1.297-2.858.311-1.148.312-3.37.001-4.54-.497-1.873-1.742-3.808-3.172-4.934-1.34-1.055-2.194-1.49-3.778-1.927-1.151-.317-3.243-.291-4.518.057-.524.143-1.114.26-1.312.26-.482 0-1.14-.332-1.484-.751-.468-.568-.553-1.056-.417-2.413.575-5.745 3.562-10.488 8.777-13.932 1.114-.737 2.476-1.483 3.48-1.908l.669-.283-.059-.428a7 7 0 0 1-.06-.635c-.003-.492-.115-.494-1.23-.012-4.288 1.85-8.573 4.708-11.202 7.47-3.626 3.81-5.603 7.85-6.334 12.941-.192 1.334-.16 4.626.058 6.055.512 3.346 1.856 6.197 4.027 8.544 1.334 1.441 3.54 2.784 5.308 3.228.916.23 2.665.33 3.467.197" clip-rule="evenodd"/><path fill="#0e384c" d="M41.994 41.138c-.177.225-.46.33-1.613.603-.482.114-2.261-.03-2.824-.23-1.172-.413-2.4-1.467-2.4-2.058 0-.353.374-.781.684-.781.246 0 .78.263.78.385 0 .048.222.25.493.448.923.678 2.191.892 3.462.585.886-.214 1.173-.192 1.41.109.254.323.256.623.008.939"/><path fill="#1e84b5" fill-rule="evenodd" d="M14.59 45.986c3.429-.494 6.687-2.842 8.253-5.947 2.733-5.415.46-11.993-5.09-14.725-2.34-1.152-4.8-1.376-7.535-.687l-.857.216-.208-.208c-.2-.2-.204-.243-.1-1.27.222-2.179.695-3.832 1.64-5.738.84-1.693 1.695-2.871 3.165-4.358a20.6 20.6 0 0 1 6.45-4.44c1.646-.721 1.77-.93 1.567-2.674-.158-1.363-.34-1.765-.93-2.05-.572-.277-.822-.242-2.079.291-8.59 3.645-14.673 9.21-17.342 15.868C.341 23.217-.15 25.822-.15 29.15c0 2.2.097 3.258.451 4.922.797 3.74 3.112 7.438 6.036 9.64 2.409 1.816 5.506 2.669 8.254 2.273m-.194-1.546c2.639-.437 5.005-1.944 6.482-4.131.48-.71 1.06-1.991 1.296-2.858.312-1.148.313-3.37.002-4.54-.498-1.873-1.742-3.808-3.172-4.934-1.34-1.055-2.195-1.49-3.778-1.927-1.152-.317-3.244-.291-4.518.057-.524.143-1.115.26-1.312.26-.483 0-1.14-.332-1.485-.751-.468-.568-.552-1.056-.416-2.413.574-5.745 3.562-10.488 8.776-13.932 1.115-.737 2.476-1.483 3.48-1.908l.67-.283-.059-.428a7 7 0 0 1-.06-.635c-.003-.492-.115-.494-1.23-.012-4.288 1.85-8.573 4.708-11.202 7.47-3.626 3.81-5.603 7.85-6.335 12.941-.191 1.334-.16 4.626.06 6.055.51 3.346 1.855 6.197 4.026 8.544 1.334 1.441 3.54 2.784 5.308 3.228.916.23 2.665.33 3.467.197" clip-rule="evenodd"/><path fill="#0e384c" d="M16.009 41.138c-.178.225-.46.33-1.613.603-.483.114-2.262-.03-2.824-.23-1.172-.413-2.4-1.467-2.4-2.058 0-.353.374-.781.683-.781.247 0 .781.263.781.385 0 .048.222.25.493.448.922.678 2.191.892 3.462.585.886-.214 1.173-.192 1.409.109.254.323.257.623.009.939"/></g><defs><clipPath id="a"><path fill="#fff" d="M50 50H0V0h50z"/></clipPath></defs></svg>