<svg xmlns="http://www.w3.org/2000/svg" width="48" height="48" fill="none" viewBox="0 0 48 48"><path fill="#1e84b5" fill-rule="evenodd" d="M27.414 3.85c-2.5.391-4.793 1.342-6.77 2.807-.862.64-2.733 2.511-2.972 2.973-.281.543.036 1.101.626 1.101.282 0 .454-.152 1.33-1.174.919-1.074 2.482-2.26 3.954-2.998.93-.467 2.631-1.016 3.697-1.193 1.128-.188 3.28-.193 4.413-.01 2.976.478 5.764 2.011 7.713 4.24a14 14 0 0 1 3.05 5.935c.76 3.19.41 6.269-1.036 9.105-.827 1.623-1.795 2.805-3.578 4.37-.564.494-.637.853-.253 1.236.414.415.736.291 1.873-.716 2.264-2.007 3.873-4.736 4.507-7.644.96-4.406-.21-9.246-3.096-12.803-2.091-2.58-4.976-4.344-8.269-5.057-.695-.15-1.293-.199-2.768-.224-1.035-.017-2.124.006-2.42.052M6.274 8.904C4.62 9.181 3.6 10.14 3.315 11.69c-.055.3-.1 1.105-.1 1.79 0 7.469 3.383 15.255 9.269 21.335 5.088 5.256 11.482 8.678 18.04 9.655 1.323.197 4.896.334 5.71.218 1.598-.226 2.514-1.137 2.837-2.822.187-.977.184-6.663-.005-7.554-.162-.77-.501-1.442-.944-1.873-.721-.702-1.5-.936-3.513-1.056-1.665-.098-1.796-.12-3.8-.612-1.652-.405-2.664-.457-3.4-.173-.266.102-1.308.82-2.503 1.725l-2.048 1.55-.665-.384c-2.126-1.228-4.274-3.06-5.748-4.904-.835-1.044-1.109-1.164-1.58-.694-.397.398-.349.628.302 1.447 1.374 1.731 3.184 3.379 5.122 4.664 1.943 1.289 2.605 1.542 3.178 1.214.108-.061 1.091-.793 2.186-1.626s2.122-1.563 2.283-1.622c.493-.182.965-.136 2.588.25 1.883.446 3.073.636 3.994.638 1.636.003 2.459.307 2.863 1.058.377.703.426 1.29.378 4.541-.055 3.741-.143 4.133-1.036 4.589-.982.5-5.25.263-8.264-.461-6.304-1.515-12.607-5.644-17.02-11.15-4.48-5.589-6.887-12.143-6.742-18.352.03-1.303.047-1.41.276-1.799.277-.472.726-.758 1.414-.902.66-.138 6.591-.16 7.063-.027.715.203 1.085.483 1.359 1.03.232.464.265.657.346 1.975.107 1.744.28 2.834.648 4.1.342 1.172.433 2.184.239 2.648-.077.182-.81 1.21-1.63 2.284-.82 1.075-1.547 2.062-1.616 2.194-.5.958.508 2.138 1.219 1.427.187-.187.226-.302.195-.568-.036-.312.056-.457 1.413-2.22 1.738-2.26 1.922-2.602 1.98-3.676.036-.692-.001-.946-.325-2.205-.466-1.816-.546-2.302-.656-4.04-.124-1.936-.327-2.593-1.042-3.369-.434-.47-1.176-.875-1.882-1.025-.576-.122-6.693-.125-7.422-.003m21.604 2.787c-.391.14-.63.331-.922.739-.176.247-.201.43-.242 1.79l-.046 1.514-1.515.046c-1.59.049-1.714.08-2.123.52-.415.448-.48.672-.521 1.794-.07 1.892.139 2.567.938 3.025.341.196.505.218 1.815.246l1.44.03.029 1.492c.027 1.4.042 1.51.25 1.813.121.177.366.422.543.544.302.206.418.223 1.753.251 1.567.033 1.943-.032 2.403-.419.527-.444.63-.82.631-2.334l.002-1.346 1.446-.03c1.627-.036 1.827-.1 2.354-.752l.285-.352.03-1.59c.032-1.81-.044-2.097-.687-2.588-.331-.253-.365-.259-1.86-.304l-1.522-.046-.046-1.468c-.05-1.608-.114-1.837-.642-2.28a2 2 0 0 0-.623-.333c-.505-.14-2.746-.114-3.17.038m.425 1.408c-.077.048-.118.61-.138 1.888-.037 2.353.147 2.17-2.19 2.17-1.447 0-1.75.024-1.87.145-.115.114-.145.362-.145 1.199 0 .58.043 1.135.095 1.233.089.166.209.177 1.842.177 1.756 0 2.014.041 2.16.342.043.09.1.969.125 1.953l.046 1.79h2.57l.046-1.867c.059-2.404-.123-2.218 2.16-2.218.924 0 1.745-.025 1.825-.056.123-.047.145-.248.145-1.282 0-1.118-.015-1.234-.177-1.32-.104-.056-.88-.096-1.875-.096h-1.698l-.19-.242c-.177-.225-.19-.36-.19-1.955 0-1.21-.033-1.746-.11-1.823-.124-.124-2.245-.157-2.432-.038" clip-rule="evenodd"/><path fill="#0e384c" fill-rule="evenodd" d="M27.415 3.85c-2.5.391-4.794 1.342-6.77 2.807-.863.64-2.734 2.511-2.973 2.973-.281.543.037 1.101.626 1.101.283 0 .455-.152 1.33-1.174.919-1.074 2.483-2.26 3.954-2.998.93-.467 2.632-1.016 3.698-1.193 1.127-.188 3.28-.193 4.413-.01 2.975.478 5.763 2.011 7.712 4.24a14 14 0 0 1 3.051 5.935c.76 3.19.409 6.269-1.037 9.105-.827 1.623-1.795 2.805-3.578 4.37-.564.494-.637.853-.253 1.236.414.415.736.291 1.873-.716 2.264-2.007 3.874-4.736 4.507-7.644.96-4.406-.21-9.246-3.095-12.803-2.092-2.58-4.977-4.344-8.27-5.057-.694-.15-1.293-.199-2.768-.224-1.035-.017-2.124.006-2.42.052m.463 7.84c-.39.14-.63.332-.921.74-.177.247-.202.43-.243 1.79l-.046 1.514-1.514.046c-1.59.049-1.715.08-2.124.52-.415.448-.48.672-.521 1.794-.07 1.892.139 2.567.938 3.025.342.196.505.218 1.815.246l1.44.03.029 1.492c.027 1.4.042 1.51.25 1.813.122.177.366.422.544.544.3.206.418.223 1.752.251 1.568.033 1.944-.032 2.403-.419.528-.444.63-.82.632-2.334l.002-1.346 1.445-.03c1.627-.036 1.827-.1 2.355-.752l.285-.352.028-1.59c.033-1.81-.043-2.097-.686-2.588-.331-.253-.365-.259-1.86-.304l-1.522-.046-.045-1.468c-.05-1.608-.115-1.837-.642-2.28a2 2 0 0 0-.623-.333c-.506-.14-2.746-.114-3.17.038m.425 1.409c-.076.048-.117.61-.137 1.888-.038 2.353.146 2.17-2.19 2.17-1.448 0-1.75.024-1.872.145-.114.114-.144.362-.144 1.199 0 .58.043 1.135.095 1.233.089.166.209.177 1.842.177 1.756 0 2.014.041 2.16.342.043.09.1.969.125 1.953l.047 1.79h2.57l.046-1.867c.059-2.404-.122-2.218 2.16-2.218.924 0 1.746-.025 1.825-.056.123-.047.146-.248.146-1.282 0-1.118-.016-1.234-.178-1.32-.104-.056-.88-.096-1.875-.096h-1.698l-.19-.242c-.177-.225-.19-.36-.19-1.955 0-1.21-.032-1.746-.11-1.823-.124-.124-2.245-.157-2.432-.038" clip-rule="evenodd"/></svg>