<svg xmlns="http://www.w3.org/2000/svg" width="41" height="41" fill="none" viewBox="0 0 41 41"><g fill-rule="evenodd" clip-path="url(#a)" clip-rule="evenodd"><path fill="#0e384c" d="M24.958 1.463c-1.741 1.702-4.313 4.63-5.78 6.582-1.856 2.47-2.952 4.383-3.548 6.198-.569 1.73-.314 4.135.642 6.046 1.015 2.032 2.98 3.89 5.088 4.812 1.512.662 2.923.951 4.641.952 1.812 0 3.256-.324 4.835-1.087 2.466-1.191 4.319-3.168 5.222-5.57.4-1.06.547-1.897.547-3.108 0-1-.024-1.212-.205-1.803-.989-3.24-4.178-7.686-9.17-12.787-.874-.893-.957-.957-1.235-.957-.27 0-.366.067-1.037.722m-.346 2.305c-3.767 4.013-6.385 7.593-7.445 10.178-.625 1.525-.662 2.987-.117 4.625.463 1.392 1.118 2.422 2.209 3.474 1.104 1.064 2.131 1.685 3.595 2.172 3.363 1.12 7.181.322 9.728-2.036 1.844-1.707 2.918-4.37 2.655-6.577-.266-2.225-2.668-6.016-6.612-10.435-1.041-1.166-2.59-2.788-2.662-2.788-.027 0-.636.624-1.351 1.387m.269 6.353c-.393.12-.78.57-.876 1.021-.046.213-.083.948-.083 1.634v1.246h-1.247c-1.55 0-1.925.073-2.3.448-.374.374-.46.735-.423 1.777.035.977.129 1.232.584 1.58l.287.218 1.541.024 1.541.024.03 1.5c.033 1.598.07 1.77.467 2.139.301.28.574.337 1.608.337.907 0 1.01-.015 1.315-.194.582-.341.659-.614.659-2.33v-1.46h1.46c1.716 0 1.99-.078 2.33-.66.18-.305.194-.408.194-1.315 0-1.034-.057-1.306-.337-1.607-.369-.397-.54-.434-2.139-.467l-1.499-.03-.024-1.542-.024-1.54-.219-.287c-.36-.472-.594-.553-1.656-.574-.516-.01-1.05.015-1.19.058m.445 2.749c-.001 1.215-.023 1.472-.145 1.738-.328.713-.644.82-2.429.82h-1.409v1.328h1.497c1.454 0 1.507.006 1.829.195.581.34.659.614.659 2.33v1.46h1.328V19.19c0-1.484.008-1.563.178-1.815.097-.145.296-.343.44-.441.253-.17.331-.178 1.815-.178h1.551v-1.328h-1.46c-1.716 0-1.989-.077-2.33-.659-.189-.322-.194-.374-.194-1.828v-1.497h-1.328zM2.217 22.777c-.614.121-1.136.551-1.414 1.167-.157.346-.16.476-.161 7.74-.002 8.323-.036 7.839.59 8.465.554.553.758.592 3.114.59 1.88-.002 2.063-.014 2.388-.161.193-.088.423-.227.51-.309.155-.144.425-.15 8.946-.173 9.762-.028 9.19.003 10.299-.557.47-.237 11.666-7.022 12.918-7.828.567-.365 1.025-.947 1.134-1.439.033-.15.078 1.783.1 4.297.033 3.762.04 3.244.04-2.93.001-4.125-.017-6.375-.04-5-.024 1.375-.051 2.428-.061 2.34-.036-.326-.432-.98-.775-1.282a3 3 0 0 0-.777-.47c-.858-.32-.7-.36-7.767 1.99-4.53 1.508-6.56 2.149-6.8 2.149h-.344v-.918c0-.865-.014-.948-.242-1.426-.461-.968-1.417-1.796-2.436-2.11-.447-.139-.73-.156-2.545-.156-3.488-.001-3.877-.1-5.926-1.499-1.19-.812-2.213-1.12-4.007-1.208l-1.094-.053-.235-.358c-.283-.432-.902-.824-1.414-.894-.521-.072-3.599-.046-4 .033m.001 1.482a.8.8 0 0 0-.212.332c-.023.095-.032 3.38-.02 7.3l.021 7.127.178.178c.176.175.203.178 2.127.178s1.951-.003 2.127-.178l.178-.178v-14.54l-.22-.19c-.218-.187-.223-.188-2.114-.188-1.795 0-1.903.008-2.065.159m-1.54 7.458c0 4.125.01 5.801.02 3.725.012-2.077.012-5.452 0-7.5-.01-2.049-.02-.35-.02 3.775m7.306.342v6.653l8.535-.02 8.535-.022.45-.17c.49-.185 13.086-7.814 13.438-8.138.468-.432.44-1.203-.059-1.641-.526-.463-.188-.548-7.32 1.836l-6.509 2.175-3.828.041-3.828.042-.596.209c-.623.219-1.195.51-1.591.809-.335.253-.606.302-.881.16-.265-.138-.33-.264-.33-.635 0-.352.405-.694 1.436-1.21 1.33-.665 1.638-.717 4.58-.773l2.538-.048.137-.274c.442-.885-.177-2.144-1.335-2.712l-.442-.218-2.657-.047c-2.425-.043-2.706-.062-3.237-.219-.863-.255-1.599-.625-2.413-1.213-1.268-.916-1.891-1.128-3.51-1.193l-1.113-.044z"/><path fill="#1e84b5" d="M2.217 22.777c-.614.121-1.136.551-1.414 1.167-.157.345-.16.476-.161 7.74-.002 8.323-.036 7.838.59 8.464.554.554.758.593 3.114.59 1.88 0 2.063-.013 2.388-.16.193-.088.423-.227.51-.309.155-.144.425-.15 8.946-.174 9.762-.027 9.19.004 10.299-.556.47-.237 11.666-7.022 12.918-7.829.567-.365 1.025-.946 1.134-1.438.033-.15.078 1.783.1 4.297.033 3.762.04 3.244.04-2.93.001-4.125-.017-6.375-.04-5-.024 1.375-.051 2.428-.061 2.34-.036-.326-.432-.98-.775-1.282a3 3 0 0 0-.777-.47c-.858-.32-.7-.361-7.767 1.99-4.53 1.508-6.56 2.149-6.8 2.149h-.344v-.918c0-.865-.014-.948-.242-1.426-.461-.968-1.417-1.796-2.436-2.11-.447-.139-.73-.156-2.545-.156-3.488-.001-3.877-.1-5.926-1.499-1.19-.812-2.213-1.121-4.007-1.208l-1.094-.053-.235-.358c-.283-.433-.902-.824-1.414-.894-.521-.072-3.599-.046-4 .033m.001 1.481a.8.8 0 0 0-.212.332c-.023.096-.032 3.381-.02 7.3l.021 7.128.178.178c.176.175.203.177 2.127.177s1.951-.002 2.127-.177l.178-.178v-14.54l-.22-.19c-.218-.187-.223-.188-2.114-.188-1.795 0-1.903.008-2.065.158m-1.54 7.46c0 4.124.01 5.8.02 3.724.012-2.077.012-5.452 0-7.5-.01-2.049-.02-.35-.02 3.775m7.306.341v6.653l8.535-.02 8.535-.022.45-.17c.49-.185 13.086-7.814 13.438-8.139.468-.43.44-1.203-.059-1.64-.526-.463-.188-.548-7.32 1.836l-6.509 2.175-3.828.041-3.828.041-.596.21c-.623.219-1.195.51-1.591.809-.335.253-.606.302-.881.159-.265-.137-.33-.263-.33-.634 0-.352.405-.694 1.436-1.21 1.33-.666 1.638-.718 4.58-.773l2.538-.048.137-.274c.442-.885-.177-2.144-1.335-2.713l-.442-.217-2.657-.047c-2.425-.043-2.706-.062-3.237-.219-.863-.255-1.599-.625-2.413-1.213-1.268-.916-1.891-1.128-3.51-1.193l-1.113-.044z"/></g><defs><clipPath id="a"><path fill="#fff" d="M.64.74h40v40h-40z"/></clipPath></defs></svg>