<svg xmlns="http://www.w3.org/2000/svg" width="48" height="48" fill="none" viewBox="0 0 48 48"><g clip-path="url(#a)"><path fill="#0e384c" d="m18.102 22.08-2.493.998a1.66 1.66 0 0 1-2.101-2.278l.55-1.1a1.6 1.6 0 0 0-.3-1.847L9.93 14.027l1.035-1.034a.8.8 0 0 0 0-1.132L8.33 9.227l.235-.234a.8.8 0 0 0 .016-1.116L1.382.251A.8.8 0 0 0 0 .8v10.4a.8.8 0 0 0 .284.61l2.4 2.03a.8.8 0 0 0 1.082-.046L4 13.557l2.634 2.635a.8.8 0 0 0 1.132 0L8.8 15.157l3.826 3.827-.546 1.096a3.257 3.257 0 0 0 4.126 4.48l2.495-.998zM3.434 11.863l-.28.28L1.6 10.828V2.813l5.285 5.6-.25.25zM7.2 14.495l-2.069-2.069L7.2 10.357l2.069 2.072zm40.307 8.765a.8.8 0 0 0-.872.174l-11.2 11.2a.8.8 0 0 0 0 1.131l.634.635-3.139 3.139a7.73 7.73 0 0 0-4.13-1.14c-3.528 0-6.4 2.154-6.4 4.8 0 2.648 2.872 4.8 6.4 4.8 3.53 0 6.4-2.152 6.4-4.8a3.97 3.97 0 0 0-1.046-2.622l3.046-3.046.635.634a.8.8 0 0 0 1.131 0l8.8-8.8A.8.8 0 0 0 48 28.8V24a.8.8 0 0 0-.493-.74M28.8 46.4c-2.601 0-4.8-1.466-4.8-3.2s2.2-3.2 4.8-3.2 4.8 1.465 4.8 3.2c0 1.734-2.198 3.2-4.8 3.2m17.6-17.931-8 8-1.268-1.27 9.268-9.268z"/><path fill="#1e84b5" d="M27.583 27.035a3.633 3.633 0 0 0-7.166 0L18 41.535a1.991 1.991 0 0 1-3.937-.057l-2.07-15.186a.8.8 0 0 0-.114-.32l-.445-.712a22.5 22.5 0 0 1-2.888-7.04l-1.563.349a24.1 24.1 0 0 0 3.097 7.543l.354.566 2.048 15.016a3.59 3.59 0 0 0 7.099.106l2.417-14.501c.16-.98 1.008-1.7 2.002-1.7a2.026 2.026 0 0 1 2.006 1.7l1.605 9.633 1.578-.264zM31.507 3.2c-1.366 0-2.719.278-3.975.816a9 9 0 0 1-7.064 0A10.09 10.09 0 0 0 9.007 6.523L10.194 7.6a8.5 8.5 0 0 1 6.3-2.8 8.45 8.45 0 0 1 3.344.686 10.6 10.6 0 0 0 8.325 0A8.493 8.493 0 0 1 40 13.293a22.56 22.56 0 0 1-3.433 11.97l-.445.713a.8.8 0 0 0-.114.32l-.655 4.8 1.585.216.632-4.63.354-.566A24.16 24.16 0 0 0 41.6 13.293C41.6 7.718 37.081 3.2 31.507 3.2"/></g><defs><clipPath id="a"><path fill="#fff" d="M0 0h48v48H0z"/></clipPath></defs></svg>