<svg xmlns="http://www.w3.org/2000/svg" width="48" height="48" fill="none" viewBox="0 0 48 48"><g clip-path="url(#a)"><path fill="#1e84b5" d="M24.344 24.06a5.3 5.3 0 0 0-3.544.702 5.3 5.3 0 0 0-3.544-.703 5.2 5.2 0 0 0-4.416 4.48 5.1 5.1 0 0 0 1.021 3.76c.15.185.24.413.256.65.046 1.92.142 5.905 2.337 8.702A1.988 1.988 0 0 0 20 40.406V36.74a.78.78 0 0 1 1.313-.53.9.9 0 0 1 .287.646v3.595a1.992 1.992 0 0 0 3.551 1.192c2.19-2.791 2.286-6.782 2.332-8.7.016-.238.105-.465.256-.65a5.1 5.1 0 0 0 1.021-3.76 5.2 5.2 0 0 0-4.416-4.475m2.125 7.264a2.72 2.72 0 0 0-.586 1.583c-.041 1.746-.13 5.379-1.99 7.75a.38.38 0 0 1-.56.04.4.4 0 0 1-.133-.243V36.86a2.49 2.49 0 0 0-1.625-2.324 2.3 2.3 0 0 0-.96-.127 2.376 2.376 0 0 0-2.215 2.333v3.665a.4.4 0 0 1-.31.388.4.4 0 0 1-.378-.136c-1.865-2.377-1.953-6.007-1.995-7.75a2.72 2.72 0 0 0-.586-1.585 3.53 3.53 0 0 1-.704-2.591 3.65 3.65 0 0 1 3.63-3.132 3.68 3.68 0 0 1 2.256.764.8.8 0 0 0 .974 0 3.7 3.7 0 0 1 2.824-.72 3.65 3.65 0 0 1 3.062 3.09 3.53 3.53 0 0 1-.704 2.59"/><path fill="#0e384c" d="M44.16 8.016a.795.795 0 0 0-.94.627l-1.288 6.438a1.144 1.144 0 0 1-1.933.584l-2.69-2.69a3.327 3.327 0 0 0-5.12.507l-2.88 4.32a8.85 8.85 0 0 0-5.124-5.912l8.098-3.93a1.6 1.6 0 0 0 .74-2.14l-.437-.9A8.71 8.71 0 0 0 20.943.874L8.118 7.082A8.71 8.71 0 0 0 4.08 18.724l.72 1.463V32a16 16 0 0 0 32 0V20.8a1.6 1.6 0 0 0-1.6-1.6h-4.905l3.22-4.83a1.782 1.782 0 0 1 2.66-.264l2.69 2.694a2.745 2.745 0 0 0 4.632-1.402l1.287-6.438a.8.8 0 0 0-.624-.944M27.95 19.2h-3.23a4 4 0 0 0-7.84 0h-3.227a7.1 7.1 0 0 1 .82-2.61l7.572-3.668a7.21 7.21 0 0 1 5.906 6.278m-4.897 0h-4.506a2.387 2.387 0 0 1 4.506 0M5.515 18.02a7.107 7.107 0 0 1 3.301-9.5L21.64 2.316a7.11 7.11 0 0 1 9.508 3.303l.439.902L5.966 18.934zm6.816-.392a9 9 0 0 0-.278 1.572H9.087zM35.2 32a14.4 14.4 0 1 1-28.8 0V20.8h28.8z"/></g><defs><clipPath id="a"><path fill="#fff" d="M0 0h48v48H0z"/></clipPath></defs></svg>