<svg xmlns="http://www.w3.org/2000/svg" width="30" height="31" fill="none" viewBox="0 0 30 31"><path fill="#1e84b5" fill-rule="evenodd" d="M3.756 5.384C2.124 5.814.921 7.084.61 8.709c-.123.643-.123 13.797 0 14.44.289 1.509 1.386 2.746 2.889 3.26l.456.155 10.869.016c12.215.018 11.29.05 12.275-.429a4.04 4.04 0 0 0 1.937-1.931c.5-1.015.461-.374.48-8.08.02-7.415.02-7.391-.294-8.17a4.1 4.1 0 0 0-.952-1.448 4.4 4.4 0 0 0-1.698-1.064l-.469-.164-10.957-.012c-10.682-.012-10.968-.009-11.39.102M3.97 6.96c-.858.275-1.548.995-1.77 1.847-.08.306-.091 1.19-.091 7.122 0 5.931.011 6.815.09 7.121.225.863.918 1.578 1.79 1.85.345.107.72.11 11.04.11s10.695-.003 11.04-.11c.892-.278 1.547-.98 1.792-1.922.132-.504.132-13.594 0-14.099-.245-.942-.9-1.643-1.793-1.921-.344-.108-.715-.111-11.059-.108-10.214.003-10.718.008-11.039.11" clip-rule="evenodd"/><path fill="#0e384c" d="M4.13 10.747c0-.35.106-.518.411-.657a.7.7 0 0 1 .641.06c.067.045 1.518 1.34 3.226 2.88 3.931 3.54 4.41 3.962 4.788 4.213.484.321.925.452 1.628.485 1.078.05 1.737-.214 2.76-1.107a676 676 0 0 0 3.739-3.352 392 392 0 0 1 3.363-3.01c.188-.154.285-.19.505-.19.312 0 .492.105.626.365.163.314.08.598-.28.967-.456.466-2.116 1.993-3.594 3.307a57 57 0 0 0-1.39 1.26c-.1.111-.036.18 2.218 2.425 1.276 1.271 2.357 2.363 2.401 2.426a.7.7 0 0 1 .082.33c0 .427-.442.726-.83.561-.113-.047-1.202-1.067-2.568-2.404-1.306-1.277-2.393-2.322-2.417-2.322s-.327.253-.674.563c-1.19 1.063-1.912 1.445-3.102 1.636a3.4 3.4 0 0 1-1.084.026c-1.22-.136-1.958-.462-2.919-1.29a126 126 0 0 0-.867-.743l-.251-.211-.686.669c-.377.368-1.445 1.413-2.372 2.323-.928.91-1.763 1.694-1.858 1.742-.273.141-.46.111-.68-.11-.159-.159-.2-.247-.2-.427 0-.125.037-.28.082-.343s1.126-1.155 2.401-2.426c2.253-2.245 2.317-2.315 2.218-2.426a53 53 0 0 0-1.39-1.261c-1.654-1.47-3.062-2.764-3.545-3.256-.373-.38-.381-.395-.381-.703"/></svg>