<svg xmlns="http://www.w3.org/2000/svg" width="30" height="31" fill="none" viewBox="0 0 30 31"><g clip-path="url(#a)"><path fill="#0e384c" fill-rule="evenodd" d="M14.388 1.71A14.63 14.63 0 0 0 4.99 5.981c-2.22 2.236-3.64 5.08-4.124 8.26-.155 1.023-.155 3.011.002 4.078.801 5.46 4.546 10.003 9.705 11.776 1.39.477 3.13.798 4.329.798.385 0 .466-.022.604-.16a.49.49 0 0 0 .01-.716c-.131-.13-.242-.157-.833-.196-1.577-.106-3.005-.414-4.305-.93-3.191-1.263-5.741-3.613-7.218-6.65-.884-1.82-1.301-3.489-1.38-5.518-.166-4.29 1.817-8.548 5.192-11.153 4.157-3.207 9.62-3.774 14.343-1.486 1.366.662 2.614 1.577 3.757 2.755 1.066 1.099 1.743 2.054 2.415 3.407.95 1.914 1.387 3.807 1.388 6.02.002 2.193-.409 3.983-1.36 5.942-.374.768-1.304 2.285-1.402 2.285-.019 0 .003-.46.048-1.02.066-.817.066-1.056.001-1.192-.211-.442-.827-.376-.955.101-.071.265-.27 2.688-.268 3.274 0 .588.293.928.797.926.118 0 .95-.19 1.848-.422 1.392-.359 1.654-.446 1.78-.59.08-.094.146-.238.146-.32 0-.196-.217-.47-.41-.519-.085-.021-.578.075-1.124.22-.535.14-.983.246-.996.234-.012-.012.141-.25.34-.529 1.288-1.794 2.183-4.108 2.527-6.53.124-.87.106-2.968-.033-3.91-.314-2.123-1.137-4.266-2.311-6.017-2.936-4.378-7.882-6.826-13.115-6.49m-.443 4.403c-2.866.467-5.323 2.031-6.907 4.397-2.287 3.419-2.286 7.767.003 11.19 1.464 2.19 3.77 3.734 6.431 4.31.96.207 2.911.206 3.876-.002 2.897-.626 5.29-2.338 6.772-4.844 1.382-2.34 1.74-5.189.983-7.84-1.015-3.56-4.013-6.328-7.706-7.114-.862-.184-2.617-.233-3.452-.097m-.112 1.113c-.848.154-2.408.697-2.41.84 0 .032.132.287.293.567.162.28.294.586.294.68 0 .243-.271.489-.54.489-.266 0-.394-.127-.74-.735-.137-.242-.278-.44-.313-.44-.127 0-1.017.734-1.49 1.229-.691.723-1.071 1.25-.957 1.327.05.033.273.164.497.291.666.38.832.719.51 1.04-.242.243-.507.21-1.08-.133-.27-.16-.51-.292-.534-.293-.066 0-.422.894-.598 1.505-.142.49-.227.93-.329 1.705l-.032.239.687.022c.665.021.691.028.85.212.127.149.154.235.123.392-.078.387-.225.46-.98.485l-.68.022.032.24c.102.773.187 1.213.329 1.704.176.61.532 1.506.598 1.505.024 0 .264-.133.533-.294.574-.342.839-.375 1.08-.133.323.322.157.662-.51 1.04-.223.128-.448.26-.499.293-.189.126 1.127 1.61 2.025 2.282.2.15.392.273.426.273s.175-.198.313-.44c.345-.608.473-.735.738-.735.272 0 .541.245.541.493 0 .095-.144.417-.32.715l-.318.542.433.197c.814.37 2.24.729 2.899.73h.18v-.656c0-.61.01-.667.16-.816a.49.49 0 0 1 .724 0c.149.149.16.206.16.826v.665l.408-.038c.848-.08 1.936-.372 2.804-.753l.307-.134-.323-.576c-.177-.316-.323-.642-.323-.725 0-.23.28-.47.546-.47.267 0 .424.162.787.81l.239.427.34-.243c.498-.355 1.431-1.27 1.844-1.809.197-.257.358-.484.358-.503s-.235-.172-.521-.339c-.286-.166-.568-.375-.626-.463a.506.506 0 0 1 .122-.655c.233-.164.495-.114 1.032.195.28.162.522.294.538.294.055 0 .49-1.1.625-1.58.107-.38.33-1.608.331-1.826 0-.023-.307-.053-.683-.065-.604-.02-.701-.04-.83-.168a.52.52 0 0 1-.145-.377q.001-.23.146-.377c.128-.128.225-.148.832-.167l.687-.023-.04-.304c-.1-.755-.25-1.44-.434-1.991-.166-.496-.398-1.048-.481-1.142-.01-.012-.252.113-.537.277-.305.176-.6.3-.717.3-.428 0-.67-.47-.412-.798.076-.097.357-.296.625-.445.268-.148.488-.285.488-.305s-.145-.233-.323-.473c-.372-.501-1.38-1.492-1.879-1.848l-.34-.242-.24.427c-.362.648-.519.81-.786.81-.266 0-.546-.241-.546-.47 0-.083.145-.408.321-.722.364-.648.393-.57-.32-.862-.599-.245-1.785-.543-2.375-.596l-.5-.045v.665c0 .619-.01.676-.16.825a.49.49 0 0 1-.724 0c-.148-.149-.16-.207-.16-.816v-.656l-.277.006a6 6 0 0 0-.773.095" clip-rule="evenodd"/><path fill="#1e84b5" fill-rule="evenodd" d="M14.388 1.71A14.63 14.63 0 0 0 4.99 5.981c-2.22 2.236-3.64 5.08-4.124 8.26-.155 1.023-.155 3.011.002 4.078.801 5.46 4.546 10.003 9.705 11.776 1.39.477 3.13.798 4.329.798.385 0 .466-.022.604-.16a.49.49 0 0 0 .01-.716c-.131-.13-.242-.157-.833-.196-1.577-.106-3.005-.414-4.305-.93-3.191-1.263-5.741-3.613-7.218-6.65-.884-1.82-1.301-3.489-1.38-5.518-.166-4.29 1.817-8.548 5.192-11.153 4.157-3.207 9.62-3.774 14.343-1.486 1.366.662 2.614 1.577 3.757 2.755 1.066 1.099 1.743 2.054 2.415 3.407.95 1.914 1.387 3.807 1.388 6.02.002 2.193-.409 3.983-1.36 5.942-.374.768-1.304 2.285-1.402 2.285-.019 0 .003-.46.048-1.02.066-.817.066-1.056.001-1.192-.211-.442-.827-.376-.955.101-.071.265-.27 2.688-.268 3.274 0 .588.293.928.797.926.118 0 .95-.19 1.848-.422 1.392-.359 1.654-.446 1.78-.59.08-.094.146-.238.146-.32 0-.196-.217-.47-.41-.519-.085-.021-.578.075-1.124.22-.535.14-.983.246-.996.234-.012-.012.141-.25.34-.529 1.288-1.794 2.183-4.108 2.527-6.53.124-.87.106-2.968-.033-3.91-.314-2.123-1.137-4.266-2.311-6.017-2.936-4.378-7.882-6.826-13.115-6.49" clip-rule="evenodd"/><path fill="#0e384c" d="m14.59 10.357.144-.144c.09-.09.21-.144.325-.144.114 0 .234.053.325.144l.143.144v2.613c0 2.305.012 2.635.096 2.8.053.104.515.902 1.026 1.775.651 1.112.93 1.64.93 1.766 0 .23-.157.417-.389.461-.149.029-.216.004-.36-.131-.184-.176-2.033-3.3-2.16-3.654-.056-.154-.076-.88-.078-2.917z"/></g><defs><clipPath id="a"><path fill="#fff" d="M0 .929h30v30H0z"/></clipPath></defs></svg>