<svg xmlns="http://www.w3.org/2000/svg" width="56" height="56" fill="none" viewBox="0 0 56 56"><path fill="#1e84b5" fill-rule="evenodd" d="M25.854 1.251c-.411.179-.89.778-.98 1.226-.072.357.327 4.117.505 4.764.211.77.97 1.4 1.688 1.4h.276v1.53c0 1.386.021 1.553.22 1.75.12.121.316.22.437.22.12 0 .317-.099.437-.22.198-.197.219-.364.219-1.735V8.67l.434-.058c.598-.08 1.174-.462 1.418-.94.134-.263.27-.985.4-2.121.16-1.408.226-1.721.366-1.719.094.002 1.964.336 4.154.742l3.984.738.118.345c.242.707.776 1.3 1.49 1.657l.686.343h6.747c6.398 0 6.757-.01 6.928-.2.24-.264.23-.706-.019-.931-.178-.161-.613-.181-3.937-.181h-3.738v-.749c0-.83-.17-1.11-.675-1.11-.462 0-.637.31-.637 1.13v.729l-2.16-.003c-2.619-.003-2.953-.097-3.326-.939-.26-.59-.224-1.082.117-1.561.487-.684.318-.67 7.521-.67 7.358 0 7.079.03 7.014-.745-.059-.701.157-.682-7.252-.649-6.13.028-6.706.046-7.09.225-.588.274-1.316.977-1.55 1.497-.184.406-.227.437-.538.38-6.681-1.216-7.89-1.465-7.993-1.642-.264-.45-.673-.856-1.004-.994-.497-.208-3.78-.201-4.26.008m.455 1.33c-.118.118-.155.286-.116.52.033.19.156 1.156.274 2.149.168 1.406.257 1.835.403 1.941.116.085.55.137 1.138.137 1.386 0 1.336.076 1.633-2.507.235-2.046.236-2.13.046-2.27-.312-.228-3.145-.203-3.378.03m-8.98 9.383c-1.543.253-3.024.83-4.204 1.636-3.348 2.288-4.8 7.16-3.77 12.65.657 3.499 1.76 6.458 4.142 11.102.74 1.443 1.5 3.026 1.688 3.517.44 1.15.996 3.276 1.541 5.889.615 2.944.849 3.924 1.175 4.922.879 2.688 2.07 3.913 3.81 3.916.947.001 1.551-.277 2.037-.939.95-1.294 1.338-3.072 2.004-9.157.653-5.971 1.238-8.012 2.296-8.012.54 0 .87.514 1.311 2.035.333 1.15.622 3.066 1.05 6.961.57 5.19.956 6.879 1.864 8.143.501.698 1.047.96 2.016.966 1.472.01 2.387-.664 3.237-2.382.566-1.146.942-2.486 1.741-6.22 1.106-5.163 1.346-5.87 3.268-9.61 2.399-4.668 3.581-7.883 4.233-11.514.294-1.632.275-4.792-.035-6.131-.961-4.145-3.334-6.65-7.215-7.618-.783-.195-1.28-.24-2.659-.241-2.29-.002-3.613.288-5.887 1.287a10.4 10.4 0 0 1-1.836.58c-1.241.244-2.389.102-3.737-.463-1.468-.615-2.62-1-3.579-1.196-1.187-.243-3.388-.303-4.49-.122m-.157 1.435c-4.23.855-6.566 3.889-6.752 8.767-.036.93-.006 1.979.073 2.625.446 3.629 1.953 7.818 4.54 12.615 1.459 2.706 2.008 4.324 2.911 8.583 1.106 5.21 1.477 6.435 2.27 7.475.557.732 1.836 1.048 2.313.572.828-.828 1.217-2.662 1.918-9.028.498-4.522.96-6.623 1.71-7.754 1.165-1.758 3.174-1.43 4.103.671.584 1.319.97 3.463 1.465 8.122.56 5.269 1.093 7.514 1.912 8.05.358.235 1.27.157 1.674-.143 1.067-.79 1.548-2.121 2.644-7.306 1.032-4.885 1.535-6.397 3.109-9.351 4.006-7.517 5.36-13.24 4.216-17.802-.348-1.385-1.202-2.981-2.057-3.847-1.471-1.488-3.74-2.41-5.94-2.413-.536 0-.639.035-.795.273-.231.354-.867.386-1.074.055a.5.5 0 0 0-.37-.22c-.493 0-2.35.547-3.441 1.012-1.292.551-1.95.73-3.084.836l-.79.074.538.35c.296.193.715.382.93.42.446.08.883.43.883.706 0 .104-.091.3-.202.437-.16.197-.301.246-.674.231-.766-.03-1.502-.45-2.649-1.516-.65-.604-1.352-1.138-1.805-1.375-.896-.467-2.641-1.036-3.483-1.135l-.616-.072.175.34c.23.444.221.631-.043.896-.468.468-.993.175-1.422-.794l-.229-.519-.624.01a9 9 0 0 0-1.334.155m17.084.722c-.42.43-1.006 1.521-1.006 1.874 0 .337.315.63.678.63.324 0 .423-.102.808-.832.156-.294.377-.637.492-.76.29-.314.273-.866-.034-1.081-.355-.25-.566-.211-.938.169m-13.017.61c-.22.088-.366.563-.244.791.057.107.439.522.847.92.822.802 1.197.924 1.503.487.25-.357.211-.594-.175-1.075-.71-.882-1.452-1.314-1.931-1.123m12.065 2.353c-.313.178-.379.31-.38.763-.002.26-.093.51-.26.711-.143.17-.292.412-.331.538-.095.304.303.81.636.81.618 0 1.266-.986 1.263-1.921-.001-.602-.056-.724-.4-.906-.285-.15-.255-.15-.528.005m-10.339.584c-.344.415-.062 1.183.69 1.876.631.582.9.664 1.268.39.475-.353.434-.652-.167-1.221-.291-.276-.614-.662-.716-.858-.155-.295-.25-.355-.56-.355-.207 0-.438.076-.515.168m8.043 1.716c-.241.053-.703.13-1.028.172-.47.061-.636.14-.818.383-.21.282-.215.328-.063.601.135.241.256.303.654.332.599.043 1.714-.161 2.047-.375.175-.113.247-.264.247-.525 0-.557-.332-.745-1.04-.588m-5.233.175c-.226.25-.235.716-.017.933.163.164.835.326 1.838.444.457.053.56.027.793-.206.603-.603.224-1.012-1.125-1.217-1.248-.19-1.277-.189-1.49.046" clip-rule="evenodd"/></svg>