<svg xmlns="http://www.w3.org/2000/svg" width="48" height="49" fill="none" viewBox="0 0 48 49"><g fill-rule="evenodd" clip-path="url(#a)" clip-rule="evenodd"><path fill="#1e84b5" d="M16.771 5.361a3.95 3.95 0 0 0-2.798 2.958c-.083.379-.103 1.938-.076 5.86.04 5.852.027 5.708.632 7.04.513 1.133 1.654 2.493 2.51 2.994.167.098.305.2.305.229 0 .027-.285.149-.633.27-3.95 1.369-7.113 4.599-8.469 8.646-.495 1.478-.653 2.48-.713 4.516l-.055 1.852h-.507c-.413 0-.55-.043-.737-.23l-.23-.23v-24.58l.23-.23.23-.23h5.455l.23-.23a.706.706 0 0 0 0-1.04l-.23-.23H9.179c-1.874 0-2.857.036-3.121.114-.545.16-1.3.931-1.45 1.48-.089.326-.109 3.244-.088 12.914l.027 12.492H.46l-.243.243c-.226.226-.24.285-.19.87.128 1.534 1.04 2.792 2.343 3.234.41.14 2.328.153 21.618.153 17.827 0 21.238-.021 21.604-.13.95-.287 1.957-1.363 2.212-2.365.064-.252.155-.532.203-.621.092-.173.123-1.077.034-.988-.029.029-.153-.048-.277-.172-.223-.223-.237-.224-2.268-.224h-2.043l.026-7.268.025-7.268-.232-.232c-.307-.307-.737-.308-1.042-.002l-.23.23v14.08l-.23.23-.23.23h-7.015l-.052-1.992c-.072-2.75-.415-4.251-1.437-6.293-1.56-3.116-4.516-5.7-7.7-6.728-.374-.121-.68-.243-.68-.27 0-.029.137-.132.305-.23.856-.5 1.997-1.861 2.51-2.994.606-1.335.592-1.178.63-7.117.03-4.812.017-5.48-.12-5.953-.417-1.443-1.397-2.419-2.81-2.796-.65-.174-7.765-.167-8.4.008m.127 1.52c-.536.19-1.185.855-1.373 1.406-.12.35-.15.852-.15 2.44v1.999h11.26l-.029-2.133c-.032-2.398-.069-2.558-.754-3.223-.648-.628-.78-.645-4.892-.637-3.01.006-3.734.033-4.062.149m3.582 1.2a.75.75 0 0 0-.23.562c0 .318-.014.333-.332.333-.43 0-.793.343-.793.75s.363.75.793.75c.318 0 .332.014.332.332 0 .43.344.793.75.793s.75-.364.75-.793c0-.318.014-.332.332-.332.43 0 .793-.344.793-.75s-.363-.75-.793-.75c-.318 0-.332-.015-.332-.333 0-.43-.344-.792-.75-.792a.76.76 0 0 0-.52.23m12.54.262c-.414.133-1.081.734-1.297 1.17-.16.322-.181.693-.23 4.244-.051 3.616-.07 3.943-.26 4.64-.409 1.49-1.075 2.546-2.023 3.206-.609.424-.785.747-.621 1.142a.8.8 0 0 0 .344.375c.335.152 16.976.15 17.487-.003.514-.154 1.1-.691 1.357-1.245l.221-.474V10.054l-.22-.474c-.259-.555-.844-1.091-1.358-1.246-.484-.144-12.946-.136-13.4.01m.22 1.604-.222.22-.044 3.788c-.04 3.385-.064 3.87-.234 4.583-.246 1.03-.608 1.926-1.062 2.628l-.361.56H46.04l.23-.23.23-.23v-11.08l-.23-.23-.23-.23H33.46zm2.99 3.009a.76.76 0 0 0-.23.52.76.76 0 0 0 .23.52l.23.23h6.58l.23-.23a.76.76 0 0 0 .23-.52.76.76 0 0 0-.23-.52l-.23-.23h-6.58zm-20.855 3.598c0 2.013.025 2.428.185 3.053.275 1.076.685 1.776 1.546 2.642.872.878 1.692 1.34 2.83 1.592 2.646.589 5.515-1.149 6.43-3.895.184-.554.206-.85.238-3.166l.034-2.554H15.375zm20.855.902a.76.76 0 0 0-.23.52c0 .182.085.375.23.52l.23.23h5.08l.23-.23a.76.76 0 0 0 .23-.52.76.76 0 0 0-.23-.52l-.23-.23h-5.08zM19.781 25.53c-.129.024-.515.088-.858.142l-.623.098-.29.647c-.234.526-.948 2.724-.948 2.923 0 .029.116.08.258.115.715.177 1.524.935 1.924 1.801.2.434.21.58.238 3.475l.03 3.022-.236.236c-.208.207-.316.236-.901.236-.58 0-.694-.03-.895-.23a.706.706 0 0 1 0-1.04c.127-.127.295-.23.375-.23.127 0 .145-.285.143-2.274-.002-2.01-.022-2.317-.175-2.648-.527-1.142-2.064-1.44-2.998-.582-.52.479-.57.76-.573 3.23-.002 1.99.016 2.274.143 2.274.08 0 .248.103.375.23a.706.706 0 0 1 0 1.04c-.201.2-.314.23-.895.23-.585 0-.693-.029-.9-.236l-.237-.236.03-3.022c.027-2.877.039-3.043.234-3.466.428-.928 1.082-1.525 2.02-1.843.43-.147.495-.205.595-.533l.41-1.338c.164-.533.277-.991.25-1.017-.025-.026-.388.134-.805.357-2.237 1.192-4.167 3.242-5.294 5.624-.825 1.745-1.177 3.471-1.178 5.78v1.43h24.028l-.053-1.805c-.079-2.659-.402-4.048-1.39-5.977a12.2 12.2 0 0 0-2.437-3.22c-.74-.687-2.023-1.623-2.109-1.538-.024.024.06.466.185.984.125.517.278 1.252.34 1.633.111.693.112.694.503.856.97.402 1.56 1.257 1.631 2.367.038.587.01.745-.216 1.25-.972 2.167-3.982 2.197-5.013.05-.306-.639-.313-1.59-.017-2.241.26-.573.847-1.189 1.347-1.414.373-.168.373-.17.313-.596-.113-.803-.512-2.34-.807-3.104-.338-.877-.386-.91-1.765-1.225-.78-.178-3.204-.317-3.759-.215m6.55 6.571c-.557.347-.739 1.022-.435 1.623.171.338.3.457.659.603.44.18.45.18.886 0 .291-.121.502-.288.622-.494.35-.598.15-1.46-.404-1.747-.358-.186-1.016-.178-1.327.015M.029 40.663c0 .284.018.4.039.258a2 2 0 0 0 0-.516c-.021-.141-.039-.025-.039.258m1.566.646c0 .186.63 1.004.928 1.203l.318.214h21.132c23.043 0 21.354.04 21.884-.531.223-.24.55-.786.55-.918 0-.028-10.083-.051-22.406-.051-12.972 0-22.406.035-22.406.083"/><path fill="#0e384c" d="M33.02 8.344c-.414.132-1.081.733-1.297 1.168-.16.323-.181.694-.23 4.245-.051 3.616-.07 3.943-.26 4.64-.409 1.49-1.075 2.546-2.023 3.206-.609.424-.785.747-.622 1.142a.8.8 0 0 0 .345.375c.334.152 16.976.15 17.486-.003.515-.154 1.1-.691 1.358-1.245l.22-.474V10.054l-.22-.474c-.258-.555-.843-1.091-1.358-1.245-.483-.145-12.945-.137-13.399.009m.219 1.603-.221.22-.044 3.788c-.04 3.385-.064 3.87-.234 4.583-.246 1.03-.608 1.927-1.062 2.628l-.362.56H46.04l.23-.23.23-.23v-11.08l-.23-.23-.23-.23H33.46zm2.991 3.009a.76.76 0 0 0-.23.52.76.76 0 0 0 .23.52l.23.23h6.58l.23-.23a.76.76 0 0 0 .23-.52.76.76 0 0 0-.23-.52l-.23-.23h-6.58zm0 4.5a.76.76 0 0 0-.23.52c0 .182.085.375.23.52l.23.23h5.08l.23-.23a.76.76 0 0 0 .23-.52.76.76 0 0 0-.23-.52l-.23-.23h-5.08z"/></g><defs><clipPath id="a"><path fill="#fff" d="M0 .726h48v48H0z"/></clipPath></defs></svg>