<svg xmlns="http://www.w3.org/2000/svg" width="48" height="48" fill="none" viewBox="0 0 48 48"><path fill="#0e384c" d="M10.838 15.356v-.26H9.29v.26q0 .666.034 1.329l1.547-.08q-.032-.621-.033-1.249m.156 2.749-1.538.176a25.9 25.9 0 0 0 3.93 11.02l1.303-.837a24.35 24.35 0 0 1-3.695-10.359M28.537 7.519A8.07 8.07 0 0 1 24 8.903a8.1 8.1 0 0 1-4.537-1.383l-.866 1.283A9.6 9.6 0 0 0 24 10.452a9.6 9.6 0 0 0 5.404-1.65zM6.968 29.806H5.419A5.426 5.426 0 0 1 0 35.226v1.548a5.426 5.426 0 0 1 5.42 5.42h1.548a5.426 5.426 0 0 1 5.42-5.42v-1.548a5.426 5.426 0 0 1-5.42-5.42m-.774 9.21A7 7 0 0 0 3.178 36a7 7 0 0 0 3.016-3.016A7 7 0 0 0 9.209 36a7 7 0 0 0-3.015 3.015"/><path fill="#1e84b5" d="M42.58 9.677h-1.482c-1.466-3.647-5.056-6.193-9.122-6.193-1.92 0-3.726.52-5.222 1.501a5.05 5.05 0 0 1-5.509 0c-1.495-.982-3.3-1.501-5.22-1.501-5.422 0-9.832 4.41-9.832 9.83v2.042a28.83 28.83 0 0 0 4.589 15.621 27.3 27.3 0 0 1 3.526 8.152l.842 3.371a2.654 2.654 0 0 0 2.58 2.016 2.64 2.64 0 0 0 2.631-2.266l1.737-11.58A1.91 1.91 0 0 1 24 29.032c.959 0 1.759.69 1.901 1.638l1.737 11.58a2.645 2.645 0 0 0 2.631 2.266 2.654 2.654 0 0 0 2.58-2.016l.844-3.37a27.3 27.3 0 0 1 3.526-8.153 29.1 29.1 0 0 0 3.81-8.993l.003.08h1.549A5.426 5.426 0 0 1 48 16.646v-1.548a5.426 5.426 0 0 1-5.42-5.42M35.917 30.14a28.8 28.8 0 0 0-3.725 8.616l-.844 3.37a1.11 1.11 0 0 1-1.078.843 1.105 1.105 0 0 1-1.1-.948l-1.736-11.58A3.45 3.45 0 0 0 24 27.484a3.45 3.45 0 0 0-3.434 2.956L18.83 42.02a1.104 1.104 0 0 1-1.1.948c-.51 0-.954-.346-1.079-.843l-.843-3.37a28.8 28.8 0 0 0-3.725-8.616 27.3 27.3 0 0 1-4.341-14.783v-2.041c0-4.567 3.715-8.283 8.282-8.283 1.617 0 3.129.431 4.37 1.247A6.46 6.46 0 0 0 24 7.355a6.45 6.45 0 0 0 3.605-1.076c1.242-.816 2.753-1.247 4.37-1.247 4.085 0 7.61 3.044 8.19 7.018l.032.504a5.42 5.42 0 0 1-4.584 2.543v1.548c1.818 0 3.425.903 4.409 2.28a27.5 27.5 0 0 1-4.106 11.214m5.89-11.252a7 7 0 0 0-3.015-3.016 7 7 0 0 0 3.015-3.016 7 7 0 0 0 3.016 3.016 7 7 0 0 0-3.016 3.016"/></svg>