<svg xmlns="http://www.w3.org/2000/svg" width="30" height="31" fill="none" viewBox="0 0 30 31"><path fill="#1e84b5" d="m26.513 27.484 1.1-1.266a3 3 0 0 0 .887-2.14c0-.808-.315-1.57-.942-2.188l-2.751-2.107a3.03 3.03 0 0 0-4.279-.003l-1.723 1.68c-4.14-1.686-7.513-5.062-9.331-9.34l1.674-1.716c1.18-1.18 1.18-3.1.048-4.226l-2.204-2.86C7.848 2.173 5.828 2.2 4.74 3.292L3.42 4.444C2.18 5.676 1.5 7.348 1.5 9.152c0 8.717 11.56 20.277 20.277 20.277 1.803 0 3.475-.681 4.736-1.945M8.148 4.055l2.204 2.86a1.907 1.907 0 0 1-.005 2.696L8.41 11.599a.56.56 0 0 0-.12.603c1.946 4.843 5.753 8.649 10.447 10.44.205.078.437.03.593-.122l1.987-1.937.004-.006c.72-.72 1.917-.766 2.745.049l2.752 2.107c.741.741.741 1.947-.026 2.718l-1.101 1.265c-1.022 1.024-2.412 1.588-3.914 1.588-8.055 0-19.152-11.097-19.152-19.152 0-1.502.564-2.893 1.56-3.888L5.507 4.11a1.93 1.93 0 0 1 1.367-.563 1.8 1.8 0 0 1 1.275.509z"/><path fill="#0e384c" d="M27.375 14.241a.563.563 0 0 0 1.125 0c0-6.514-5.3-11.811-11.812-11.811a.563.563 0 0 0 0 1.125c5.892 0 10.687 4.794 10.687 10.687"/><path fill="#0e384c" d="M16.688 6.929c4.032 0 7.312 3.28 7.312 7.312a.563.563 0 0 1-1.125 0 6.194 6.194 0 0 0-6.187-6.187.563.563 0 0 1 0-1.125"/></svg>