<svg xmlns="http://www.w3.org/2000/svg" width="200" height="172" fill="none" viewBox="0 0 200 172"><path fill="#1e84b5" d="M171.915 114.291c-16.485 10.76-37.552 17.371-60.253 19.071l13.289 37.788 23.728-28.62 36.419 7.468-12.677-36.046zm-143.922 0c-.171-.112-.337-.227-.507-.339l-12.677 36.046 36.419-7.468 23.727 28.62 13.289-37.788c-22.7-1.7-43.767-8.311-60.251-19.071"/><path stroke="#1e84b5" stroke-linecap="round" stroke-linejoin="round" stroke-miterlimit="10" stroke-width="3" d="M99.954 130.275c54.247 0 98.222-28.705 98.222-64.114S154.201 2.047 99.954 2.047 1.732 30.752 1.732 66.161s43.976 64.114 98.222 64.114"/><path stroke="#1e84b5" stroke-linecap="round" stroke-linejoin="round" stroke-miterlimit="10" stroke-width="2" d="M99.954 125.53c51.625 0 93.477-26.58 93.477-59.369S151.579 6.792 99.954 6.792 6.477 33.372 6.477 66.161s41.85 59.369 93.477 59.369"/><path stroke="#1e84b5" stroke-linecap="round" stroke-linejoin="round" stroke-miterlimit="10" d="M99.954 115.531c-45.25 0-83.477-22.608-83.477-49.369s38.227-49.369 83.477-49.369 83.478 22.608 83.478 49.369-38.228 49.369-83.478 49.369"/><path fill="#1e84b5" d="M112.856 101.175c-1.934.109-3.377.52-3.377 1.013s1.443.904 3.377 1.013c.109 1.934.52 3.377 1.013 3.377s.904-1.443 1.013-3.377c1.934-.109 3.377-.52 3.377-1.013s-1.443-.904-3.377-1.013c-.109-1.934-.52-3.377-1.013-3.377-.494 0-.904 1.443-1.013 3.377m-13.135 2.026c1.934-.109 3.377-.52 3.377-1.013s-1.443-.904-3.377-1.013c-.109-1.934-.52-3.377-1.013-3.377s-.904 1.443-1.013 3.377c-1.934.109-3.377.52-3.377 1.013s1.443.904 3.377 1.013c.11 1.934.52 3.377 1.013 3.377s.904-1.443 1.013-3.377m-15.16 0c1.934-.109 3.377-.52 3.377-1.013s-1.443-.904-3.377-1.013c-.109-1.934-.52-3.377-1.013-3.377s-.904 1.443-1.013 3.377c-1.934.109-3.377.52-3.377 1.013s1.443.904 3.377 1.013c.11 1.934.52 3.377 1.013 3.377s.904-1.443 1.013-3.377M8.557 53.696h182.796C182.31 26.925 144.768 6.792 99.955 6.792S17.6 26.925 8.557 53.696"/><path fill="#fff" d="m43.82 32.503-1.556 2.846-2.846 1.556 2.846 1.556 1.556 2.846 1.557-2.846 2.846-1.556-2.846-1.556zm113.284 2.846-1.557-2.846-1.556 2.846-2.846 1.556 2.846 1.556 1.556 2.846 1.557-2.846 2.846-1.556z"/><path fill="#fff" d="M55.222 44.732q2.298-1.666 2.298-5.017v-9.231l-1.762-.421v-.881h5.879v.88l-1.762.422v9.23q0 1.974-1.245 3.563-1.226 1.608-2.738 2.26zm7.45-14.67v-.88h5.878v.88l-1.761.422v7.086q0 1.915.938 2.872.958.958 2.566.958 1.59 0 2.566-.958.977-.975.977-2.872v-7.086l-1.781-.421v-.881h4.902v.88l-1.761.422v7.086q0 1.264-.403 2.26a4.46 4.46 0 0 1-1.091 1.666 4.9 4.9 0 0 1-1.705 1.034 6.4 6.4 0 0 1-2.144.344q-1.188 0-2.184-.344a4.9 4.9 0 0 1-1.723-1.015 4.9 4.9 0 0 1-1.11-1.666q-.403-.996-.403-2.28v-7.085zm15.55 12.525v-.88l1.762-.422V30.484l-1.762-.421v-.881h3.102l7.986 9.48v-8.178l-1.762-.421v-.881h4.922v.88l-1.762.422v12.103H89.56l-8.235-9.71v8.408l1.762.421v.881zm15.747 0v-.88l1.762-.422V30.484l-1.762-.421v-.881h9.977v3.926h-.9l-.823-2.643-4.137-.153v4.921l4.137-.364v1.705l-4.137-.345v5.228l4.501-.153.976-2.853h.9l-.153 4.136zm16.413 0v-1.149l1.647-1.762q.575-.631 1.341-1.608.765-.977 1.34-1.877a11.6 11.6 0 0 0 .977-1.954q.421-1.034.421-1.876 0-1.15-.574-1.839-.556-.69-1.513-.69l-2.26 2.07q-1.033-.768-1.092-2.05 1.858-.957 4.06-.957 1.647 0 2.72.804 1.09.785 1.091 2.336 0 1.11-.536 2.337-.517 1.206-1.494 2.413a30 30 0 0 1-1.781 2.068q-.804.861-1.896 1.877h4.577l1.035-2.069h.842l-.536 3.926zm15.801-13.693q2.337 0 3.696 1.954 1.379 1.934 1.379 5.036 0 3.064-1.379 5.037-1.359 1.953-3.696 1.953t-3.715-1.953q-1.36-1.972-1.36-5.037 0-3.083 1.36-5.036 1.378-1.953 3.715-1.953m0 1.13q-1.245 0-1.934 1.705-.69 1.704-.69 4.155t.69 4.156q.689 1.704 1.934 1.705 1.245 0 1.934-1.705.69-1.704.69-4.156t-.69-4.155q-.689-1.704-1.934-1.705m6.604 12.563v-1.149l1.647-1.762q.575-.631 1.34-1.608.767-.977 1.341-1.877.574-.92.976-1.954.422-1.034.422-1.876 0-1.15-.575-1.839-.555-.69-1.513-.69l-2.259 2.07q-1.035-.768-1.092-2.05 1.858-.957 4.06-.957 1.647 0 2.719.804 1.092.785 1.092 2.336 0 1.11-.536 2.337-.517 1.206-1.494 2.413a30 30 0 0 1-1.781 2.068q-.804.861-1.896 1.877h4.577l1.034-2.069h.843l-.536 3.926zm10.17-.517.422-.9a6 6 0 0 0 2.47.536q1.532 0 2.509-.88.996-.881.996-2.529 0-1.302-.786-2.144-.785-.862-2.336-.862-.67 0-1.819.249l-.422-.25.556-6.108h5.688l.804-.766.766.344-.881 2.26h-5.286l-.287 3.275a8 8 0 0 1 1.973-.249q1.09 0 1.953.383.88.364 1.398.977a4.1 4.1 0 0 1 1.072 2.738q0 2.164-1.589 3.447-1.57 1.283-3.696 1.283-2.145 0-3.466-.785z"/><path fill="#1e84b5" d="M42.697 75.327v-.782l1.562-.373v-9.58l-1.562-.374v-.782h8.85v3.482h-.799l-.73-2.344-3.67-.136v4.366l3.67-.323v1.512l-3.67-.306v4.638l3.992-.136.867-2.531h.798l-.136 3.669zm10.644 0v-.782l1.614-.39.543-9.58-1.495-.357.017-.782h3.635l3.822 8.867 3.856-8.867h3.5v.782l-1.53.356.578 9.598 1.63.373v.782h-5.163v-.782l1.495-.356-.459-8.052-4.026 9.275h-.747l-4.077-9.292-.424 8.069 1.511.356v.782zm21.042-5.572a8 8 0 0 0 1.002.068q.578 0 1.07-.17.51-.17.867-.51a2.3 2.3 0 0 0 .577-.832q.204-.492.204-1.155 0-1.325-.798-1.987-.781-.663-2.056-.663h-.866zm-3.652 5.572v-.782l1.563-.373v-9.58l-1.563-.374v-.782h4.518q4.994 0 4.994 3.72 0 1.886-1.307 2.82-1.292.917-3.415.917a7.4 7.4 0 0 1-1.138-.085v3.364l2.072.373v.782zm10.633 0v-.782l1.563-.373v-9.58l-1.563-.374v-.782h5.215v.782l-1.563.373v9.598h3.992l.917-2.531h.782l-.17 3.669zm16.31-12.146q1.376 0 2.429.46 1.053.458 1.784 1.273a5.4 5.4 0 0 1 1.104 1.954q.373 1.137.373 2.497 0 1.376-.373 2.514a5.4 5.4 0 0 1-1.087 1.97 4.9 4.9 0 0 1-1.784 1.274q-1.053.459-2.446.459-1.478 0-2.565-.493a5 5 0 0 1-1.767-1.325 5.6 5.6 0 0 1-1.036-1.987 9 9 0 0 1-.322-2.447q0-1.273.34-2.378A5.5 5.5 0 0 1 93.358 65a4.7 4.7 0 0 1 1.767-1.325q1.087-.492 2.548-.493m0 1.003q-1.733 0-2.633 1.46-.883 1.445-.883 3.737 0 2.43.934 3.823.951 1.375 2.582 1.375t2.565-1.375q.951-1.394.951-3.822 0-2.294-.9-3.738-.884-1.46-2.616-1.46m5.881.034v-.782h4.892v.782l-1.104.22 2.803 4.128 2.514-4.009-1.257-.34v-.78h4.161v.78l-1.562.374-3.296 5.25v4.33l1.563.374v.782h-5.215v-.782l1.563-.373v-4.28l-3.686-5.335zm12.711 11.109v-.782l1.563-.373v-9.58l-1.563-.374v-.782h8.85v3.482h-.798l-.731-2.344-3.669-.136v4.366l3.669-.323v1.512l-3.669-.306v4.638l3.992-.136.866-2.531h.799l-.136 3.669zm10.882 0v-.782l1.563-.373v-9.58l-1.563-.374v-.782h8.85v3.482h-.798l-.731-2.344-3.669-.136v4.366l3.669-.323v1.512l-3.669-.306v4.638l3.992-.136.866-2.531h.799l-.136 3.669zm20.623-12.146q1.376 0 2.429.46 1.053.458 1.784 1.273a5.4 5.4 0 0 1 1.104 1.954q.373 1.137.373 2.497 0 1.376-.373 2.514A5.4 5.4 0 0 1 152 73.85a4.9 4.9 0 0 1-1.784 1.274q-1.053.459-2.446.459-1.477 0-2.565-.493a5 5 0 0 1-1.767-1.325 5.7 5.7 0 0 1-1.036-1.987 9 9 0 0 1-.323-2.447q0-1.273.34-2.378A5.5 5.5 0 0 1 143.456 65a4.7 4.7 0 0 1 1.767-1.325q1.087-.492 2.548-.493m0 1.003q-1.733 0-2.633 1.46-.883 1.445-.883 3.737 0 2.43.934 3.823.951 1.375 2.582 1.375t2.565-1.375q.951-1.394.951-3.822 0-2.294-.9-3.738-.884-1.46-2.616-1.46m7.08 11.143v-.782l1.562-.373v-9.58l-1.562-.374v-.782h8.765v3.482h-.782l-.713-2.344-3.618-.136v4.349l3.669-.306v1.512l-3.669-.289v4.468l1.902.373v.782zM49.976 84.063v-3.6h10.107v3.6h-.798l-.764-2.463-2.447-.136v9.734l1.563.373v.782h-5.215v-.782l1.563-.373v-9.734l-2.463.136-.747 2.463zm11.369 8.29v-.782l1.563-.373v-9.58l-1.563-.374v-.782h5.215v.782l-1.563.373v4.162h5.249v-4.162l-1.563-.373v-.782h5.215v.782l-1.563.373v9.58l1.563.374v.782h-5.215v-.782l1.563-.373v-4.28h-5.249v4.28l1.563.373v.782zm14.05 0v-.782l1.563-.373v-9.58l-1.563-.374v-.782h8.85v3.483h-.798l-.73-2.345-3.67-.136v4.366l3.67-.323v1.512l-3.67-.306v4.638l3.992-.136.867-2.531h.798l-.136 3.669zm14.576 0v-.782l1.614-.39.543-9.58-1.495-.357.017-.782h3.635l3.823 8.867 3.855-8.867h3.5v.782l-1.529.356.577 9.598 1.631.373v.782h-5.164v-.782l1.495-.356-.459-8.052-4.025 9.275h-.748l-4.077-9.292-.424 8.069 1.512.356v.782zm22.951-12.146q1.376 0 2.429.46 1.053.458 1.783 1.273a5.4 5.4 0 0 1 1.105 1.954q.373 1.137.373 2.496 0 1.377-.373 2.514a5.4 5.4 0 0 1-1.088 1.971 4.9 4.9 0 0 1-1.783 1.274q-1.054.459-2.446.459-1.478 0-2.565-.493a5 5 0 0 1-1.767-1.325 5.6 5.6 0 0 1-1.036-1.987 9 9 0 0 1-.323-2.447q0-1.273.34-2.378a5.5 5.5 0 0 1 1.036-1.953 4.7 4.7 0 0 1 1.767-1.325q1.087-.492 2.548-.493m0 1.003q-1.733 0-2.633 1.46-.883 1.445-.883 3.737 0 2.43.934 3.823.951 1.375 2.582 1.375t2.565-1.376q.951-1.392.951-3.822 0-2.293-.9-3.736-.884-1.461-2.616-1.461m7.08 11.143v-.782l1.562-.373v-9.58l-1.562-.374v-.782h2.751l7.084 8.409v-7.254l-1.563-.373v-.782h4.365v.782l-1.562.373v10.736h-1.019l-7.305-8.612v7.457l1.563.373v.782zm13.729-8.29v-3.6h10.107v3.6h-.798l-.765-2.463-2.446-.136v9.734l1.563.373v.782h-5.215v-.782l1.563-.373v-9.734l-2.463.136-.748 2.463zm11.369 8.29v-.782l1.562-.373v-9.58l-1.562-.374v-.782h5.215v.782l-1.563.373v4.162h5.249v-4.162l-1.563-.373v-.782h5.215v.782l-1.563.373v9.58l1.563.374v.782h-5.215v-.782l1.563-.373v-4.28h-5.249v4.28l1.563.373v.782z"/></svg>