<svg xmlns="http://www.w3.org/2000/svg" width="30" height="30" fill="none" viewBox="0 0 30 30"><path fill="#1e84b5" d="M23.973 3.716A12.6 12.6 0 0 0 15.001 0c-3.39 0-6.576 1.32-8.972 3.716a12.6 12.6 0 0 0-3.716 8.972c0 6.857 6.482 12.56 9.965 15.623.484.426.902.793 1.235 1.104.417.39.953.585 1.488.585s1.07-.195 1.488-.585c.333-.31.751-.678 1.235-1.104 3.483-3.064 9.965-8.766 9.965-15.623 0-3.389-1.32-6.575-3.716-8.972m-7.41 23.275c-.494.436-.921.811-1.274 1.14a.424.424 0 0 1-.577 0c-.352-.329-.779-.705-1.273-1.14-3.275-2.88-9.37-8.241-9.37-14.302 0-6.028 4.904-10.932 10.932-10.932 6.027 0 10.93 4.904 10.93 10.932.001 6.06-6.094 11.422-9.368 14.302"/><path fill="#0e384c" d="M14.998 6.617a5.6 5.6 0 0 0-5.592 5.592 5.6 5.6 0 0 0 5.592 5.591 5.6 5.6 0 0 0 5.592-5.591 5.6 5.6 0 0 0-5.592-5.592m0 9.426a3.84 3.84 0 0 1-3.834-3.834 3.84 3.84 0 0 1 3.834-3.835 3.84 3.84 0 0 1 3.834 3.835 3.84 3.84 0 0 1-3.834 3.834"/></svg>