<svg xmlns="http://www.w3.org/2000/svg" width="48" height="48" fill="none" viewBox="0 0 48 48"><g fill-rule="evenodd" clip-path="url(#a)" clip-rule="evenodd"><path fill="#1e84b5" d="M31.281.85a1.4 1.4 0 0 0-.39.387c-.161.245-.177.447-.177 2.316-.001 2.988-.125 2.864 2.845 2.864 2.967 0 2.845.121 2.845-2.846 0-2.97.124-2.847-2.864-2.842-1.488.002-2.105.035-2.259.12m.809 2.721v1.47h2.937V2.102H32.09zm6.058 2.823c-.626.313-.642.411-.642 4.016s.016 3.703.642 4.016c.288.144.661.16 3.58.16 3.07 0 3.276-.01 3.553-.179.573-.35.578-.386.578-4.015 0-3.134-.009-3.3-.186-3.59-.334-.55-.472-.569-4.01-.568-2.856 0-3.227.017-3.515.16m.827 4.016v2.708h5.507V7.702h-5.507zm-11.475.115c-.634.317-.642.37-.642 4.383s.008 4.066.642 4.383c.29.145.678.16 3.929.161 3.983 0 3.984 0 4.336-.578.17-.278.18-.485.18-3.966 0-3.521-.008-3.684-.186-3.976-.277-.455-.65-.568-1.883-.568-1.056 0-1.069.003-1.334.269-.327.326-.339.558-.047.897.211.245.264.259 1.147.289l.926.031v6.133h-6.242V11.85l.88-.032c.833-.03.892-.046 1.102-.29.291-.338.28-.57-.047-.896-.266-.267-.276-.269-1.354-.268-.85 0-1.156.034-1.407.16m-10.238.241c-.364.161-.795.623-.93.998-.065.178-.112.879-.116 1.733l-.007 1.434-.85.296c-.466.163-1.182.457-1.59.654-.407.197-.8.358-.873.358s-.566-.436-1.095-.97c-.53-.534-1.085-1.035-1.235-1.115-.351-.185-1.122-.185-1.473 0-.326.171-3.826 3.685-3.993 4.009-.161.311-.146 1.1.028 1.429.08.15.58.706 1.115 1.236.533.529.97 1.023.97 1.098s-.162.468-.359.874-.492 1.12-.654 1.586l-.295.85-1.435.006c-1.567.008-1.871.073-2.32.496-.516.488-.537.622-.537 3.459 0 2.451.01 2.611.195 2.992.117.242.343.5.567.649.36.239.417.247 1.91.275 1.045.02 1.566.064 1.624.138.047.06.18.398.295.751s.388 1.03.608 1.505.4.905.4.956c0 .052-.467.573-1.039 1.157-.88.9-1.056 1.13-1.147 1.493-.059.236-.09.484-.07.55.021.068.066.246.099.398.08.368 3.607 3.94 4.132 4.185.818.381 1.323.16 2.614-1.146.53-.536 1.016-.974 1.081-.974.066 0 .376.13.69.29.315.158 1.026.46 1.581.67l1.01.383.046 1.562c.044 1.513.054 1.573.298 1.943.481.726.608.752 3.65.752 2.814 0 2.938-.016 3.428-.447.406-.357.47-.638.518-2.26l.046-1.558.918-.332a17 17 0 0 0 1.582-.667c.364-.185.716-.336.781-.336s.552.438 1.081.974c1.252 1.266 1.657 1.461 2.512 1.21.3-.088.707-.433 1.974-1.675 1.955-1.917 2.275-2.303 2.357-2.855.104-.692-.106-1.062-1.244-2.197-.556-.554-1.01-1.06-1.01-1.126s.15-.417.335-.782.485-1.076.668-1.581l.332-.918 1.558-.046c1.745-.052 1.951-.112 2.403-.704l.257-.337.027-2.78c.026-2.656.018-2.798-.162-3.152a2 2 0 0 0-.571-.623l-.381-.253-2.21-.026c-1.974-.023-2.244-.008-2.525.138-.597.31-.684.534-.726 1.856l-.036 1.182-1.256.032c-1.753.044-1.984.217-2.136 1.601-.47 4.276-3.812 7.449-8.04 7.632-2.146.093-3.889-.421-5.533-1.634-3.286-2.422-4.407-6.878-2.654-10.545.484-1.012 1.021-1.754 1.81-2.498.804-.758 1.287-1.091 2.246-1.55 1.65-.788 3.525-1.012 5.382-.642 1.192.237 1.525.204 1.901-.188l.269-.28.029-1.553.029-1.553-.232-.232c-.295-.295-.69-.303-.958-.018-.183.195-.2.307-.2 1.378v1.166l-.252-.056a10 10 0 0 1-.395-.094 15 15 0 0 0-1.061-.125c-2.89-.275-5.795.786-7.89 2.882a9.947 9.947 0 0 0-.224 13.853c2.5 2.672 6.403 3.778 9.915 2.809.904-.25 2.216-.876 3.067-1.464.783-.542 2.057-1.828 2.544-2.57.817-1.244 1.39-2.703 1.581-4.024l.115-.795 1.326-.046c1.95-.067 2.107-.224 2.107-2.104V26.7l1.858.025 1.86.025.024 2.387c.022 2.162.01 2.397-.132 2.501-.11.08-.585.115-1.572.115-2.036 0-2.227.124-2.822 1.832a17 17 0 0 1-.692 1.67c-.67 1.333-.52 1.832 1.006 3.335.46.453.837.887.837.963 0 .182-3.215 3.4-3.398 3.4-.077 0-.532-.396-1.01-.88-1.48-1.494-1.955-1.635-3.273-.972-.404.203-1.163.518-1.686.7-1.717.598-1.832.78-1.832 2.875 0 1.131-.03 1.49-.127 1.571-.088.074-.825.098-2.5.08l-2.376-.024-.048-1.56c-.064-2.13-.192-2.341-1.753-2.886a21 21 0 0 1-1.73-.713c-.95-.45-1.51-.525-1.994-.269-.142.075-.692.573-1.22 1.107-.53.534-1.038.97-1.13.97-.178 0-3.462-3.24-3.462-3.416 0-.057.471-.585 1.048-1.174 1.44-1.471 1.512-1.773.767-3.252a17 17 0 0 1-.68-1.613c-.33-.932-.494-1.21-.895-1.509-.226-.17-.422-.194-1.857-.235-1.29-.037-1.62-.073-1.69-.184-.094-.15-.123-4.319-.032-4.658.054-.203.084-.207 1.399-.207.739 0 1.508-.046 1.71-.102.597-.164 1.056-.724 1.355-1.653.14-.433.435-1.158.655-1.612.775-1.59.72-1.834-.742-3.34-.571-.588-1.038-1.107-1.038-1.152 0-.11 3.328-3.432 3.438-3.432.047 0 .525.433 1.062.962 1.498 1.476 1.894 1.582 3.286.883a16 16 0 0 1 1.507-.638c1.036-.366 1.282-.497 1.57-.84.352-.417.427-.822.427-2.308 0-1.14.023-1.352.146-1.4.08-.03 1.15-.055 2.38-.055 1.91 0 2.256.02 2.38.144.115.115.144.369.144 1.269 0 1.057.012 1.137.212 1.325.282.264.659.254.94-.026.217-.218.224-.268.223-1.492-.003-1.513-.122-1.883-.742-2.293l-.39-.258-2.715-.022c-2.111-.016-2.777.006-2.993.102m21.336 6.693c-.47.316-.53.615-.536 2.662-.006 1.984.048 2.264.5 2.62.244.192.338.2 2.357.2 2.348 0 2.51-.035 2.77-.584.125-.262.15-.652.15-2.276 0-2.898.068-2.832-2.919-2.832-1.941 0-2.02.007-2.322.21m.927 2.636v1.469h2.846v-2.938h-2.846zm-13.547 1.371c-.105.044-.302.211-.436.371l-.245.291v4.32l.304.303c.395.395.683.435 2.882.397 1.615-.028 1.78-.046 2.017-.223.462-.344.485-.475.487-2.724l.001-2.09-.314-.342-.314-.343-2.095-.02c-1.153-.01-2.182.017-2.287.06m.696 2.76v1.468h2.937v-2.938h-2.938zm-7.87.736c-1.204.394-2.315 1.441-2.79 2.63-.182.455-.214.7-.216 1.643l-.002 1.109.39.786c1.396 2.819 5.003 3.391 7.167 1.137 2.173-2.263 1.479-5.787-1.406-7.137-.565-.264-.736-.299-1.602-.325-.783-.024-1.078.006-1.54.157m.658 1.272c-.88.228-1.714.923-2.09 1.74-.285.62-.28 1.81.013 2.448.264.578.846 1.183 1.44 1.498.403.214.566.243 1.331.245 1.02.001 1.53-.193 2.16-.823s.824-1.14.823-2.16c0-.765-.03-.928-.244-1.334-.296-.562-.956-1.188-1.51-1.433-.449-.199-1.481-.296-1.923-.181"/><path fill="#0e384c" d="M31.281.85a1.4 1.4 0 0 0-.39.387c-.161.245-.177.447-.177 2.316-.001 2.988-.125 2.864 2.845 2.864 2.967 0 2.845.121 2.845-2.846 0-2.97.124-2.847-2.864-2.842-1.488.002-2.105.035-2.259.12m.809 2.721v1.47h2.937V2.102H32.09zm6.058 2.823c-.626.313-.642.411-.642 4.016s.016 3.703.642 4.016c.288.144.661.16 3.58.16 3.07 0 3.276-.01 3.553-.179.573-.35.578-.386.578-4.015 0-3.134-.009-3.3-.186-3.59-.334-.55-.472-.569-4.01-.568-2.856 0-3.227.017-3.515.16m.827 4.016v2.708h5.507V7.702h-5.507zm-11.475.115c-.634.317-.642.37-.642 4.383s.008 4.066.642 4.383c.29.145.678.16 3.929.161 3.983 0 3.984 0 4.336-.578.17-.278.18-.485.18-3.966 0-3.521-.008-3.684-.186-3.976-.277-.455-.65-.568-1.883-.568-1.056 0-1.069.003-1.334.269-.327.326-.339.558-.047.897.211.245.264.259 1.147.289l.926.031v6.133h-6.242V11.85l.88-.032c.833-.03.892-.046 1.102-.29.291-.338.28-.57-.047-.896-.266-.267-.276-.269-1.354-.268-.85 0-1.156.034-1.407.16m11.098 6.934c-.47.316-.53.615-.536 2.662-.006 1.984.048 2.264.5 2.62.244.192.338.2 2.357.2 2.348 0 2.51-.035 2.77-.584.125-.262.15-.652.15-2.276 0-2.898.068-2.832-2.919-2.832-1.941 0-2.02.007-2.322.21m.927 2.636v1.469h2.846v-2.938h-2.846zm-13.547 1.371c-.105.044-.302.211-.436.371l-.245.291v4.32l.304.303c.395.395.683.435 2.882.397 1.615-.028 1.78-.046 2.017-.223.462-.344.485-.475.487-2.724l.001-2.09-.314-.342-.314-.343-2.095-.02c-1.153-.01-2.182.017-2.287.06m.696 2.76v1.468h2.937v-2.938h-2.938z"/></g><defs><clipPath id="a"><path fill="#fff" d="M.236.726h47v47h-47z"/></clipPath></defs></svg>