<svg xmlns="http://www.w3.org/2000/svg" width="40" height="40" fill="none" viewBox="0 0 40 40"><g clip-path="url(#a)"><path fill="#1e84b5" d="M12.5 20H9.167a2.503 2.503 0 0 0-2.5 2.5v3.333c0 1.379 1.121 2.5 2.5 2.5H12.5c1.378 0 2.5-1.121 2.5-2.5V22.5c0-1.378-1.122-2.5-2.5-2.5m.833 5.833c0 .46-.375.834-.833.834H9.167a.835.835 0 0 1-.834-.834V22.5c0-.46.375-.833.834-.833H12.5c.458 0 .833.373.833.833zM32.5 3.333H30v-2.5a.834.834 0 0 0-1.667 0v2.5H11.667v-2.5a.834.834 0 0 0-1.667 0v2.5H7.5c-4.135 0-7.5 3.365-7.5 7.5V32.5C0 36.635 3.365 40 7.5 40h25c4.135 0 7.5-3.365 7.5-7.5V10.833c0-4.135-3.365-7.5-7.5-7.5M7.5 5h25a5.84 5.84 0 0 1 5.833 5.833v2.5H1.667v-2.5A5.84 5.84 0 0 1 7.5 5m25 33.333h-25A5.84 5.84 0 0 1 1.667 32.5V15h36.666v17.5a5.84 5.84 0 0 1-5.833 5.833"/><path fill="#0e384c" d="M12.5 20H9.166a2.503 2.503 0 0 0-2.5 2.5v3.333c0 1.379 1.122 2.5 2.5 2.5H12.5c1.378 0 2.5-1.121 2.5-2.5V22.5c0-1.378-1.122-2.5-2.5-2.5m.833 5.833c0 .46-.375.834-.833.834H9.166a.835.835 0 0 1-.833-.834V22.5c0-.46.375-.833.833-.833H12.5c.458 0 .833.373.833.833z"/></g><defs><clipPath id="a"><path fill="#fff" d="M0 0h40v40H0z"/></clipPath></defs></svg>