<svg xmlns="http://www.w3.org/2000/svg" width="183" height="178" fill="none" viewBox="0 0 183 178"><path stroke="#1e84b5" stroke-linecap="round" stroke-linejoin="round" stroke-miterlimit="10" stroke-width="3" d="m125.134 166.485-30.147 9.354c-2.42.751-5.01.737-7.421-.038l-28.4-9.133c-15.486-4.981-26.023-19.673-26.023-36.288V48.414c0-16.687 10.627-31.425 26.206-36.346l29.27-9.245a12.3 12.3 0 0 1 7.42 0l29.272 9.245c15.579 4.921 26.206 19.659 26.206 36.346v81.67c-.001 16.757-10.715 31.539-26.383 36.401"/><path stroke="#1e84b5" stroke-linecap="round" stroke-linejoin="round" stroke-miterlimit="10" stroke-width="2" d="M91.353 169.979a7 7 0 0 1-2.167-.34l-27.954-8.989c-13.227-4.254-22.113-16.678-22.113-30.915V49.058c0-14.313 8.95-26.756 22.268-30.963l28.81-9.1a7.1 7.1 0 0 1 4.266 0l28.809 9.1c13.319 4.207 22.268 16.65 22.268 30.963v80.386c0 14.388-9.009 26.85-22.418 31.01l-29.672 9.207a7 7 0 0 1-2.097.318"/><path fill="#1e84b5" d="M4.613 115.287.824 134.436h25.352V96.138H.824zm178.254-19.149h-25.353v38.298h25.353l-3.789-19.149z"/><path fill="#1e84b5" d="M167.982 83.248H13.035v42.454h154.947zM56.22 64.555c-.087-1.549-.416-2.705-.811-2.705s-.724 1.156-.811 2.705c-1.55.087-2.705.416-2.705.811s1.156.724 2.705.811c.087 1.549.416 2.705.81 2.705.396 0 .725-1.156.813-2.705 1.549-.087 2.705-.416 2.705-.811s-1.156-.724-2.705-.811m-1.623-10.521c.087 1.549.416 2.705.81 2.705.396 0 .725-1.156.813-2.705 1.549-.087 2.705-.416 2.705-.811s-1.156-.724-2.705-.812c-.087-1.55-.416-2.705-.812-2.705-.395 0-.724 1.156-.811 2.705-1.55.087-2.705.417-2.705.812 0 .394 1.156.723 2.705.81m0-12.143c.087 1.549.416 2.705.81 2.705.396 0 .725-1.156.813-2.705 1.549-.087 2.705-.416 2.705-.811s-1.156-.724-2.705-.812c-.087-1.549-.416-2.705-.812-2.705-.395 0-.724 1.156-.811 2.705-1.55.087-2.705.417-2.705.812s1.156.723 2.705.811m74.097 22.665c-.088-1.549-.416-2.705-.812-2.705-.395 0-.724 1.156-.811 2.705-1.549.087-2.705.416-2.705.811s1.156.724 2.705.811c.087 1.549.416 2.705.811 2.705s.724-1.156.811-2.705c1.549-.087 2.705-.416 2.705-.811.001-.395-1.155-.724-2.704-.811m-1.623-10.521c.087 1.549.416 2.705.811 2.705s.724-1.156.812-2.705c1.549-.087 2.705-.416 2.705-.811s-1.156-.724-2.705-.812c-.087-1.55-.417-2.705-.812-2.705s-.724 1.156-.811 2.705c-1.549.087-2.705.417-2.705.812 0 .394 1.156.723 2.705.81m-.001-12.143c.087 1.549.416 2.705.811 2.705s.724-1.156.811-2.705c1.549-.087 2.705-.416 2.705-.811s-1.156-.724-2.705-.812c-.088-1.549-.416-2.705-.812-2.705-.395 0-.724 1.156-.811 2.705-1.549.087-2.705.417-2.705.812.001.395 1.157.723 2.706.811m-68.394 99.743v-.453l.905-.216v-5.547l-.905-.216v-.452H63.8v2.016h-.462l-.423-1.358-2.125-.078v2.527l2.125-.187v.876l-2.125-.177v2.685l2.312-.079.501-1.465h.462l-.078 2.124zm6.163 0v-.453l.934-.226.314-5.547-.865-.206.01-.452h2.105l2.212 5.133 2.233-5.133h2.026v.452l-.885.206.334 5.557.944.216v.453h-2.99v-.453l.866-.206-.266-4.662-2.33 5.37h-.433l-2.36-5.38-.246 4.672.875.206v.453zm12.182-3.226q.148.02.295.03.148.009.286.009.335 0 .62-.098.294-.099.5-.295.218-.197.335-.482a1.7 1.7 0 0 0 .118-.669q0-.767-.462-1.15-.453-.384-1.19-.384h-.502zm-2.114 3.226v-.453l.905-.216v-5.547l-.905-.216v-.452h2.616q2.891 0 2.891 2.153 0 1.092-.757 1.633-.747.531-1.977.531-.345 0-.659-.049v1.947l1.2.216v.453zm6.156 0v-.453l.905-.216v-5.547l-.905-.216v-.452h3.02v.452l-.905.216v5.557h2.31l.532-1.465h.452l-.098 2.124zm9.443-7.032q.797 0 1.406.266.61.265 1.033.737t.64 1.131.216 1.446a4.6 4.6 0 0 1-.217 1.455q-.206.66-.629 1.141-.413.473-1.033.738-.609.265-1.416.265-.855 0-1.485-.285a2.9 2.9 0 0 1-1.023-.767 3.3 3.3 0 0 1-.6-1.151 5.2 5.2 0 0 1-.186-1.416q0-.738.196-1.377.196-.648.6-1.131.404-.492 1.023-.767.63-.285 1.475-.285m0 .58q-1.004 0-1.524.846-.512.836-.512 2.164 0 1.406.541 2.212.551.798 1.495.797.945 0 1.485-.797.55-.806.551-2.212 0-1.328-.521-2.164-.511-.846-1.515-.846m3.405.02v-.452h2.832v.452l-.639.128 1.623 2.39 1.456-2.321-.728-.197v-.452h2.409v.452l-.905.216-1.907 3.039v2.508l.904.216v.453h-3.019v-.453l.905-.216v-2.478l-2.134-3.088zm7.359 6.432v-.453l.905-.216v-5.547l-.905-.216v-.452h5.124v2.016h-.462l-.423-1.358-2.124-.078v2.527l2.124-.187v.876l-2.124-.177v2.685l2.311-.079.502-1.465h.462l-.079 2.124zm6.301 0v-.453l.905-.216v-5.547l-.905-.216v-.452h5.124v2.016h-.463l-.422-1.358-2.125-.078v2.527l2.125-.187v.876l-2.125-.177v2.685l2.311-.079.502-1.465h.462l-.078 2.124zm11.94-7.032q.797 0 1.406.266.61.265 1.033.737t.639 1.131.216 1.446q0 .797-.216 1.455-.207.66-.629 1.141-.414.473-1.033.738-.61.265-1.416.265-.857 0-1.485-.285a2.9 2.9 0 0 1-1.023-.767 3.3 3.3 0 0 1-.6-1.151 5.2 5.2 0 0 1-.187-1.416q0-.738.197-1.377.197-.648.6-1.131a2.74 2.74 0 0 1 1.023-.767q.629-.285 1.475-.285m0 .58q-1.003 0-1.525.846-.51.836-.511 2.164 0 1.406.541 2.212.55.798 1.495.797.944 0 1.485-.797.55-.806.551-2.212 0-1.328-.522-2.164-.511-.846-1.514-.846m4.099 6.452v-.453l.905-.216v-5.547l-.905-.216v-.452h5.075v2.016h-.453l-.413-1.358-2.095-.078v2.517l2.125-.177v.876l-2.125-.167v2.586l1.102.216v.453zm-60.721 5.059v-2.085h5.852v2.085h-.462l-.442-1.427-1.417-.078v5.635l.905.216v.453h-3.02v-.453l.906-.216v-5.635l-1.426.078-.433 1.427zm6.583 4.799v-.453l.905-.216v-5.547l-.905-.216v-.452h3.02v.452l-.906.216v2.41h3.04v-2.41l-.906-.216v-.452h3.02v.452l-.905.216v5.547l.905.216v.453h-3.02v-.453l.905-.216v-2.478h-3.039v2.478l.905.216v.453zm8.135 0v-.453l.904-.216v-5.547l-.904-.216v-.452h5.123v2.016h-.462l-.423-1.358-2.124-.078v2.527l2.124-.187v.876l-2.124-.177v2.685l2.311-.079.502-1.465h.462l-.079 2.124zm8.438 0v-.453l.935-.226.315-5.547-.866-.206.01-.452h2.105l2.212 5.133 2.233-5.133h2.026v.452l-.885.206.334 5.557.944.216v.453h-2.99v-.453l.866-.206-.266-4.662-2.33 5.37h-.433l-2.36-5.38-.246 4.672.875.206v.453zm13.288-7.032q.797 0 1.407.266.609.265 1.032.737.423.473.64 1.131.216.658.216 1.446 0 .796-.216 1.455-.207.66-.63 1.141a2.8 2.8 0 0 1-1.033.738q-.609.265-1.416.265-.855 0-1.485-.285a2.9 2.9 0 0 1-1.023-.767 3.3 3.3 0 0 1-.6-1.151 5.2 5.2 0 0 1-.186-1.416q0-.737.196-1.377.197-.648.6-1.131.404-.49 1.023-.767.63-.285 1.475-.285m0 .58q-1.003 0-1.524.846-.511.836-.511 2.164 0 1.406.54 2.213.552.796 1.495.796.945 0 1.485-.796.551-.807.551-2.213 0-1.328-.521-2.164-.511-.846-1.515-.846m4.099 6.452v-.453l.905-.216v-5.547l-.905-.216v-.452h1.594l4.101 4.868v-4.2l-.905-.216v-.452h2.527v.452l-.904.216v6.216h-.591l-4.228-4.986v4.317l.904.216v.453zm7.949-4.799v-2.085h5.852v2.085h-.462l-.443-1.427-1.416-.078v5.635l.905.216v.453h-3.019v-.453l.904-.216v-5.635l-1.426.078-.432 1.427zm6.582 4.799v-.453l.905-.216v-5.547l-.905-.216v-.452h3.02v.452l-.905.216v2.41h3.039v-2.41l-.905-.216v-.452h3.019v.452l-.905.216v5.547l.905.216v.453h-3.019v-.453l.905-.216v-2.478h-3.039v2.478l.905.216v.453z"/><path fill="#fff" d="M14.592 112.285v-.84l1.678-.401v-10.289l-1.678-.402v-.839h5.236q4.45 0 4.451 3.102 0 1.003-.602 1.751-.584.748-1.605 1.076v.037q1.496.273 2.298 1.113.82.838.821 2.098 0 1.641-1.222 2.627-1.223.967-3.302.967zm3.922-1.113h1.587q1.332 0 2.062-.639.73-.638.73-1.842 0-1.113-.767-1.788-.748-.675-2.116-.675h-1.496zm0-6.094h1.04q1.058 0 1.733-.602.693-.62.693-1.696 0-1.095-.693-1.624-.675-.53-1.842-.529h-.93zm8.192 7.207v-.84l1.679-.401v-10.289l-1.679-.402v-.839h9.505v3.74h-.857l-.785-2.517-3.94-.146v4.688l3.94-.346v1.623l-3.94-.328v4.98l4.287-.146.93-2.718h.858l-.146 3.941zm11.998-9.852q0-1.514 1.204-2.353 1.205-.84 3.12-.84 2.042 0 3.74.42l-.092 3.503h-.82l-.913-2.627a8.3 8.3 0 0 0-1.55-.146q-1.26 0-1.99.492-.71.493-.71 1.369 0 .747.638 1.259.657.492 2.262 1.167.858.346 1.405.657a8 8 0 0 1 1.204.784q.639.493.949 1.186.328.693.328 1.551 0 1.824-1.35 2.809-1.26.912-3.156.894-.51 0-1.697-.091a12.5 12.5 0 0 1-2.536-.493v-3.593h.84l.93 2.736q.766.237 1.788.237 1.423 0 2.298-.492.876-.511.876-1.588 0-.82-.784-1.423-.785-.601-2.299-1.258-2.08-.894-2.882-1.733-.803-.84-.803-2.427m10.177.949v-3.868h10.855v3.868h-.857l-.821-2.645-2.627-.146v10.453l1.678.401v.84h-5.6v-.84l1.678-.401v-10.453l-2.646.146-.802 2.645zm16.432 8.903v-.84l1.679-.401v-10.289l-1.679-.402v-.839h9.505v3.74h-.857l-.785-2.517-3.94-.146v4.688l3.94-.346v1.623l-3.94-.328v4.98l4.287-.146.93-2.718h.858l-.146 3.941zm11.432 0v-.84l1.733-.419.584-10.289-1.605-.384.018-.839h3.904l4.105 9.523 4.141-9.523h3.758v.839l-1.642.384.62 10.307 1.752.401v.84h-5.546v-.84l1.605-.383-.492-8.647-4.324 9.961h-.803l-4.378-9.979-.456 8.665 1.624.383v.84zm22.6-5.984q.273.036.547.055.273.018.529.018.62 0 1.149-.183.547-.182.931-.547.4-.364.62-.894t.219-1.24q0-1.424-.858-2.135-.839-.711-2.207-.711h-.93zm-3.923 5.984v-.84l1.678-.401v-10.289l-1.678-.402v-.839h4.853q5.363 0 5.363 3.996 0 2.025-1.404 3.028-1.387.985-3.667.985a8 8 0 0 1-1.222-.091v3.612l2.225.401v.84zm11.42 0v-.84l1.678-.401v-10.289l-1.678-.402v-.839h5.601v.839l-1.679.402v10.307h4.288l.985-2.718h.839l-.182 3.941zm17.517-13.044q1.477 0 2.609.492a5.5 5.5 0 0 1 1.915 1.368q.784.877 1.186 2.098.401 1.222.401 2.682 0 1.477-.401 2.7a5.8 5.8 0 0 1-1.168 2.116 5.25 5.25 0 0 1-1.915 1.369q-1.131.492-2.627.492-1.588 0-2.755-.529-1.15-.53-1.897-1.423a6 6 0 0 1-1.113-2.134 9.6 9.6 0 0 1-.347-2.627q0-1.369.365-2.554a5.9 5.9 0 0 1 1.113-2.098 5.1 5.1 0 0 1 1.897-1.423q1.168-.53 2.737-.53m0 1.076q-1.861 0-2.828 1.569-.948 1.551-.949 4.013 0 2.61 1.004 4.105 1.021 1.478 2.773 1.478 1.751 0 2.755-1.478 1.021-1.495 1.021-4.105 0-2.462-.967-4.013-.948-1.569-2.809-1.569m6.316.036v-.839h5.254v.839l-1.186.238 3.01 4.433 2.7-4.306-1.35-.365v-.839h4.47v.839l-1.678.402-3.54 5.637v4.652l1.679.401v.84h-5.601v-.84l1.678-.401v-4.597l-3.958-5.729zm13.652 11.932v-.84l1.678-.401v-10.289l-1.678-.402v-.839h9.504v3.74h-.857l-.785-2.517-3.94-.146v4.688l3.94-.346v1.623l-3.94-.328v4.98l4.287-.146.931-2.718h.857l-.146 3.941zm11.687 0v-.84l1.678-.401v-10.289l-1.678-.402v-.839h9.505v3.74h-.858l-.784-2.517-3.941-.146v4.688l3.941-.346v1.623l-3.941-.328v4.98l4.287-.146.931-2.718h.857l-.146 3.941z"/><path fill="#1e84b5" d="M69.346 58.617V55.28h4.85l1.877-9.96h-5.371v-3.338h6.049l1.877-10.168h3.442l-1.93 10.168h6.988l1.93-10.168H92.5l-1.982 10.168h4.85v3.338h-5.424l-1.93 9.96h5.946v3.337h-6.57L85.46 69.1h-3.39L84 58.617h-6.988L75.03 69.1h-3.39l1.982-10.482zm8.24-3.337h7.04l1.929-9.96h-7.092zM99.01 38.384l11.003-5.788h2.451v33.27l4.433.99V69.1h-16.792v-2.242l5.997-1.043V37.863l-6.258 2.66z"/></svg>