<svg xmlns="http://www.w3.org/2000/svg" width="183" height="182" fill="none" viewBox="0 0 183 182"><path fill="#1e84b5" d="M30.262 124.149a69.9 69.9 0 0 1-9.35-34.977c0-38.789 31.557-70.347 70.347-70.347s70.347 31.558 70.347 70.347a69.9 69.9 0 0 1-9.351 34.977q1.589.238 3.179.489a72.9 72.9 0 0 0 9.173-35.466c0-40.443-32.903-73.347-73.347-73.347S17.912 48.728 17.912 89.172a72.9 72.9 0 0 0 9.173 35.466q1.59-.251 3.177-.489"/><path fill="#1e84b5" d="M91.26 22.806c-36.594 0-66.366 29.772-66.366 66.365a65.97 65.97 0 0 0 9.608 34.361q1.09-.153 2.18-.299a63.96 63.96 0 0 1-9.788-34.062c0-35.491 28.875-64.365 64.366-64.365s64.364 28.874 64.364 64.365a63.96 63.96 0 0 1-9.788 34.061 544 544 0 0 1 2.181.299 65.97 65.97 0 0 0 9.607-34.361c0-36.592-29.771-66.364-66.364-66.364"/><path fill="#1e84b5" d="M15.4 164.719a6.42 6.42 0 0 0 4.696 4.82c47.68-8.339 94.644-8.339 142.325 0a6.41 6.41 0 0 0 4.696-4.819l6.718-30.053c.793-3.546-1.517-7.037-5.086-7.715-51.968-9.879-103.01-9.879-154.98 0-3.57.678-5.879 4.169-5.086 7.715z"/><path stroke="#fff" stroke-miterlimit="10" d="M164.605 133.341c-48.987-8.825-97.194-8.856-146.175-.093m141.276 27.882c-45.635-7.683-90.636-7.718-136.265-.106"/><path fill="#1e84b5" d="M45.48 169.128a379 379 0 0 0-22.118 3.45c-.569.107-1.15.16-1.727.16-4.356 0-8.21-3.098-9.164-7.365l-5.918-26.476-.359.065c-3.572.679-5.884 4.168-5.09 7.716q3.357 15.026 6.717 30.053c.753 3.368 4.035 5.542 7.427 4.908a378 378 0 0 1 25.396-3.858 5.99 5.99 0 0 0 5.147-7.26zm92.133 0a379 379 0 0 1 22.117 3.45c.569.107 1.15.16 1.727.16 4.357 0 8.211-3.098 9.164-7.365l5.918-26.476.359.065c3.572.679 5.884 4.168 5.091 7.716l-6.718 30.053c-.753 3.368-4.035 5.542-7.427 4.908a378 378 0 0 0-25.396-3.858 5.99 5.99 0 0 1-5.148-7.26q.158-.697.313-1.393M106.661 48.34c-2.107.119-3.679.567-3.679 1.104s1.572.984 3.679 1.103c.119 2.107.566 3.679 1.104 3.679.537 0 .984-1.573 1.103-3.68 2.107-.119 3.679-.567 3.679-1.104s-1.572-.985-3.679-1.103c-.119-2.107-.566-3.68-1.103-3.679-.538 0-.985 1.572-1.104 3.68m-14.305 2.209c2.107-.119 3.679-.567 3.679-1.104s-1.572-.985-3.68-1.103c-.118-2.107-.565-3.679-1.102-3.679s-.984 1.572-1.103 3.68c-2.107.119-3.68.567-3.68 1.104s1.573.984 3.68 1.103c.119 2.107.566 3.679 1.103 3.679.536 0 .984-1.572 1.103-3.68m-16.514.003c2.107-.119 3.679-.567 3.679-1.104s-1.572-.985-3.679-1.103c-.119-2.107-.566-3.68-1.103-3.679-.537 0-.985 1.573-1.103 3.68-2.107.119-3.679.567-3.679 1.104s1.572.984 3.679 1.103c.119 2.107.566 3.679 1.104 3.679s.983-1.573 1.102-3.68m62.367 9.884H44.297v18.703h93.912zM91.665 39.022c13.678 0 24.767-8.674 24.767-19.373S105.343.276 91.665.276c-13.68 0-24.769 8.674-24.769 19.373s11.09 19.373 24.769 19.373m-44.728 50.57 2.916 5.333 5.334 2.917-5.334 2.918-2.916 5.333-2.918-5.333-5.334-2.918 5.334-2.917zm88.036 0 2.918 5.333 5.333 2.917-5.333 2.918-2.918 5.333-2.917-5.333-5.333-2.918 5.333-2.917z"/><path fill="#fff" d="m20.846 153.234-.155-.814c.63-.282.946-.422 1.577-.701l-1.86-9.996c-.708-.03-1.062-.044-1.77-.071l-.156-.814c2.123-.405 3.186-.6 5.313-.975 3.013-.531 4.69.239 5.02 2.256a2.66 2.66 0 0 1-.317 1.806q-.475.829-1.443 1.32l.006.036q1.543.013 2.49.7.941.687 1.14 1.915c.172 1.068-.095 1.984-.793 2.75q-1.046 1.148-3.088 1.501c-2.39.415-3.582.633-5.964 1.087m2.587-7.721 1.041-.186q1.057-.187 1.642-.9t.406-1.761q-.18-1.067-.96-1.463-.784-.397-1.965-.188l-.942.168c.31 1.732.466 2.598.778 4.33m1.065 5.926c.625-.112.938-.168 1.564-.278q1.31-.228 1.926-.973t.42-1.918q-.182-1.084-1.048-1.615-.868-.53-2.234-.291c-.597.105-.896.158-1.493.265zm7.352-.132-.132-.819c.637-.262.956-.393 1.596-.653l-1.558-10.048c-.706-.051-1.059-.076-1.766-.124l-.13-.819c3.868-.618 5.806-.902 9.686-1.42l.49 3.664-.867.117c-.452-.95-.679-1.425-1.136-2.374-1.61.164-2.416.25-4.026.432l.685 4.601c1.562-.371 2.344-.553 3.911-.907l.22 1.589c-1.596.09-2.395.139-3.992.245l.728 4.886c1.686-.309 2.53-.459 4.22-.749.221-1.122.333-1.684.56-2.806l.854-.114.367 3.88c-3.89.516-5.833.8-9.71 1.419m9.684-11.235q-.194-1.484.93-2.464 1.125-.978 3.085-1.211 2.092-.245 3.871-.017l.277 3.451-.832.09c-.483-.992-.726-1.487-1.214-2.477a8.6 8.6 0 0 0-1.598.037q-1.285.151-1.959.724t-.568 1.432q.092.734.807 1.145.716.41 2.413.884.903.24 1.497.473t1.289.646q.694.415 1.087 1.062.392.648.481 1.49c.126 1.196-.226 2.165-1.046 2.904-.764.689-1.779 1.091-3.022 1.232q-.504.058-1.678.111a13 13 0 0 1-2.574-.168l-.455-3.523.837-.107c.508 1.026.76 1.539 1.263 2.567q.788.138 1.799.017 1.409-.167 2.222-.757.813-.592.697-1.647-.09-.807-.94-1.31c-.567-.335-1.383-.662-2.446-.969-1.458-.42-2.498-.862-3.107-1.343q-.914-.715-1.116-2.272m9.496-.164c-.157-1.521-.236-2.281-.395-3.802 4.442-.462 6.666-.661 11.117-.993l.285 3.812-.87.066a508 508 0 0 0-1.041-2.559c-1.078.027-1.618.043-2.697.078l.89 10.311c.68.1 1.02.151 1.7.255l.069.826c-2.22.182-3.33.281-5.548.496l-.08-.825c.65-.222.977-.333 1.63-.552l-.952-10.305c-1.075.157-1.613.238-2.687.403a497 497 0 0 0-.552 2.701c-.346.034-.52.052-.868.088M66.4 147.44l-.052-.827c.657-.201.986-.301 1.645-.5l-.61-10.15-1.742-.29-.053-.827c3.9-.252 5.85-.353 9.752-.506l.144 3.693-.872.035c-.36-.988-.542-1.482-.906-2.47a321 321 0 0 0-4.04.052l.252 4.645c1.586-.223 2.379-.33 3.969-.537l.07 1.603a294 294 0 0 0-3.988-.13l.267 4.932c1.703-.15 2.555-.219 4.26-.35.325-1.097.489-1.645.819-2.741l.86-.034c0 1.559 0 2.338.002 3.897-3.913.152-5.867.252-9.776.505m10.444-.527-.03-.828a272 272 0 0 1 1.71-.473c.103-4.079.158-6.12.274-10.199-.66-.129-.993-.193-1.655-.32l-.01-.818c1.603-.055 2.406-.078 4.008-.117a422 422 0 0 1 4.337 9.333 425 425 0 0 1 4.13-9.442c1.544-.003 2.316 0 3.86.012-.004.327-.004.49-.007.817-.675.144-1.011.216-1.684.363.237 4.083.353 6.124.578 10.207.697.162 1.046.245 1.742.41l-.009.829a297 297 0 0 0-5.507-.015l-.004-.829c.638-.154.957-.231 1.596-.383-.197-3.425-.298-5.138-.504-8.563a427 427 0 0 0-4.277 9.893l-.798.011a417 417 0 0 0-4.614-9.783 2736 2736 0 0 0-.222 8.591c.651.133.978.2 1.626.336l.02.829c-1.823.045-2.734.072-4.56.139m17.647-.221.01-.829c.67-.151 1.005-.226 1.676-.374l.161-10.167c-.685-.17-1.028-.254-1.714-.421l.01-.829c1.992.023 2.99.04 4.982.089 3.671.089 5.456 1.489 5.354 4.119-.052 1.333-.563 2.308-1.523 2.93q-1.438.93-3.73.872a8 8 0 0 1-1.227-.12c-.03 1.428-.047 2.142-.078 3.569.884.178 1.325.268 2.207.451l-.023.829a311 311 0 0 0-6.105-.119m4.023-5.847a9 9 0 0 0 1.085.097q.626.015 1.173-.15.548-.165.955-.513.408-.348.646-.863.238-.516.261-1.219.047-1.406-.798-2.135-.846-.73-2.248-.765l-.953-.022zm6.409 6.112.033-.828a296 296 0 0 1 1.688-.326l.447-10.158c-.68-.189-1.02-.283-1.702-.469l.033-.828c2.299.091 3.449.145 5.747.27l-.045.828c-.696.121-1.044.183-1.739.307l-.51 10.192c1.707.085 2.561.133 4.267.238.459-1.056.689-1.583 1.154-2.638l.841.055c-.177 1.549-.264 2.324-.439 3.874-3.91-.26-5.864-.363-9.775-.517m17.546-11.828q1.516.128 2.63.72a5.5 5.5 0 0 1 1.83 1.529 5.6 5.6 0 0 1 1.003 2.181q.287 1.244.142 2.678-.148 1.454-.659 2.615a5.9 5.9 0 0 1-1.368 1.959 5.4 5.4 0 0 1-2.028 1.176q-1.175.381-2.654.256-1.571-.131-2.679-.74a5.3 5.3 0 0 1-1.791-1.553 5.8 5.8 0 0 1-.955-2.172 9.2 9.2 0 0 1-.181-2.615 8.4 8.4 0 0 1 .541-2.502 5.8 5.8 0 0 1 1.278-1.989q.827-.836 2.053-1.258c.82-.278 1.765-.376 2.838-.285m-.089 1.059c-1.268-.107-2.271.331-3 1.306s-1.149 2.273-1.269 3.891q-.189 2.57.711 4.112.896 1.541 2.633 1.686c1.16.098 2.116-.309 2.878-1.222q1.145-1.37 1.388-3.935.231-2.424-.601-4.049c-.556-1.082-1.472-1.682-2.74-1.789m5.515.541.081-.825c2.151.212 3.226.326 5.375.569l-.093.824c-.494.038-.742.058-1.236.098a326 326 0 0 1 2.555 4.7 336 336 0 0 1 3.248-3.89c-.532-.212-.798-.318-1.331-.528l.1-.823c1.827.222 2.739.339 4.564.583l-.11.822c-.705.066-1.057.1-1.761.169a337 337 0 0 0-4.265 5.083l-.546 4.565c.647.237.969.356 1.614.596l-.102.823c-2.213-.275-3.32-.404-5.535-.645l.09-.824a307 307 0 0 1 1.708-.209l.512-4.515a331 331 0 0 0-3.398-6.06c-.586-.207-.88-.31-1.47-.513"/><path fill="#fff" d="m139.324 149.923.11-.822c.685-.069 1.028-.102 1.714-.167l1.39-10.072c-.661-.252-.992-.377-1.655-.626l.11-.822c3.88.518 5.818.801 9.687 1.418l-.582 3.65-.865-.137c-.161-1.04-.242-1.56-.407-2.6a336 336 0 0 0-3.982-.742l-.664 4.604c1.603.092 2.404.143 4.008.253l-.246 1.586a319 319 0 0 0-3.896-.91l-.705 4.889c1.704.188 2.555.286 4.258.494.534-1.012.802-1.517 1.342-2.527l.853.136c-.306 1.529-.458 2.293-.762 3.822a307 307 0 0 0-9.708-1.427m10.625 1.575.133-.818c.688-.049 1.032-.072 1.72-.117l1.681-10.028c-.654-.271-.982-.406-1.638-.674l.133-.818c3.868.63 5.799.971 9.653 1.701l-.688 3.632-.861-.162a478 478 0 0 0-.333-2.611 337 337 0 0 0-3.963-.858l-.797 4.583c1.601.139 2.402.213 4.003.37l-.292 1.578a319 319 0 0 0-3.872-1.024l-.846 4.867c1.7.237 2.549.361 4.247.618.564-.996.847-1.493 1.415-2.487l.85.161-.873 3.798a303 303 0 0 0-9.672-1.711"/><path fill="#1e84b5" d="M72.519 82.78q1.175 0 2.075.393.9.392 1.524 1.088t.943 1.67.32 2.133q0 1.176-.32 2.148a4.6 4.6 0 0 1-.929 1.684 4.2 4.2 0 0 1-1.523 1.088q-.9.392-2.09.392-1.263 0-2.192-.42a4.25 4.25 0 0 1-1.51-1.133 4.8 4.8 0 0 1-.885-1.698 7.6 7.6 0 0 1-.276-2.09q0-1.089.29-2.032a4.7 4.7 0 0 1 .886-1.67q.595-.725 1.51-1.131.928-.42 2.177-.421m0 .857q-1.481 0-2.25 1.248-.755 1.234-.755 3.194 0 2.075.798 3.265.813 1.176 2.207 1.176 1.392 0 2.191-1.176.813-1.19.813-3.265 0-1.96-.77-3.194-.754-1.248-2.234-1.248m6.049 9.521v-.667l1.335-.32v-8.186l-1.335-.319V83h7.49v2.975h-.669l-.61-2.003-3.09-.116v3.715l3.134-.26V88.6l-3.135-.247v3.817l1.626.32v.667zm11.717-7.082V83h8.636v3.077h-.682l-.654-2.105-2.09-.116v8.316l1.336.32v.667h-4.456v-.667l1.335-.32v-8.316l-2.104.116-.639 2.105zm9.714 7.082v-.667l1.335-.32v-8.186l-1.335-.319V83h4.456v.667l-1.336.32v3.555h4.485v-3.555l-1.335-.32V83h4.456v.667l-1.336.32v8.185l1.336.32v.667h-4.456v-.667l1.335-.32v-3.657h-4.485v3.657l1.336.32v.667zm12.005 0v-.667l1.335-.32v-8.186l-1.335-.319V83h7.562v2.975h-.682l-.624-2.003-3.135-.116v3.73l3.135-.276v1.292l-3.135-.261v3.962l3.41-.116.741-2.163h.682l-.116 3.135zm-47.701 14.547v-.667l1.379-.334.464-8.186-1.277-.305.014-.667h3.106l3.266 7.576 3.295-7.576h2.99v.667l-1.307.305.494 8.2 1.393.32v.667h-4.412v-.667l1.277-.305-.392-6.88-3.44 7.925h-.638l-3.484-7.94-.363 6.895 1.292.305v.667zm19.61-10.377q1.175 0 2.075.392t1.524 1.088.944 1.669.32 2.134q0 1.176-.32 2.148a4.6 4.6 0 0 1-.93 1.684 4.2 4.2 0 0 1-1.523 1.088q-.9.393-2.09.392-1.263 0-2.192-.421a4.25 4.25 0 0 1-1.51-1.132 4.8 4.8 0 0 1-.885-1.698 7.6 7.6 0 0 1-.275-2.09q0-1.089.29-2.032a4.7 4.7 0 0 1 .885-1.67q.595-.725 1.51-1.131.929-.42 2.177-.421m0 .856q-1.48 0-2.25 1.248-.755 1.234-.755 3.193 0 2.076.799 3.266.813 1.176 2.206 1.176t2.192-1.176q.812-1.19.812-3.266 0-1.959-.769-3.193-.755-1.248-2.235-1.248m6.05 9.521v-.667l1.335-.32v-8.185l-1.336-.32v-.667h2.352l6.052 7.184v-6.197l-1.335-.32v-.667h3.73v.667l-1.336.32v9.172h-.87l-6.242-7.358v6.371l1.336.32v.667zm11.73-7.082v-3.077h8.636v3.077h-.682l-.653-2.105-2.09-.116v8.316l1.335.32v.667h-4.456v-.667l1.336-.32v-8.316l-2.105.116-.638 2.105zm9.714 7.082v-.667l1.336-.32v-8.185l-1.336-.32v-.667h4.456v.667l-1.335.32v3.555h4.485v-3.555l-1.336-.32v-.667h4.456v.667l-1.335.32v8.185l1.335.32v.667h-4.456v-.667l1.336-.32v-3.657h-4.485v3.657l1.335.32v.667z"/><path fill="#fff" d="M54.044 74.633v-.67l1.34-.321v-8.218l-1.34-.321v-.67h7.591v2.987h-.685l-.626-2.011-3.148-.117v3.745l3.148-.277v1.297l-3.148-.262v3.978l3.424-.117.744-2.17h.684l-.116 3.147zm9.13 0v-.67l1.384-.336.467-8.218-1.283-.306.015-.67h3.118l3.279 7.606 3.307-7.606h3.002v.67l-1.311.306.495 8.233 1.399.32v.67h-4.43v-.67l1.283-.306-.394-6.907-3.453 7.956h-.641l-3.498-7.97-.364 6.921 1.297.306v.67zm18.05-4.78a7 7 0 0 0 .86.059 2.8 2.8 0 0 0 .918-.146 2 2 0 0 0 .743-.437q.322-.292.496-.714.174-.423.174-.991 0-1.137-.684-1.705-.67-.568-1.763-.568h-.743zm-3.132 4.78v-.67l1.34-.321v-8.218l-1.34-.321v-.67h3.876q4.283 0 4.283 3.19 0 1.619-1.122 2.42-1.107.786-2.928.786-.51 0-.976-.072v2.885l1.777.32v.67zm9.12 0v-.67l1.341-.321v-8.218l-1.34-.321v-.67h4.473v.67l-1.34.32v8.233h3.424l.787-2.17h.67l-.146 3.147zm13.992-10.419q1.18 0 2.083.394a4.35 4.35 0 0 1 1.53 1.092q.627.7.947 1.676.321.977.321 2.142 0 1.18-.321 2.157a4.6 4.6 0 0 1-.932 1.69q-.612.699-1.53 1.093-.904.393-2.098.393-1.269 0-2.2-.422a4.3 4.3 0 0 1-1.516-1.137 4.8 4.8 0 0 1-.889-1.705 7.7 7.7 0 0 1-.277-2.098q0-1.094.292-2.04.291-.962.888-1.676a4.05 4.05 0 0 1 1.516-1.136q.933-.423 2.186-.423m0 .86q-1.486 0-2.259 1.253-.758 1.238-.758 3.206 0 2.084.802 3.278.816 1.18 2.215 1.18 1.398 0 2.2-1.18.816-1.195.816-3.278 0-1.967-.772-3.206-.759-1.253-2.244-1.253m5.044.029v-.67h4.197v.67l-.947.19 2.404 3.54 2.156-3.439-1.078-.291v-.67h3.57v.67l-1.34.32-2.827 4.503v3.716l1.34.32v.67h-4.473v-.67l1.341-.32V69.97l-3.162-4.576zm10.904 9.53v-.67l1.341-.321v-8.218l-1.341-.321v-.67h7.592v2.987h-.685l-.627-2.011-3.147-.117v3.745l3.147-.277v1.297l-3.147-.262v3.978l3.424-.117.743-2.17h.685l-.116 3.147zm9.335 0v-.67l1.34-.321v-8.218l-1.34-.321v-.67h7.591v2.987h-.684l-.627-2.011-3.147-.117v3.745l3.147-.277v1.297l-3.147-.262v3.978l3.424-.117.743-2.17h.685l-.117 3.147zM80.82 22.736v-1.64h2.383l.923-4.896h-2.64v-1.64h2.973l.923-4.998h1.691l-.948 4.998h3.434l.949-4.998h1.691l-.974 4.998h2.384v1.64h-2.666l-.948 4.896h2.922v1.64h-3.23l-.948 5.152h-1.666l.949-5.152h-3.435l-.974 5.152h-1.666l.974-5.152zm4.05-1.64h3.46l.947-4.896h-3.485zm10.529-8.304 5.408-2.845h1.204v16.352l2.179.486v1.103h-8.253v-1.103l2.948-.512V12.535l-3.076 1.307z"/></svg>