<svg xmlns="http://www.w3.org/2000/svg" width="47" height="48" fill="none" viewBox="0 0 47 48"><g fill-rule="evenodd" clip-path="url(#a)" clip-rule="evenodd"><path fill="#0e384c" d="M21.205 2.472c-5.506.974-9.85 5.355-10.786 10.876-.099.583-.154 1.403-.151 2.249.006 2.179.38 3.783 1.344 5.752 1.833 3.747 5.154 6.314 9.318 7.201.788.168 1.256.205 2.57.205 1.742 0 2.8-.161 4.223-.644 4.605-1.563 8-5.546 8.866-10.402.194-1.083.19-3.206-.007-4.361-.828-4.851-4.311-8.901-8.964-10.424-1.94-.635-4.402-.808-6.413-.452m.316 1.334c-4.884.821-8.859 4.771-9.732 9.671-.204 1.147-.186 3.133.04 4.277.954 4.834 4.568 8.448 9.468 9.468 1.086.226 3.34.227 4.406.002 3.802-.802 6.797-3.1 8.516-6.532.333-.666.768-2.005.953-2.938.227-1.143.245-3.126.04-4.277-.642-3.591-2.95-6.74-6.208-8.473-.986-.524-2.457-1.017-3.576-1.199-1.053-.17-2.89-.17-3.908.001m.327 1.742c-1.336.21-3.538 1.107-3.97 1.618-.36.424-.069 1.087.477 1.087.15 0 .483-.125.742-.277 3.997-2.357 9.228-1.091 11.763 2.847 1.731 2.689 1.83 6.215.25 9.001-.433.764-.449 1.115-.064 1.4.203.152.303.17.55.1s.375-.212.695-.773a9.93 9.93 0 0 0 1.307-4.98c0-2.716-.93-5.064-2.777-7.008-2.31-2.432-5.615-3.542-8.973-3.015m1.193 3.256c-.139.139-.184.306-.184.687 0 .473-.015.506-.252.563-1.13.272-1.946 1.329-2.023 2.618-.072 1.204.385 1.9 1.711 2.603l.518.276.025 2.054.025 2.055-.392-.062c-.216-.035-.608-.185-.873-.334-.264-.149-.584-.27-.71-.27-.549 0-.81.78-.392 1.17.326.304 1.125.668 1.747.794l.57.116.028.517c.023.429.068.549.265.704.306.241.512.236.81-.021.198-.17.251-.312.294-.78.04-.453.084-.573.205-.573.327 0 1.122-.496 1.556-.97.614-.673.866-1.335.87-2.289.004-.872-.188-1.378-.757-1.996-.358-.388-1.08-.814-1.599-.945l-.249-.062v-1.642c0-.904.028-1.643.062-1.643s.28.124.55.275c.267.152.584.276.702.276.329 0 .633-.378.598-.744-.039-.396-.62-.85-1.37-1.07-.51-.15-.541-.176-.542-.444 0-.403-.174-.851-.37-.957-.27-.144-.625-.104-.823.094m-7.719.757c-.739 1.015-1.292 2.19-1.667 3.54-.168.604-.197.952-.197 2.404 0 1.547.021 1.778.241 2.59a10.26 10.26 0 0 0 2.688 4.618c3.246 3.24 8.322 3.877 12.268 1.537 1.196-.709 1.468-1.092 1.113-1.57-.306-.41-.65-.373-1.463.16-2.083 1.368-4.52 1.773-6.963 1.157-3.01-.758-5.31-2.992-6.26-6.08-.226-.738-.248-.937-.251-2.366-.003-1.358.023-1.655.205-2.285a9.7 9.7 0 0 1 1.216-2.632c.232-.341.394-.686.394-.837 0-.381-.269-.626-.687-.626-.309 0-.388.048-.637.39m7.124 2.104c-.14.11-.31.335-.38.502-.148.353-.166.981-.036 1.225.084.156.636.553.77.553.031 0 .057-.558.057-1.24s-.035-1.24-.08-1.24c-.043 0-.192.09-.332.2m1.788 6.186c0 1.337.025 1.69.115 1.639.738-.417 1.113-1.015 1.118-1.782.003-.37-.052-.596-.206-.845-.201-.325-.705-.715-.923-.715-.073 0-.104.496-.104 1.703m-22.86 7.8c-.49.152-.97.59-1.202 1.1-.159.346-.168.823-.17 8.582 0 5.456.031 8.332.095 8.563.12.434.559.94 1.015 1.173.315.16.551.178 2.375.178 2.205 0 2.456-.045 2.97-.532.407-.387.545-.74.603-1.542l.054-.742 3.878 1.734c4.075 1.822 4.577 1.996 5.789 1.999.368 0 3.24-.248 6.38-.553 11.104-1.078 10.529-1 11.721-1.606.329-.167 2.993-1.868 5.92-3.78 5.684-3.714 5.805-3.808 6.04-4.69.094-.348.12.278.16 3.845.032 2.954.047 1.699.047-4.093 0-5.173-.019-6.973-.05-4.727-.026 1.994-.058 3.543-.07 3.442-.045-.364-.465-1.108-.813-1.438-.636-.602-1.067-.765-2.022-.765h-.84l-4.3 2.131c-4.316 2.139-5.048 2.444-6.544 2.728-1.23.233-1.168.261-1.218-.568-.09-1.517-1.187-2.93-2.726-3.516-.358-.136-1.566-.31-4.45-.642-2.177-.25-4.252-.519-4.61-.596-.741-.16-1.512-.509-2.943-1.336-2.545-1.47-4.385-1.976-7.536-2.073l-1.859-.057v-.356c0-.803-.63-1.635-1.415-1.868-.617-.184-3.678-.18-4.278.006m.245 1.427-.242.19v8.097c0 7.18.016 8.12.143 8.301.14.2.184.204 2.014.204s1.875-.004 2.014-.204c.12-.17.143-.547.143-2.253v-2.05l.226-.224c.287-.288.639-.288.926 0 .203.203.225.3.225.992v.767l4.041 1.809c2.223.995 4.276 1.87 4.563 1.945a5.3 5.3 0 0 0 1.11.136c.716 0 15.576-1.434 16.219-1.565.252-.051.686-.187.964-.302s2.93-1.792 5.896-3.728c5.091-3.324 5.403-3.542 5.588-3.926.352-.728.057-1.632-.652-2-.653-.337-.794-.285-5.205 1.907-5.475 2.72-6 2.885-10.045 3.14-10.144.642-9.56.616-9.81.43-.363-.27-.365-.921-.003-1.114.098-.053 2.235-.22 4.749-.372s4.746-.298 4.96-.326l.39-.05v-.437c0-.643-.238-1.235-.71-1.759-.772-.86-.838-.877-5.206-1.38-2.123-.244-4.122-.489-4.442-.544-.908-.155-1.967-.583-3.27-1.32-1.595-.904-1.97-1.086-2.922-1.422-1.406-.495-2.4-.658-4.402-.718l-1.813-.054v7.379l-.225.225c-.124.124-.332.225-.463.225s-.34-.101-.463-.225l-.226-.225v-9.289l-.225-.225c-.223-.223-.243-.225-1.915-.225-1.571 0-1.707.013-1.932.19M.044 35.38c0 4.595.011 6.46.025 4.147.013-2.314.013-6.073 0-8.354-.014-2.28-.025-.387-.025 4.207"/><path fill="#1e84b5" d="M21.205 2.472c-5.506.974-9.85 5.355-10.786 10.876-.099.583-.154 1.403-.151 2.249.006 2.179.38 3.783 1.344 5.752 1.832 3.747 5.154 6.314 9.318 7.201.788.168 1.256.205 2.57.205 1.742 0 2.8-.161 4.223-.644 4.605-1.563 8-5.546 8.866-10.402.194-1.083.19-3.206-.007-4.361-.828-4.851-4.312-8.901-8.964-10.424-1.94-.635-4.402-.808-6.413-.452m.315 1.334c-4.884.821-8.858 4.771-9.731 9.671-.205 1.147-.186 3.133.04 4.277.954 4.834 4.568 8.448 9.468 9.468 1.086.226 3.34.227 4.406.002 3.802-.802 6.797-3.1 8.516-6.532.333-.666.767-2.005.953-2.938.227-1.143.245-3.126.04-4.277-.643-3.591-2.95-6.74-6.208-8.473-.986-.524-2.457-1.017-3.577-1.199-1.052-.17-2.889-.17-3.907.001m.328 1.742c-1.336.21-3.538 1.107-3.97 1.618-.36.424-.069 1.087.477 1.087.15 0 .483-.125.742-.277 3.997-2.357 9.228-1.091 11.763 2.847 1.731 2.689 1.83 6.215.25 9.001-.433.764-.449 1.115-.064 1.4.203.152.303.17.55.1s.375-.212.695-.773a9.93 9.93 0 0 0 1.306-4.98c0-2.716-.93-5.064-2.776-7.008-2.31-2.432-5.615-3.542-8.974-3.015m1.193 3.256c-.14.139-.184.306-.184.687 0 .473-.015.506-.252.563-1.13.272-1.946 1.329-2.023 2.618-.072 1.204.385 1.9 1.71 2.603l.52.276.024 2.054.025 2.055-.392-.062c-.216-.035-.608-.185-.873-.334-.264-.149-.584-.27-.711-.27-.548 0-.809.78-.392 1.17.327.304 1.126.668 1.748.794l.57.116.028.517c.023.429.068.549.265.704.306.241.512.236.81-.021.198-.17.251-.312.294-.78.04-.453.084-.573.205-.573.327 0 1.122-.496 1.556-.97.614-.673.866-1.335.87-2.289.004-.872-.188-1.378-.757-1.996-.358-.388-1.08-.814-1.6-.945l-.248-.062v-1.642c0-.904.028-1.643.062-1.643.033 0 .28.124.549.275.268.152.585.276.703.276.329 0 .633-.378.598-.744-.039-.396-.62-.85-1.37-1.07-.51-.15-.541-.176-.542-.444 0-.403-.174-.851-.37-.957-.27-.144-.625-.104-.823.094m-7.719.757c-.739 1.015-1.292 2.19-1.667 3.54-.168.604-.197.952-.197 2.404 0 1.547.021 1.778.241 2.59a10.26 10.26 0 0 0 2.688 4.618 10.115 10.115 0 0 0 12.268 1.537c1.196-.709 1.468-1.092 1.113-1.57-.306-.41-.65-.373-1.463.16-2.083 1.368-4.52 1.773-6.963 1.157-3.01-.758-5.31-2.992-6.26-6.08-.226-.738-.248-.937-.251-2.366-.004-1.358.023-1.655.205-2.285a9.7 9.7 0 0 1 1.216-2.632c.232-.341.394-.686.394-.837 0-.381-.269-.626-.687-.626-.309 0-.388.048-.637.39m7.123 2.104c-.139.11-.31.335-.38.502-.147.353-.165.981-.035 1.225.083.156.636.553.77.553.031 0 .057-.558.057-1.24s-.035-1.24-.08-1.24c-.043 0-.192.09-.332.2m1.79 6.186c0 1.337.024 1.69.114 1.639.738-.417 1.113-1.015 1.118-1.782.003-.37-.053-.596-.206-.845-.201-.325-.705-.715-.923-.715-.073 0-.104.496-.104 1.703"/></g><defs><clipPath id="a"><path fill="#fff" d="M0 .726h47v47H0z"/></clipPath></defs></svg>