<svg xmlns="http://www.w3.org/2000/svg" width="48" height="48" fill="none" viewBox="0 0 48 48"><g fill-rule="evenodd" clip-path="url(#a)" clip-rule="evenodd"><path fill="#0e384c" d="M3.893.853C2.363 1.226 1.07 2.559.74 4.103c-.072.335-.104 2.33-.103 6.38.001 6.41.016 6.62.519 7.499.326.57 1.085 1.335 1.642 1.655.758.436 1.376.55 2.995.55H7.24l1.678 2.226 1.678 2.226.385.028.386.028 1.68-2.25 1.68-2.25 14.599-.005c15.965-.004 15.162.022 16.106-.53 1.023-.599 1.953-1.872 2.085-2.855.028-.21.087-.382.13-.382.045 0 .08-2.702.079-6.082 0-3.345-.036-6.026-.079-5.96q-.078.124-.127-.251c-.135-1.003-1.092-2.315-2.067-2.835-1.137-.606-.017-.57-17.39-.57-15.647 0-15.77.002-15.953.184-.216.216-.243.71-.053.97.128.174.425.178 16.087.223l15.957.046.526.258c.577.284 1.048.773 1.374 1.428l.212.426v12.392l-.258.525a3.02 3.02 0 0 1-1.591 1.446c-.494.185-.643.186-15.314.186H14.235l-.26.222c-.143.122-.858 1.03-1.59 2.016-.733.987-1.358 1.785-1.391 1.775s-.676-.845-1.429-1.855-1.445-1.898-1.538-1.974c-.132-.109-.566-.147-2.06-.185-1.824-.045-1.906-.055-2.355-.29a3.3 3.3 0 0 1-1.358-1.441c-.195-.42-.197-.486-.197-6.621V4.26l.256-.52a3.07 3.07 0 0 1 1.431-1.395c.394-.182.616-.2 3.071-.243C9.3 2.06 9.47 2.046 9.592 1.878c.201-.274.162-.723-.082-.953-.208-.195-.267-.2-2.685-.192C5.219.738 4.19.78 3.893.853M.678 10.456c0 3.358.011 4.73.025 3.052s.014-4.426 0-6.104C.69 5.725.678 7.099.678 10.456m9.73-5.03c-.162.127-.471.652-.833 1.414-.317.666-.61 1.233-.652 1.259s-.654.134-1.36.24c-1.503.226-1.75.31-1.93.657-.305.59-.192.8 1.07 2.01l1.006.965-.233 1.28c-.306 1.687-.302 1.84.053 2.171.442.413.716.363 2.163-.394l1.262-.66 1.29.663c.708.365 1.384.662 1.5.66.485-.006.93-.426.933-.88.002-.153-.102-.856-.229-1.56l-.23-1.28 1.005-.964c1.243-1.191 1.355-1.396 1.09-1.976-.166-.367-.48-.477-1.983-.699l-1.383-.204-.578-1.232c-.355-.758-.678-1.317-.839-1.452a.87.87 0 0 0-1.122-.018m13.222-.034c-.21.128-.428.483-.905 1.469-.345.715-.662 1.3-.704 1.3-.428 0-2.756.414-2.92.519-.269.173-.481.667-.412.958.029.122.527.702 1.107 1.289l1.055 1.067-.24 1.428c-.262 1.558-.247 1.736.178 2.07.401.316.703.248 2.073-.47l1.273-.665 1.271.666c1.433.75 1.696.8 2.132.41.357-.319.364-.493.085-2.158l-.213-1.266 1.07-1.083c1.027-1.04 1.07-1.1 1.07-1.472 0-.622-.317-.871-1.287-1.01l-1.452-.21-.674-.098-.654-1.327c-.49-.994-.718-1.359-.905-1.456-.337-.174-.618-.162-.948.04m13.145.017c-.154.121-.512.711-.896 1.477-.35.701-.675 1.275-.72 1.275-.163 0-2.63.375-2.792.425-.242.073-.52.58-.523.952-.002.291.1.42 1.093 1.378l1.096 1.057-.221 1.238c-.295 1.65-.29 1.873.046 2.21.416.415.693.365 2.169-.392l1.29-.661 1.254.66c1.302.685 1.553.751 1.987.527.495-.256.527-.538.247-2.148l-.25-1.436 1.006-.964c1.278-1.225 1.394-1.447 1.055-2.02-.215-.365-.404-.428-1.945-.655l-1.364-.202-.633-1.276c-.348-.701-.701-1.338-.786-1.415-.27-.245-.821-.26-1.113-.03M10.449 8.184c-.258.518-.558 1.01-.666 1.096-.123.096-.61.217-1.278.315l-1.08.16.828.843c.938.957.924.91.69 2.245-.213 1.205-.268 1.164.81.594.534-.282 1.066-.502 1.217-.5.147 0 .69.224 1.208.497 1.067.561 1.013.601.803-.591-.235-1.335-.25-1.288.69-2.245l.827-.844-1.08-.16c-.667-.097-1.155-.218-1.277-.314-.11-.085-.409-.578-.667-1.096-.257-.518-.488-.94-.512-.94s-.255.422-.513.94m13.158.02c-.263.527-.575 1.023-.694 1.101s-.7.21-1.293.295l-1.076.153.822.833c.452.459.847.919.878 1.022.03.104-.027.641-.127 1.194s-.183 1.04-.184 1.081c-.001.043.434-.154.967-.436s1.082-.512 1.22-.512.697.23 1.243.514l.993.514-.052-.262c-.239-1.183-.34-1.925-.289-2.126.033-.131.418-.576.857-.992.438-.414.776-.774.75-.799-.024-.024-.498-.112-1.052-.194s-1.102-.211-1.219-.288-.426-.57-.689-1.099c-.263-.528-.5-.96-.527-.96s-.265.432-.528.96m13.198-.048c-.252.502-.544.993-.65 1.092-.14.13-.49.223-1.293.342l-1.1.162.788.793c.94.944.962 1.02.71 2.412-.098.543-.17.987-.159.987.01 0 .45-.226.975-.503.526-.276 1.076-.504 1.224-.505.151 0 .678.218 1.216.505.56.3.949.46.949.39 0-.064-.063-.467-.138-.896-.247-1.401-.255-1.375.69-2.338l.828-.845-1.073-.153c-.59-.084-1.168-.215-1.284-.29-.118-.078-.415-.566-.672-1.102-.253-.53-.48-.964-.506-.964s-.253.41-.505.913M9.501 27.173C3.495 28.049-.54 34.019.943 39.838a10.47 10.47 0 0 0 5.2 6.68c1.343.723 3.274 1.206 4.819 1.206 4.535 0 8.64-3.096 9.909-7.471 1.378-4.757-.876-9.875-5.32-12.078-1.89-.937-4.046-1.294-6.05-1.002m16.355.911a2.5 2.5 0 0 0-.76.273c-1.485.919-1.373 3.48.185 4.212l.417.196 10.172-.024 10.173-.024.442-.276c.307-.191.528-.429.727-.78.253-.448.285-.587.285-1.24 0-.65-.032-.79-.284-1.238-.372-.662-.986-1.05-1.791-1.134-.816-.086-19.045-.053-19.566.035m-16.433.503c-1.247.237-2.55.768-3.556 1.45-.61.414-1.707 1.498-2.169 2.142-.564.788-1.185 2.142-1.428 3.114-.293 1.172-.29 3.042.006 4.24.233.942.946 2.448 1.52 3.21l.36.478.244-.626a6.95 6.95 0 0 1 1.608-2.454c.608-.609 1.934-1.503 2.23-1.503.068 0-.072-.217-.311-.482a6 6 0 0 1-.766-1.17c-.317-.662-.33-.728-.33-1.699 0-.976.011-1.034.34-1.724 1.277-2.674 4.653-3.275 6.735-1.2.92.916 1.37 2.295 1.155 3.547-.143.835-.538 1.653-1.064 2.202-.23.24-.42.453-.42.472 0 .02.122.078.27.13.343.119 1.21.673 1.728 1.104.78.647 1.573 1.86 2.099 3.207.078.2.098.188.44-.27a8.945 8.945 0 0 0-.67-11.485 8.9 8.9 0 0 0-4.228-2.517c-1.12-.29-2.762-.361-3.793-.166m16.777.84c-.833.186-1.123 1.132-.529 1.726l.233.233h19.725l.268-.269c.381-.38.381-.98 0-1.405l-.267-.3-9.623-.013c-5.293-.008-9.706.005-9.807.027m-16.157 3.225c-2.355.815-2.523 4.056-.268 5.166.657.324 1.732.312 2.38-.026 1-.522 1.556-1.418 1.555-2.505-.003-1.92-1.865-3.258-3.667-2.635m15.866 2.409c-.538.107-.865.295-1.242.713-.407.45-.57.916-.57 1.624 0 .712.163 1.174.576 1.633.685.76-.198.704 11.146.706 11.002.002 10.358.034 11.007-.537.977-.857.968-2.736-.017-3.626-.475-.43-.904-.55-1.987-.556-1.098-.007-1.318.107-1.318.682 0 .514.18.613 1.196.664.481.023.966.092 1.078.151.247.133.48.56.48.883 0 .31-.23.75-.454.87-.118.063-3.438.094-10 .094H25.98l-.247-.212c-.188-.162-.256-.319-.29-.665q-.079-.834.691-1.047c.22-.06 2.91-.095 7.61-.095h7.27l.143-.204a.76.76 0 0 0-.033-.91l-.175-.217-7.33-.014c-4.03-.008-7.5.02-7.711.063M9.734 39.605c-2.07.45-3.833 2.194-4.257 4.213l-.11.528.319.266c.533.446 2.27 1.259 3.118 1.459 1.627.384 3.264.333 4.807-.15.834-.26 2.139-.913 2.629-1.315l.321-.264-.161-.626c-.267-1.033-.678-1.74-1.49-2.565-.572-.58-.892-.82-1.44-1.082-1.213-.579-2.48-.736-3.736-.464m16.145 2.437c-.94.186-1.638 1.02-1.721 2.05-.09 1.129.346 2.003 1.198 2.4.447.208.577.222 2.1.223 1.576 0 1.63-.006 1.768-.203a.76.76 0 0 0-.032-.91c-.17-.21-.227-.218-1.676-.246-1.46-.029-1.506-.035-1.744-.262a1 1 0 0 1-.207-1.181c.085-.179.242-.375.348-.436.15-.086 2.473-.112 10.002-.112h9.807l.268.3c.354.397.374.989.046 1.37l-.221.258-6.975.046c-6.696.044-6.983.053-7.169.22-.25.227-.263.79-.023 1.007.156.14.744.151 7.328.128l7.158-.024.442-.276c1.464-.912 1.357-3.387-.18-4.172l-.46-.234-9.822-.014c-5.472-.008-10.005.022-10.235.068"/><path fill="#1e84b5" d="M3.894.853C2.364 1.226 1.07 2.559.74 4.103c-.071.335-.103 2.33-.102 6.38.001 6.41.016 6.62.519 7.499.326.57 1.085 1.335 1.642 1.655.758.436 1.376.55 2.995.55H7.24l1.678 2.226 1.677 2.226.386.028.386.028 1.68-2.25 1.68-2.25 14.599-.005c15.965-.004 15.162.022 16.106-.53 1.023-.599 1.953-1.872 2.085-2.855.028-.21.087-.382.13-.382.045 0 .08-2.702.079-6.082-.001-3.345-.036-6.026-.079-5.96q-.078.124-.127-.251c-.135-1.003-1.092-2.315-2.068-2.835-1.136-.606-.016-.57-17.389-.57-15.647 0-15.77.002-15.953.184-.216.216-.243.71-.053.97.127.174.425.178 16.087.223l15.957.046.526.258c.577.284 1.048.773 1.374 1.428l.212.426v12.392l-.258.525a3.02 3.02 0 0 1-1.591 1.446c-.494.185-.643.186-15.314.186H14.235l-.26.222c-.142.122-.858 1.03-1.59 2.016-.732.987-1.357 1.785-1.39 1.775s-.676-.845-1.429-1.855-1.445-1.898-1.538-1.974c-.133-.109-.567-.147-2.06-.185-1.824-.045-1.907-.055-2.355-.29-.555-.292-1.09-.859-1.359-1.441-.194-.42-.196-.486-.196-6.621V4.26l.255-.52a3.07 3.07 0 0 1 1.432-1.395c.394-.182.616-.2 3.071-.243 2.485-.043 2.655-.056 2.777-.224.2-.274.162-.723-.082-.953-.208-.195-.268-.2-2.685-.192C5.22.738 4.192.78 3.894.853M.68 10.456c0 3.358.011 4.73.025 3.052s.014-4.426 0-6.104C.69 5.725.68 7.099.68 10.456m9.73-5.03c-.162.127-.471.652-.833 1.414-.317.666-.61 1.233-.652 1.259s-.654.134-1.36.24c-1.503.226-1.75.31-1.93.657-.305.59-.192.8 1.07 2.01l1.006.965-.233 1.28c-.306 1.687-.302 1.84.053 2.171.442.413.716.363 2.163-.394l1.262-.66 1.29.663c.708.365 1.384.662 1.5.66.485-.006.93-.426.933-.88.001-.153-.102-.856-.229-1.56l-.23-1.28 1.005-.964c1.243-1.191 1.355-1.396 1.09-1.976-.166-.367-.48-.477-1.983-.699l-1.384-.204-.577-1.232c-.355-.758-.678-1.317-.839-1.452a.87.87 0 0 0-1.122-.018m13.222-.034c-.21.128-.428.483-.905 1.469-.345.715-.662 1.3-.704 1.3-.429 0-2.757.414-2.92.519-.269.173-.481.667-.412.958.028.122.527.702 1.107 1.289l1.055 1.067-.24 1.428c-.263 1.558-.247 1.736.178 2.07.401.316.703.248 2.073-.47l1.272-.665 1.272.666c1.433.75 1.696.8 2.132.41.357-.319.364-.493.084-2.158l-.212-1.266 1.07-1.083c1.027-1.04 1.07-1.1 1.07-1.472 0-.622-.317-.871-1.287-1.01l-1.452-.21-.674-.098-.655-1.327c-.49-.994-.717-1.359-.905-1.456-.336-.174-.617-.162-.947.04m13.145.017c-.154.121-.512.711-.896 1.477-.351.701-.675 1.275-.72 1.275-.163 0-2.63.375-2.792.425-.242.073-.52.58-.523.952-.002.291.1.42 1.093 1.378l1.095 1.057-.22 1.238c-.295 1.65-.29 1.873.046 2.21.416.415.693.365 2.169-.392l1.289-.661 1.255.66c1.302.685 1.553.751 1.987.527.495-.256.527-.538.247-2.148l-.25-1.436 1.006-.964c1.278-1.225 1.394-1.447 1.055-2.02-.215-.365-.404-.428-1.945-.655l-1.365-.202-.632-1.276c-.348-.701-.701-1.338-.786-1.415-.27-.245-.821-.26-1.113-.03M10.45 8.184c-.258.518-.558 1.01-.666 1.096-.123.096-.61.217-1.278.315l-1.08.16.828.843c.938.957.924.91.689 2.245-.212 1.205-.267 1.164.811.594.533-.282 1.066-.502 1.216-.5.148 0 .691.224 1.209.497 1.067.561 1.013.601.803-.591-.235-1.335-.25-1.288.69-2.245l.826-.844-1.08-.16c-.666-.097-1.154-.218-1.276-.314-.11-.085-.41-.578-.667-1.096s-.488-.94-.512-.94-.255.422-.513.94m13.158.02c-.263.527-.575 1.023-.694 1.101s-.7.21-1.293.295l-1.077.153.823.833c.452.459.847.919.878 1.022.03.104-.027.641-.127 1.194s-.184 1.04-.184 1.081c-.001.043.434-.154.967-.436s1.082-.512 1.22-.512.697.23 1.243.514l.993.514-.053-.262c-.238-1.183-.338-1.925-.288-2.126.033-.131.418-.576.857-.992.438-.414.776-.774.75-.799-.025-.024-.498-.112-1.052-.194s-1.102-.211-1.219-.288-.427-.57-.69-1.099c-.262-.528-.5-.96-.527-.96s-.265.432-.527.96m13.198-.048c-.252.502-.544.993-.65 1.092-.14.13-.49.223-1.293.342l-1.1.162.788.793c.94.944.962 1.02.71 2.412-.098.543-.17.987-.16.987.012 0 .45-.226.976-.503.526-.276 1.076-.504 1.224-.505.151 0 .678.218 1.216.505.56.3.948.46.948.39 0-.064-.062-.467-.137-.896-.247-1.401-.255-1.375.69-2.338l.828-.845-1.073-.153c-.59-.084-1.168-.215-1.285-.29-.117-.078-.414-.566-.67-1.102-.254-.53-.482-.964-.508-.964-.025 0-.252.41-.504.913"/></g><defs><clipPath id="a"><path fill="#fff" d="M.635.726h47v47h-47z"/></clipPath></defs></svg>