<svg xmlns="http://www.w3.org/2000/svg" width="40" height="41" fill="none" viewBox="0 0 40 41"><g fill-rule="evenodd" clip-path="url(#a)" clip-rule="evenodd"><path fill="#1e84b5" d="M13.976 4.228a3.29 3.29 0 0 0-2.332 2.465c-.069.316-.086 1.615-.063 4.883.033 4.877.023 4.757.526 5.867.428.944 1.38 2.078 2.092 2.495.14.082.254.167.254.19s-.237.125-.527.225c-3.291 1.141-5.927 3.833-7.057 7.206-.413 1.232-.545 2.067-.595 3.763l-.045 1.543h-.423c-.344 0-.458-.035-.614-.192L5 32.482V11.999l.192-.192.192-.192h4.545l.192-.192a.59.59 0 0 0 0-.866l-.192-.192h-2.28c-1.561 0-2.38.03-2.6.095-.455.134-1.084.776-1.209 1.233-.074.272-.09 2.704-.073 10.762l.022 10.41H.384l-.203.203c-.189.188-.2.238-.159.725.108 1.278.867 2.327 1.953 2.695.341.116 1.94.127 18.015.127 14.856 0 17.699-.017 18.003-.109.791-.238 1.631-1.135 1.843-1.97.054-.21.13-.443.17-.517.077-.145.103-.898.028-.824-.024.024-.128-.04-.23-.143-.186-.186-.198-.187-1.89-.187H36.21l.021-6.056.022-6.057-.194-.193a.59.59 0 0 0-.868-.002l-.192.192v11.733l-.192.191-.191.192H28.77l-.044-1.66c-.06-2.29-.345-3.542-1.197-5.243-1.3-2.598-3.763-4.75-6.417-5.608-.311-.1-.566-.202-.566-.225 0-.024.114-.11.254-.191.713-.417 1.664-1.551 2.092-2.495.505-1.113.493-.982.524-5.93.025-4.01.014-4.567-.1-4.961-.346-1.203-1.163-2.016-2.34-2.33-.543-.146-6.472-.14-7.001.006m.105 1.267c-.446.158-.987.712-1.143 1.171-.1.292-.126.71-.126 2.033v1.666h9.384l-.024-1.777c-.027-1.998-.058-2.131-.629-2.686-.54-.523-.65-.538-4.076-.53-2.509.004-3.112.026-3.385.123m2.986 1a.62.62 0 0 0-.192.468c0 .265-.012.277-.277.277-.358 0-.66.287-.66.625 0 .339.302.625.66.625.265 0 .277.012.277.277 0 .358.286.66.625.66s.625-.302.625-.66c0-.265.012-.277.277-.277.358 0 .66-.286.66-.625 0-.338-.302-.625-.66-.625-.265 0-.277-.012-.277-.277 0-.358-.286-.66-.625-.66a.63.63 0 0 0-.433.191m10.45.218c-.345.111-.901.612-1.081.974-.134.27-.15.578-.192 3.538-.043 3.013-.058 3.286-.217 3.867-.34 1.24-.895 2.12-1.685 2.67-.508.355-.654.624-.518.952.051.124.18.264.286.313.28.127 14.148.125 14.573-.003.429-.128.916-.575 1.132-1.037l.183-.395V8.139l-.183-.395c-.216-.462-.703-.91-1.132-1.038-.403-.12-10.788-.114-11.166.007m.182 1.336-.184.185-.037 3.155c-.033 2.821-.053 3.226-.195 3.82-.205.858-.507 1.605-.884 2.19l-.302.466h12.27l.191-.192.192-.191V8.249l-.192-.192-.191-.192H27.884zm2.493 2.508a.63.63 0 0 0-.192.433c0 .152.07.313.192.433l.192.192h5.483l.191-.192a.63.63 0 0 0 .192-.433.63.63 0 0 0-.192-.433l-.191-.192h-5.483zm-17.38 2.999c0 1.677.022 2.022.155 2.544.23.896.57 1.48 1.288 2.201.727.732 1.41 1.116 2.358 1.327 2.206.49 4.596-.957 5.358-3.246.154-.462.173-.708.199-2.638l.029-2.129h-9.386zm17.38.751a.63.63 0 0 0-.192.433c0 .152.07.313.192.433l.192.192h4.233l.191-.192A.63.63 0 0 0 35 14.74a.63.63 0 0 0-.192-.433l-.191-.192h-4.233zm-13.708 6.73c-.107.02-.429.072-.714.117l-.52.082-.241.54c-.196.438-.79 2.27-.79 2.435 0 .024.097.067.215.097.595.146 1.27.778 1.603 1.5.167.362.175.483.198 2.896l.025 2.518-.197.197c-.173.173-.263.196-.75.196-.485 0-.579-.024-.746-.192a.59.59 0 0 1 0-.866c.105-.105.246-.192.312-.192.106 0 .12-.237.12-1.894-.002-1.675-.02-1.931-.147-2.207-.439-.952-1.72-1.2-2.498-.485-.434.399-.475.634-.477 2.692-.002 1.657.013 1.894.119 1.894.066 0 .207.087.312.192a.59.59 0 0 1 0 .866c-.167.168-.261.192-.745.192-.488 0-.578-.023-.751-.196l-.197-.197.025-2.518c.023-2.398.032-2.536.195-2.888.357-.774.902-1.271 1.683-1.537.359-.122.413-.17.496-.443l.342-1.115c.137-.445.23-.826.209-.848s-.324.112-.671.297c-1.865.994-3.473 2.702-4.412 4.687-.688 1.454-.98 2.893-.982 4.817v1.191h20.024l-.045-1.504c-.065-2.215-.335-3.373-1.158-4.98a10.2 10.2 0 0 0-2.031-2.683c-.617-.573-1.686-1.353-1.757-1.282-.02.02.05.388.154.82.104.43.231 1.043.282 1.36.094.578.094.579.42.714.81.334 1.3 1.047 1.36 1.972.031.49.008.621-.18 1.041-.81 1.806-3.319 1.831-4.178.042-.255-.532-.261-1.325-.014-1.867.217-.478.706-.99 1.122-1.179.31-.14.311-.14.261-.496-.094-.67-.427-1.95-.672-2.587-.282-.73-.322-.758-1.47-1.02-.651-.15-2.671-.264-3.134-.18m5.46 5.475c-.466.289-.617.852-.364 1.352.143.282.25.381.549.503.367.15.374.15.738 0 .243-.1.419-.24.519-.411.291-.499.125-1.218-.337-1.457-.298-.154-.846-.148-1.106.013M.023 33.646c0 .237.014.333.032.215a1.7 1.7 0 0 0 0-.43c-.018-.118-.033-.02-.033.215m1.304.538c0 .156.526.837.773 1.003l.266.178h17.61c19.202 0 17.795.034 18.237-.442.185-.2.458-.655.458-.765 0-.023-8.402-.043-18.672-.043-10.81 0-18.672.03-18.672.07"/><path fill="#0e384c" d="M27.517 6.714c-.345.11-.901.61-1.081.973-.134.27-.15.578-.192 3.538-.043 3.013-.058 3.286-.217 3.867-.34 1.24-.895 2.12-1.685 2.671-.508.354-.654.623-.518.951.051.124.18.265.287.313.279.127 14.147.125 14.572-.002.429-.129.916-.576 1.132-1.038l.184-.395V8.139l-.184-.395c-.215-.462-.703-.91-1.132-1.038-.403-.12-10.788-.114-11.166.008m.182 1.336-.184.184-.037 3.156c-.032 2.82-.053 3.225-.195 3.82-.205.857-.507 1.604-.884 2.188l-.302.467h12.27l.191-.191.192-.192V8.249l-.192-.192-.191-.192H27.884zm2.493 2.507a.63.63 0 0 0-.192.433c0 .152.07.313.192.434l.192.191h5.483l.191-.191a.63.63 0 0 0 .192-.434.63.63 0 0 0-.192-.433l-.191-.192h-5.483zm0 3.75a.63.63 0 0 0-.192.433c0 .152.07.313.192.434l.192.191h4.233l.191-.191A.63.63 0 0 0 35 14.74a.63.63 0 0 0-.192-.433l-.191-.192h-4.233z"/></g><defs><clipPath id="a"><path fill="#fff" d="M0 .365h40v40H0z"/></clipPath></defs></svg>