<svg xmlns="http://www.w3.org/2000/svg" width="56" height="56" fill="none" viewBox="0 0 56 56"><path fill="#1e84b5" fill-rule="evenodd" d="M18.21.644c-2.115.062-2.338.087-2.819.324-1.173.578-1.719 2.074-1.185 3.249.11.243.462.67.78.95l.58.506-.072 1.317c-.043.817-.22 2.054-.464 3.26-.456 2.25-.457 2.911-.003 3.686.555.946 1.55 1.254 2.746.847l.656-.223.383.37c.21.205.566.448.79.541.8.333 2.136.136 2.985-.44l.416-.282.775.364c.689.323.881.364 1.706.364.85 0 .984-.031 1.566-.361l.637-.36.211.268c.117.148.467.397.78.552 1.012.505 2.217.344 3.118-.417.284-.24.392-.274.566-.181.118.063.463.168.767.233.986.211 2.057-.283 2.503-1.156.237-.465.258-1.271.074-2.964-.2-1.862-.168-3.637.088-4.743.113-.485.19-.61.41-.672.15-.042 1.183-.08 2.296-.085 5.848-.024 16.59-.269 16.843-.383.208-.094.282-.22.307-.526.064-.76.126-.753-4.959-.634-2.464.058-11.241.157-19.505.22-16.75.13-15.388.184-15.727-.63-.14-.331-.142-.448-.019-.772.08-.21.285-.485.454-.612.306-.228.376-.23 6.399-.23 3.906 0 7.246.058 9.316.164 4.545.23 23.44.18 23.816-.064.294-.191.34-.816.077-1.035-.136-.112-2.155-.136-10.144-.118-7.29.017-11.05-.02-13.968-.14C26.426.63 21.22.557 18.21.645M17.05 5.76c-.144.039-.186.295-.24 1.491a18 18 0 0 1-.406 3.03c-.187.872-.348 1.874-.359 2.226-.017.58.01.665.293.908.35.302.68.282 1.403-.085.224-.113.59-.205.814-.205.35 0 .48.079.912.545.31.336.63.57.834.611.47.094 1.186-.127 1.819-.562.306-.211.68-.375.855-.375.171 0 .662.184 1.092.408.639.333.898.409 1.41.409.546 0 .705-.054 1.22-.409.866-.596 1.255-.57 2.003.138.89.842 1.474.866 2.31.096.61-.562 1.129-.658 1.779-.326.588.3 1.157.3 1.457 0 .215-.215.226-.31.164-1.34-.173-2.85-.195-4.453-.075-5.358.07-.523.155-1.025.19-1.116.054-.143-.172-.16-1.727-.134l-1.79.03-.034 1.094c-.018.602.03 1.512.107 2.023.078.512.128 1.029.114 1.149-.055.435-.655.64-1.042.355-.3-.22-.527-1.608-.527-3.226v-1.45h-3.231l-.105 1.546c-.096 1.417-.126 1.562-.358 1.75-.334.27-.514.258-.828-.056-.247-.247-.258-.315-.21-1.34.028-.593.069-1.264.091-1.49l.04-.41h-3.15l-.002.848c-.002.818-.244 2.856-.381 3.214-.037.096-.187.23-.334.296-.326.149-.777-.02-.875-.327-.035-.11.017-.826.115-1.589.104-.8.149-1.61.107-1.914l-.073-.527-1.603.012c-.881.007-1.682.034-1.778.06M7.799 9.746c-1.337.514-2.439 2.08-2.439 3.469 0 .934.265 1.477 1.097 2.247 2.197 2.034 5.062 1.002 5.593-2.015.133-.755-.01-1.744-.347-2.397-.681-1.322-2.382-1.89-3.904-1.304m.326 1.36c-.835.417-1.453 1.34-1.453 2.171 0 .882 1.414 2 2.392 1.893.625-.068.984-.35 1.365-1.072.281-.533.307-.67.265-1.421-.035-.637-.104-.913-.292-1.178-.512-.718-1.338-.86-2.277-.392m32.113 1.07c-.662.247-1.054.598-1.355 1.213-.923 1.886.477 4.367 2.461 4.363 1.486-.003 2.946-1.373 2.95-2.768.003-1.003-.838-2.161-1.914-2.637-.63-.279-1.64-.36-2.142-.171m.063 1.527c-.862.741-.082 2.701 1.076 2.703.713 0 1.548-.756 1.548-1.402 0-1.15-1.776-2.03-2.624-1.301m-23.84 4.14c-5.691.71-8.529 5.833-7.11 12.837.559 2.764 1.573 5.445 3.405 9.004 1.73 3.362 1.98 4.102 2.942 8.691.602 2.87.93 4.037 1.422 5.064.393.821 1.026 1.562 1.576 1.846.828.428 2.099.342 2.696-.182 1.079-.947 1.456-2.359 2.069-7.744.685-6.018 1.254-7.895 2.202-7.274.698.457 1.071 2.135 1.68 7.548.513 4.544.912 6.218 1.707 7.147.977 1.14 2.947 1 3.957-.282.816-1.036 1.247-2.289 2-5.816 1.003-4.695 1.328-5.746 2.416-7.816 2.262-4.302 3.43-7.29 4.052-10.365.209-1.034.25-1.584.25-3.267-.003-2.42-.173-3.23-1.055-5.028-1.236-2.52-3.471-4.004-6.59-4.377-1.936-.231-3.976.13-6.268 1.109-.919.393-1.2.462-2.064.507-1.16.06-1.811-.067-3-.587a13.5 13.5 0 0 0-3.753-1.022c-1.174-.131-1.44-.13-2.533.006m-.382 1.463c-3.373.69-5.303 2.984-5.703 6.784-.37 3.501 1.007 8.314 3.89 13.6 1.306 2.394 1.784 3.835 2.69 8.119.883 4.172 1.336 5.46 2.134 6.068.482.368 1.223.424 1.56.12.577-.522.948-2.274 1.497-7.058.216-1.886.469-3.826.561-4.312.48-2.534 1.267-3.83 2.418-3.984 1.213-.162 2.12.77 2.652 2.722.296 1.088.485 2.349.881 5.885.53 4.721 1 6.627 1.7 6.894.634.24 1.42-.146 1.91-.938.41-.662.852-2.167 1.423-4.837 1.079-5.05 1.313-5.76 2.95-8.94 2.31-4.483 3.378-7.538 3.721-10.652.445-4.022-.87-7.325-3.448-8.67-1.426-.744-2.187-.913-4.047-.901-1.88.011-2.598.163-4.39.925-.904.385-2.212.73-2.884.76-.294.012.231.325.848.505.785.228 1.019.69.574 1.135-.521.522-1.563.151-2.801-.996-1.08-1-1.551-1.297-2.747-1.734-1.734-.633-3.79-.821-5.39-.494M3.686 20.715c-1.248.346-2.002 1.889-1.609 3.292.376 1.341 2.07 2.26 3.525 1.91.704-.169 1.5-.913 1.701-1.593.444-1.494-.175-2.917-1.512-3.473-.58-.241-1.51-.301-2.105-.136m-.015 1.526c-.14.141-.29.46-.332.71-.156.922.548 1.66 1.584 1.66.624 0 .941-.22 1.103-.76.321-1.07-.335-1.866-1.54-1.866-.44 0-.613.055-.815.256m42.048 1.194c-.856.436-1.255 1.74-.837 2.74.188.45.812 1 1.33 1.17.64.211 1.603.095 2.05-.246.659-.502.964-1.427.743-2.248-.363-1.351-2.016-2.063-3.286-1.416m.506 1.297c-.373.532-.112 1.203.53 1.364.48.12.808-.031.91-.42.174-.658-.108-1.045-.83-1.142-.364-.049-.458-.018-.61.198" clip-rule="evenodd"/></svg>