<svg xmlns="http://www.w3.org/2000/svg" width="46" height="43" fill="none" viewBox="0 0 46 43"><g fill="#fff" clip-path="url(#a)"><path fill-rule="evenodd" d="M.866 9.744c-.355 1.223 1.065 2.86 3.787 4.36 1.066-2.96 3.176-5.346 6.352-5.76 4.34-.572 6.45 1.105 10.06.237 3.254-.79 5.7-4.3 11.164-5.859a7 7 0 0 1 1.893-.256C35.286 1.421 35.72-.039 35.72-.039l-.178 1.302a5.984 5.984 0 0 1-5.108 5.108l-1.302.198 1.302.177a6.004 6.004 0 0 1 5.108 5.109l.178 1.302.197-1.302a6.005 6.005 0 0 1 5.109-5.109l1.302-.177s-.493.276-.986.887c1.045 2.486 1.025 5.74-.888 9.29-2.13 4.005-3.689 7.102-4.813 9.765-4.162-.08-9.724-1.105-16.194-2.92C4.594 19.47-2.211 11.658.867 9.744m25.583 3.413.414.059c.829.118 1.48.77 1.598 1.598l.06.394.059-.394a1.88 1.88 0 0 1 1.597-1.598l.395-.06-.395-.058A1.88 1.88 0 0 1 28.58 11.5l-.06-.414-.059.414a1.88 1.88 0 0 1-1.598 1.598z" clip-rule="evenodd"/><path d="M43.474 23.293c3.688 7.496-6.391 9.784-24.36 4.3-5.326-1.617-10.968-4.32-15.15-7.12.12.946.336 1.854.652 2.682 2.702 7.12 3.412 10.474 3.274 15.622-.138 5.582 5.03 4.26 7.101-1.893 1.026-3.058 2.86-3.788 4.004-3.945 2.525.138 3.373 1.716 4.773 5.621 2.13 5.918 8.403 5.858 8.995-.887.118-1.105.237-2.17.414-3.196 2.643.217 5.227.02 7.594-.71 5.76-1.815 6.016-7.633 2.703-10.474M40.77 6.333a8.26 8.26 0 0 0-3.176-2.998c-.77-.572-1.598-1.776-1.637-1.855a5.98 5.98 0 0 0 4.813 4.853"/></g><defs><clipPath id="a"><path fill="#fff" d="M0 0h45.761v43H0z"/></clipPath></defs></svg>