<svg xmlns="http://www.w3.org/2000/svg" width="189" height="49" fill="none" viewBox="0 0 189 49"><path fill="#1e84b5" d="M65.485 15.21q3.321 0 5.804 1.316t3.83 3.71q1.376 2.362 1.376 5.475 0 3.081-1.377 5.475-1.345 2.393-3.859 3.71-2.483 1.316-5.774 1.316h-7.868V15.209zm-.33 16.574q2.903 0 4.519-1.586 1.614-1.586 1.615-4.487 0-2.902-1.615-4.518-1.616-1.616-4.518-1.616h-2.423v12.207zm29.936-4.188q0 .718-.09 1.495H83.422q.12 1.556.988 2.394.897.807 2.184.808 1.914 0 2.663-1.616H94.7a7.4 7.4 0 0 1-1.525 2.962q-1.077 1.316-2.723 2.064t-3.68.748q-2.453 0-4.368-1.047a7.45 7.45 0 0 1-2.991-2.992q-1.078-1.944-1.078-4.547t1.048-4.548a7.45 7.45 0 0 1 2.991-2.991q1.915-1.048 4.398-1.048 2.424 0 4.309 1.018a7.2 7.2 0 0 1 2.931 2.902q1.078 1.884 1.078 4.398m-5.236-1.347q0-1.315-.898-2.094-.897-.778-2.243-.778-1.287 0-2.184.748-.868.749-1.078 2.124zm18.106-6.91q2.932 0 4.668 1.914 1.764 1.885 1.765 5.206v9.753h-5.086v-9.065q0-1.676-.868-2.603-.867-.927-2.334-.928-1.466 0-2.333.928-.867.927-.868 2.603v9.065h-5.116V19.518h5.116v2.214q.778-1.107 2.095-1.736 1.315-.657 2.961-.658m19.292 12.535v4.338h-2.603q-2.782 0-4.338-1.347-1.555-1.376-1.555-4.457v-6.642h-2.035v-4.248h2.035v-4.07h5.115v4.07h3.351v4.248h-3.351v6.702q0 .747.36 1.077.359.329 1.196.329zm1.833-4.04q0-2.572.957-4.517.987-1.944 2.663-2.991t3.739-1.048q1.765 0 3.082.718 1.346.719 2.064 1.885v-2.363h5.116v16.694h-5.116v-2.364q-.747 1.167-2.094 1.885-1.317.718-3.081.718-2.035 0-3.71-1.047-1.676-1.077-2.663-3.022-.957-1.974-.957-4.547m12.505.03q0-1.914-1.077-3.02-1.047-1.108-2.573-1.108t-2.603 1.107q-1.047 1.077-1.047 2.992 0 1.914 1.047 3.051 1.077 1.107 2.603 1.107t2.573-1.107q1.077-1.107 1.077-3.021m11.39-10.082q-1.345 0-2.214-.777a2.64 2.64 0 0 1-.837-1.975q0-1.197.837-1.974.869-.809 2.214-.808 1.317 0 2.154.808.868.777.868 1.974 0 1.167-.868 1.975-.837.777-2.154.777m2.543 1.736v16.694h-5.116V19.518zm8.824 2.782a6.6 6.6 0 0 1 2.244-2.154q1.345-.808 2.991-.808v5.415h-1.406q-1.915 0-2.872.838-.957.807-.957 2.872v7.749h-5.116V19.518h5.116zm23.417 5.296q0 .718-.089 1.495h-11.579q.12 1.556.988 2.394.897.807 2.184.808 1.914 0 2.662-1.616h5.445a7.4 7.4 0 0 1-1.525 2.962q-1.077 1.316-2.723 2.064t-3.68.748q-2.452 0-4.368-1.047a7.45 7.45 0 0 1-2.992-2.992q-1.077-1.944-1.077-4.547t1.048-4.548a7.45 7.45 0 0 1 2.991-2.991q1.916-1.048 4.398-1.048 2.424 0 4.308 1.018a7.2 7.2 0 0 1 2.932 2.902q1.077 1.884 1.077 4.398m-5.235-1.347q0-1.315-.898-2.094-.897-.778-2.244-.778-1.285 0-2.184.748-.867.749-1.077 2.124z"/><g clip-path="url(#a)"><path fill="#0e384c" fill-rule="evenodd" d="M.868 9.744c-.355 1.223 1.065 2.86 3.787 4.36 1.065-2.96 3.176-5.346 6.351-5.76 4.34-.573 6.45 1.104 10.06.236 3.255-.789 5.7-4.3 11.164-5.858a7 7 0 0 1 1.894-.257C35.287 1.42 35.72-.04 35.72-.04l-.177 1.302a5.984 5.984 0 0 1-5.109 5.109l-1.302.197 1.302.178a6.005 6.005 0 0 1 5.109 5.108l.177 1.302.198-1.302a6.004 6.004 0 0 1 5.108-5.108l1.302-.178s-.493.276-.986.888c1.045 2.485 1.026 5.74-.888 9.29-2.13 4.004-3.688 7.101-4.812 9.764-4.162-.079-9.725-1.105-16.195-2.92C4.596 19.469-2.209 11.658.869 9.745m25.583 3.412.414.06c.828.118 1.48.769 1.598 1.597l.059.395.06-.395a1.88 1.88 0 0 1 1.597-1.598l.394-.059-.394-.059a1.88 1.88 0 0 1-1.6-1.598l-.06-.414-.058.414a1.88 1.88 0 0 1-1.598 1.598z" clip-rule="evenodd"/><path fill="#1e84b5" d="M43.474 23.295c3.688 7.495-6.391 9.783-24.36 4.3-5.326-1.617-10.968-4.32-15.15-7.12.12.946.336 1.853.652 2.682 2.702 7.12 3.412 10.474 3.274 15.622-.138 5.582 5.03 4.26 7.101-1.894 1.026-3.057 2.86-3.787 4.004-3.945 2.525.139 3.373 1.717 4.773 5.622 2.13 5.917 8.403 5.858 8.995-.888.118-1.104.237-2.17.414-3.195 2.643.217 5.227.02 7.594-.71 5.76-1.815 6.016-7.634 2.703-10.474"/><path fill="#0c2834" d="M40.771 6.332a8.26 8.26 0 0 0-3.175-2.999c-.77-.572-1.598-1.775-1.637-1.854a5.98 5.98 0 0 0 4.812 4.853"/></g><defs><clipPath id="a"><path fill="#fff" d="M0 0h45.761v43H0z"/></clipPath></defs></svg>