<svg xmlns="http://www.w3.org/2000/svg" width="1832" height="783" fill="none" viewBox="0 0 1832 783"><path fill="#eff8ff" d="M50 96.939c-20.78 2.338-22.597 4.286-24.935 25.065C22.727 101.225 20.779 99.277 0 96.939c20.78-2.338 22.727-4.156 25.065-24.935C27.403 92.784 29.22 94.6 50 96.939"/><path stroke="#1e84b5" stroke-opacity=".2" d="M37.54 95.462c2.271.599 4.993 1.053 8.266 1.478-3.274.428-5.996.89-8.269 1.496-3.175.849-5.517 1.993-7.275 3.768s-2.885 4.133-3.72 7.319c-.599 2.281-1.053 5.009-1.478 8.285-.428-3.277-.89-6.005-1.496-8.287-.849-3.187-1.992-5.545-3.766-7.319s-4.132-2.917-7.32-3.766c-2.28-.607-5.01-1.068-8.286-1.496 3.276-.425 6.004-.88 8.285-1.478 3.186-.835 5.544-1.962 7.319-3.72s2.919-4.1 3.767-7.275c.608-2.273 1.07-4.995 1.497-8.269.425 3.273.88 5.995 1.478 8.267.835 3.174 1.963 5.517 3.721 7.276s4.101 2.885 7.276 3.721Z"/><path fill="#1e84b5" d="M1703 715.449c-16.21 1.824-17.63 3.343-19.45 19.551-1.82-16.208-3.34-17.727-19.55-19.551 16.21-1.823 17.73-3.241 19.55-19.449 1.82 16.208 3.24 17.626 19.45 19.449"/><path fill="#1e84b5" fill-opacity=".1" d="M1806.64 50.023c-3.49 0-6.33-2.84-6.33-6.33V6.354a6.34 6.34 0 0 1 6.33-6.332c3.41 0 6.25 2.841 6.25 6.332v37.337c0 3.49-2.84 6.331-6.25 6.331"/><path fill="#1e84b5" fill-opacity=".1" d="M1781.64 25.023c0-3.49 2.84-6.332 6.25-6.332h37.42c3.49 0 6.25 2.841 6.25 6.332s-2.76 6.33-6.25 6.33h-37.42c-3.41 0-6.25-2.84-6.25-6.33M523.003 783a6.34 6.34 0 0 1-6.331-6.331v-37.338a6.34 6.34 0 0 1 6.331-6.331c3.409 0 6.25 2.841 6.25 6.331v37.338c0 3.49-2.841 6.331-6.25 6.331"/><path fill="#1e84b5" fill-opacity=".1" d="M498 757.999c0-3.49 2.841-6.331 6.25-6.331h37.419c3.49 0 6.25 2.841 6.25 6.331s-2.76 6.331-6.25 6.331H504.25c-3.409 0-6.25-2.841-6.25-6.331"/></svg>