<svg xmlns="http://www.w3.org/2000/svg" width="1846" height="1128" fill="none" viewBox="0 0 1846 1128"><g clip-path="url(#a)"><path stroke="#1e84b5" stroke-opacity=".2" d="M1251.94 904.07c-5.31 0-9.63-4.321-9.63-9.63V834.7c0-5.308 4.32-9.63 9.63-9.63 5.18 0 9.5 4.318 9.5 9.63v59.74c0 5.313-4.32 9.63-9.5 9.63Z"/><path stroke="#1e84b5" stroke-opacity=".2" d="M1212.45 864.568c0-5.312 4.32-9.63 9.5-9.63h59.87c5.3 0 9.5 4.314 9.5 9.63s-4.2 9.63-9.5 9.63h-59.87c-5.18 0-9.5-4.317-9.5-9.63Z"/><path fill="#1e84b5" fill-opacity=".1" d="M1815.36 60c-4.19 0-7.59-3.41-7.59-7.597V7.597c0-4.188 3.4-7.597 7.59-7.597 4.09 0 7.5 3.41 7.5 7.597v44.806c0 4.188-3.41 7.597-7.5 7.597"/><path fill="#1e84b5" fill-opacity=".1" d="M1785.37 29.996c0-4.188 3.41-7.598 7.5-7.598h44.9c4.19 0 7.5 3.41 7.5 7.598s-3.31 7.597-7.5 7.597h-44.9c-4.09 0-7.5-3.409-7.5-7.597M133.003 1113a6.34 6.34 0 0 1-6.331-6.33v-37.34c0-3.49 2.841-6.33 6.331-6.33 3.409 0 6.25 2.84 6.25 6.33v37.34c0 3.49-2.841 6.33-6.25 6.33"/><path fill="#1e84b5" fill-opacity=".1" d="M108 1088c0-3.49 2.841-6.33 6.25-6.33h37.419c3.49 0 6.25 2.84 6.25 6.33s-2.76 6.33-6.25 6.33H114.25c-3.409 0-6.25-2.84-6.25-6.33"/><path fill="#1e84b5" d="M1768 1108.45c-16.21 1.82-17.63 3.34-19.45 19.55-1.82-16.21-3.34-17.73-19.55-19.55 16.21-1.82 17.73-3.24 19.55-19.45 1.82 16.21 3.24 17.63 19.45 19.45"/><path fill="#eff8ff" d="M50 109.935c-20.78 2.338-22.597 4.286-24.935 25.065-2.338-20.779-4.286-22.727-25.065-25.065 20.78-2.338 22.727-4.156 25.065-24.935 2.338 20.779 4.156 22.597 24.935 24.935"/><path stroke="#1e84b5" stroke-opacity=".2" d="M37.538 108.459c2.272.599 4.994 1.053 8.267 1.478-3.274.428-5.996.889-8.269 1.497-3.175.848-5.517 1.992-7.275 3.767s-2.885 4.133-3.72 7.319c-.599 2.281-1.053 5.009-1.478 8.285-.428-3.277-.89-6.005-1.496-8.286-.849-3.188-1.992-5.546-3.766-7.32s-4.132-2.917-7.32-3.766c-2.28-.607-5.01-1.068-8.286-1.496 3.276-.425 6.004-.879 8.285-1.478 3.186-.835 5.544-1.962 7.319-3.72s2.92-4.1 3.768-7.275c.607-2.273 1.068-4.995 1.496-8.269.425 3.273.88 5.995 1.478 8.267.836 3.175 1.963 5.517 3.721 7.276s4.102 2.886 7.276 3.721Z"/><path fill="#eff8ff" stroke="#1e84b5" d="M216.127 847.116c2.861.754 6.418 1.288 10.873 1.817-4.456.53-8.013 1.072-10.873 1.837-3.28.876-5.664 2.049-7.444 3.847s-2.936 4.199-3.8 7.49c-.753 2.871-1.287 6.436-1.816 10.893-.53-4.457-1.073-8.023-1.837-10.894-.876-3.292-2.048-5.693-3.846-7.49-1.797-1.798-4.198-2.97-7.49-3.846-2.871-.765-6.436-1.307-10.894-1.837 4.457-.529 8.022-1.063 10.893-1.817 3.291-.863 5.693-2.018 7.49-3.799 1.798-1.78 2.971-4.164 3.847-7.444.764-2.86 1.307-6.417 1.837-10.873.529 4.455 1.063 8.012 1.816 10.873.864 3.278 2.019 5.663 3.8 7.444s4.166 2.936 7.444 3.799Z"/></g><defs><clipPath id="a"><path fill="#fff" d="M0 0h1846v1128H0z"/></clipPath></defs></svg>