<svg xmlns="http://www.w3.org/2000/svg" width="1818" height="742" fill="none" viewBox="0 0 1818 742"><path fill="#eff8ff" d="M52.852 123.784c-21.61 2.431-23.502 4.457-25.933 26.068-2.431-21.611-4.457-23.637-26.067-26.068 21.61-2.431 23.636-4.322 26.067-25.932 2.431 21.61 4.322 23.501 25.933 25.932"/><path stroke="#1e84b5" stroke-opacity=".2" d="M39.897 122.229c2.397.631 5.276 1.109 8.748 1.556-3.472.451-6.352.935-8.75 1.576-3.3.882-5.732 2.07-7.557 3.913s-2.995 4.291-3.864 7.603c-.631 2.406-1.108 5.292-1.556 8.766-.45-3.475-.935-6.361-1.575-8.768-.882-3.313-2.07-5.761-3.912-7.603-1.841-1.841-4.29-3.03-7.603-3.911-2.406-.641-5.293-1.125-8.768-1.576 3.475-.447 6.36-.925 8.767-1.556 3.312-.869 5.76-2.039 7.602-3.864s3.032-4.257 3.913-7.557c.641-2.398 1.126-5.278 1.576-8.75.448 3.472.925 6.351 1.556 8.748.869 3.3 2.04 5.732 3.866 7.558 1.825 1.825 4.257 2.996 7.557 3.865Z"/><path fill="#1e84b5" d="M1685 722.449c-16.21 1.824-17.63 3.343-19.45 19.551-1.82-16.208-3.34-17.727-19.55-19.551 16.21-1.823 17.73-3.241 19.55-19.449 1.82 16.208 3.24 17.626 19.45 19.449"/><path fill="#1e84b5" fill-opacity=".1" d="M1787.5 60.121c-4.19 0-7.6-3.409-7.6-7.597V7.719c0-4.189 3.41-7.598 7.6-7.598 4.09 0 7.5 3.41 7.5 7.598v44.805c0 4.188-3.41 7.597-7.5 7.597"/><path fill="#1e84b5" fill-opacity=".1" d="M1757.49 30.12c0-4.187 3.41-7.597 7.5-7.597h44.9c4.19 0 7.5 3.41 7.5 7.598s-3.31 7.597-7.5 7.597h-44.9c-4.09 0-7.5-3.409-7.5-7.597"/></svg>