<svg xmlns="http://www.w3.org/2000/svg" width="1920" height="164" fill="none" viewBox="0 0 1920 164"><path fill="#1e84b5" fill-opacity=".1" d="M1867.47 92.844c-7.36 0-13.2-5.232-13.2-11.578V12.24c0-6.457 5.84-11.69 13.2-11.69s13.33 5.233 13.33 11.69v69.026c0 6.346-5.97 11.578-13.33 11.578"/><path fill="#1e84b5" fill-opacity=".1" d="M1814.92 46.752c0-6.457 5.84-11.69 13.2-11.69h78.69c7.36 0 13.2 5.233 13.2 11.69s-5.84 11.579-13.2 11.579h-78.69c-7.36 0-13.2-5.122-13.2-11.579M105.211 117.468c-43.724 4.315-47.55 7.911-52.469 46.267-4.919-38.356-9.018-41.952-52.742-46.267 43.724-4.315 47.823-7.671 52.742-46.027 4.919 38.356 8.745 41.712 52.469 46.027"/></svg>