<svg xmlns="http://www.w3.org/2000/svg" width="1839" height="771" fill="none" viewBox="0 0 1839 771"><path fill="#1e84b5" d="M1778 746.436c-20.36 2.291-22.15 4.2-24.44 24.564-2.29-20.364-4.2-22.273-24.56-24.564 20.36-2.291 22.27-4.072 24.56-24.436 2.29 20.364 4.08 22.145 24.44 24.436"/><path stroke="#1e84b5" stroke-opacity=".2" d="M1717.85 725.189c3.46.911 7.69 1.581 12.87 2.222-5.18.645-9.41 1.325-12.87 2.249-4.36 1.167-7.56 2.733-9.95 5.15-2.4 2.416-3.94 5.635-5.09 10.015-.91 3.474-1.58 7.707-2.22 12.893-.65-5.186-1.33-9.42-2.25-12.895-1.17-4.381-2.73-7.599-5.15-10.015-2.41-2.415-5.63-3.982-10.01-5.148-3.48-.924-7.71-1.604-12.9-2.249 5.19-.641 9.42-1.311 12.9-2.222 4.38-1.149 7.59-2.692 10.01-5.085s3.98-5.59 5.15-9.955c.92-3.461 1.6-7.686 2.25-12.868.64 5.182 1.31 9.406 2.22 12.867 1.15 4.363 2.69 7.56 5.09 9.954 2.39 2.394 5.59 3.938 9.95 5.087ZM123.539 738.056c2.272.598 4.994 1.053 8.267 1.478-3.274.428-5.996.889-8.269 1.496-3.175.849-5.517 1.993-7.275 3.768s-2.885 4.133-3.72 7.319c-.599 2.28-1.053 5.009-1.478 8.284-.428-3.276-.889-6.005-1.496-8.286-.849-3.187-1.992-5.545-3.766-7.319s-4.132-2.918-7.32-3.766c-2.28-.607-5.01-1.068-8.286-1.496 3.276-.425 6.004-.88 8.285-1.478 3.186-.836 5.544-1.962 7.319-3.72s2.919-4.1 3.767-7.276c.608-2.272 1.069-4.995 1.497-8.268.425 3.273.879 5.995 1.478 8.267.836 3.174 1.963 5.517 3.721 7.275s4.101 2.886 7.276 3.722Z"/><path fill="#1e84b5" fill-opacity=".1" d="M1808.61 60c-4.19 0-7.59-3.41-7.59-7.597V7.597c0-4.188 3.4-7.597 7.59-7.597 4.09 0 7.5 3.41 7.5 7.597v44.806c0 4.188-3.41 7.597-7.5 7.597"/><path fill="#1e84b5" fill-opacity=".1" d="M1778.61 30c0-4.189 3.41-7.598 7.5-7.598h44.9c4.19 0 7.5 3.41 7.5 7.598s-3.31 7.597-7.5 7.597h-44.9c-4.09 0-7.5-3.409-7.5-7.597"/><path fill="#eff8ff" d="M958.996 770c-4.188 0-7.598-3.409-7.598-7.597v-44.806c0-4.188 3.41-7.597 7.598-7.597 4.091 0 7.5 3.409 7.5 7.597v44.806c0 4.188-3.409 7.597-7.5 7.597"/><path stroke="#1e84b5" stroke-opacity=".2" d="M958.996 769.5c-3.912 0-7.098-3.185-7.098-7.097v-44.806c0-3.912 3.186-7.097 7.098-7.097 3.81 0 7 3.181 7 7.097v44.806c0 3.916-3.19 7.097-7 7.097Z"/><path fill="#eff8ff" d="M929 740c0-4.189 3.409-7.598 7.5-7.598h44.903c4.188 0 7.5 3.409 7.5 7.598 0 4.188-3.312 7.597-7.5 7.597H936.5c-4.091 0-7.5-3.409-7.5-7.597"/><path stroke="#1e84b5" stroke-opacity=".2" d="M929.5 740c0-3.917 3.189-7.098 7-7.098h44.903c3.903 0 7 3.177 7 7.098s-3.097 7.097-7 7.097H936.5c-3.811 0-7-3.181-7-7.097Z"/><path fill="#eff8ff" d="M25.003 132.844a6.34 6.34 0 0 1-6.331-6.331V89.175a6.34 6.34 0 0 1 6.331-6.331c3.41 0 6.25 2.84 6.25 6.331v37.338c0 3.49-2.84 6.331-6.25 6.331"/><path stroke="#1e84b5" stroke-opacity=".2" d="M25.003 132.344a5.84 5.84 0 0 1-5.831-5.831V89.175a5.84 5.84 0 0 1 5.831-5.831c3.129 0 5.75 2.613 5.75 5.831v37.338c0 3.218-2.621 5.831-5.75 5.831Z"/><path fill="#eff8ff" d="M0 107.843c0-3.49 2.84-6.331 6.25-6.331h37.419c3.49 0 6.25 2.841 6.25 6.331s-2.76 6.331-6.25 6.331H6.25c-3.41 0-6.25-2.841-6.25-6.331"/><path stroke="#1e84b5" stroke-opacity=".2" d="M.5 107.843c0-3.218 2.621-5.831 5.75-5.831h37.419c3.206 0 5.75 2.608 5.75 5.831 0 3.222-2.544 5.831-5.75 5.831H6.25c-3.129 0-5.75-2.613-5.75-5.831Z"/></svg>